<?xml version="1.0" encoding="utf-8"?>
<!-- Generator: Adobe Illustrator 15.1.0, SVG Export Plug-In . SVG Version: 6.00 Build 0)  -->
<!DOCTYPE svg PUBLIC "-//W3C//DTD SVG 1.1//EN" "http://www.w3.org/Graphics/SVG/1.1/DTD/svg11.dtd" [
	<!ENTITY st0 "fill:#231F20;">
]>
<svg version="1.1" id="Layer_1" xmlns="http://www.w3.org/2000/svg" xmlns:xlink="http://www.w3.org/1999/xlink" x="0px" y="0px"
	 width="515.82617px" height="92.01953px" viewBox="0 0 515.82617 92.01953" style="enable-background:new 0 0 515.82617 92.01953;"
	 xml:space="preserve">
<g>
	<path style="&st0;" d="M15.54541,18.83691V15.2998l12.77051-0.02051v11.18701c-1.96045,1.56299-3.98242,2.73877-6.06641,3.52686
		s-4.22266,1.18262-6.41602,1.18262c-2.96143,0-5.65234-0.63379-8.07178-1.90234c-2.41992-1.26807-4.24658-3.10156-5.48047-5.50098
		c-1.23389-2.39893-1.85059-5.07959-1.85059-8.04053c0-2.93408,0.61328-5.67236,1.84033-8.21582
		c1.22705-2.54297,2.99219-4.43164,5.29541-5.66553S12.52246,0,15.5249,0c2.17969,0,4.15039,0.35303,5.9126,1.05908
		c1.76123,0.70605,3.14258,1.68945,4.14355,2.95068c1.00049,1.26172,1.76123,2.90674,2.28271,4.93555l-3.59863,0.9873
		C23.8125,8.39697,23.25,7.19043,22.57861,6.31299c-0.67188-0.87695-1.63184-1.57959-2.87891-2.10791
		c-1.24805-0.52734-2.63232-0.7915-4.1543-0.7915c-1.82324,0-3.3999,0.27734-4.72998,0.83301
		C9.48584,4.80176,8.4126,5.53174,7.59717,6.43652C6.78125,7.34131,6.14746,8.33545,5.69482,9.41846
		c-0.76758,1.86475-1.15137,3.88672-1.15137,6.06641c0,2.6875,0.46289,4.93555,1.38818,6.74512
		c0.92529,1.81006,2.27246,3.15381,4.04102,4.03076c1.76855,0.87744,3.64648,1.31641,5.63477,1.31641
		c1.72705,0,3.41357-0.33252,5.05859-0.99756s2.89258-1.37451,3.74268-2.12842v-5.61426H15.54541z"/>
	<path style="&st0;" d="M32.34668,19.7417c0-4.04395,1.12402-7.03955,3.37256-8.98682
		c1.87793-1.61719,4.16748-2.42627,6.86865-2.42627c3.00244,0,5.45605,0.98389,7.36182,2.95068
		c1.90576,1.96777,2.85889,4.68555,2.85889,8.15381c0,2.81104-0.42188,5.02148-1.26465,6.63232
		c-0.84326,1.61133-2.07031,2.86182-3.68115,3.75293c-1.61133,0.89111-3.36963,1.33691-5.2749,1.33691
		c-3.05762,0-5.52881-0.97998-7.41357-2.94092C33.28906,26.25391,32.34668,23.43018,32.34668,19.7417z M36.15088,19.7417
		c0,2.79688,0.60986,4.89111,1.83057,6.28271c1.21973,1.3916,2.75537,2.0874,4.60645,2.0874
		c1.83691,0,3.36523-0.69922,4.58594-2.09766c1.21973-1.39844,1.83008-3.53027,1.83008-6.39551
		c0-2.70117-0.61377-4.74707-1.84033-6.13867c-1.22705-1.3916-2.75244-2.0874-4.57568-2.0874
		c-1.85107,0-3.38672,0.69238-4.60645,2.07715C36.76074,14.85449,36.15088,16.94482,36.15088,19.7417z"/>
	<path style="&st0;" d="M65.22949,27.35059l0.53467,3.27002c-1.04199,0.21924-1.97412,0.3291-2.79639,0.3291
		c-1.34375,0-2.38574-0.21289-3.12598-0.6377s-1.26172-0.9834-1.56299-1.67578c-0.30176-0.69238-0.45215-2.14941-0.45215-4.37012
		V11.70117h-2.71484V8.82178h2.71484v-5.4082l3.68066-2.22119v7.62939h3.72217v2.87939h-3.72217v12.77051
		c0,1.05566,0.06494,1.73438,0.19531,2.03613c0.13037,0.30127,0.34277,0.5415,0.6377,0.71973s0.71631,0.26709,1.26465,0.26709
		C64.0166,27.49463,64.55762,27.44678,65.22949,27.35059z"/>
	<path style="&st0;" d="M68.84912,30.66162V0.51367h3.70166v10.81738c1.72705-2.00146,3.90723-3.00244,6.53955-3.00244
		c1.61719,0,3.02295,0.31836,4.21533,0.95605c1.19287,0.6377,2.04639,1.51855,2.56055,2.64258
		c0.51416,1.12451,0.771,2.75586,0.771,4.89453v13.83984h-3.70166V16.82178c0-1.85107-0.40088-3.19775-1.20264-4.04102
		c-0.80225-0.84326-1.93701-1.26465-3.40381-1.26465c-1.09668,0-2.12842,0.28467-3.09473,0.85352
		c-0.9668,0.56885-1.65576,1.33984-2.06689,2.31348S72.55078,17,72.55078,18.71338v11.94824H68.84912z"/>
	<path style="&st0;" d="M92.29297,4.771V0.51367h3.70166V4.771H92.29297z M92.29297,30.66162V8.82178h3.70166v21.83984H92.29297z"/>
	<path style="&st0;" d="M115.87988,22.66211l3.64014,0.47266c-0.39795,2.50928-1.41602,4.47314-3.05371,5.89209
		c-1.63867,1.41895-3.65039,2.12842-6.03613,2.12842c-2.98877,0-5.39111-0.97705-7.20752-2.93066
		c-1.81689-1.95361-2.7251-4.75342-2.7251-8.40039c0-2.35791,0.39111-4.42139,1.17236-6.18994s1.9707-3.09521,3.56787-3.97949
		s3.33496-1.32617,5.21338-1.32617c2.37158,0,4.31152,0.59961,5.81982,1.79932c1.50781,1.19971,2.47412,2.90283,2.89941,5.11035
		l-3.59863,0.55518c-0.34326-1.4668-0.94971-2.5708-1.82031-3.31104s-1.92285-1.11035-3.15674-1.11035
		c-1.86426,0-3.37939,0.66846-4.54443,2.00488c-1.16553,1.33691-1.74805,3.45166-1.74805,6.34424
		c0,2.93408,0.56201,5.06592,1.68604,6.39551c1.12402,1.33008,2.59131,1.99512,4.40088,1.99512
		c1.45312,0,2.6665-0.4458,3.64014-1.33691C115.00244,25.88379,115.61963,24.5127,115.87988,22.66211z"/>
</g>
<g>
	<path style="&st0;" d="M134.71826,30.66162V0.51367h20.66699v5.1001h-14.58008V12.75h12.58545v5.1001h-12.58545v12.81152H134.71826
		z"/>
	<path style="&st0;" d="M165.89404,30.66162h-5.77832V8.82178h5.36719v3.10547c0.91846-1.4668,1.74463-2.43359,2.47803-2.89941
		c0.7334-0.46631,1.56641-0.69922,2.49854-0.69922c1.31641,0,2.58398,0.36328,3.80469,1.08984l-1.78906,5.03809
		c-0.97363-0.63037-1.87842-0.9458-2.71484-0.9458c-0.80908,0-1.49414,0.22314-2.05615,0.66846
		c-0.5625,0.4458-1.00439,1.25098-1.32666,2.41602c-0.32227,1.16553-0.4834,3.60596-0.4834,7.32129V30.66162z"/>
	<path style="&st0;" d="M176.75195,5.86084V0.51367h5.77881v5.34717H176.75195z M176.75195,30.66162V8.82178h5.77881v21.83984
		H176.75195z"/>
	<path style="&st0;" d="M187.91846,32.10107l6.60107,0.80225c0.10986,0.76758,0.36328,1.29541,0.76123,1.5835
		c0.54785,0.41113,1.41162,0.6167,2.59082,0.6167c1.5083,0,2.63916-0.22607,3.39355-0.67871
		c0.50684-0.30176,0.89062-0.78857,1.15137-1.45996c0.17822-0.47998,0.26758-1.36426,0.26758-2.65283v-3.1875
		c-1.72754,2.3584-3.90771,3.53711-6.53955,3.53711c-2.93408,0-5.25781-1.24072-6.97168-3.72217
		c-1.34375-1.96045-2.01514-4.40088-2.01514-7.3208c0-3.66064,0.88086-6.45752,2.64258-8.39062
		c1.76123-1.93311,3.95166-2.89941,6.57031-2.89941c2.70068,0,4.92822,1.18604,6.68359,3.55762V8.82178h5.4082v19.59814
		c0,2.57764-0.2124,4.50391-0.63721,5.77881c-0.42529,1.2749-1.02148,2.27539-1.78906,3.00244
		c-0.76807,0.72656-1.79297,1.29541-3.07471,1.70703c-1.28223,0.41113-2.90283,0.6167-4.86328,0.6167
		c-3.70166,0-6.32715-0.63428-7.87646-1.90234s-2.32373-2.87549-2.32373-4.82227
		C187.89795,32.6084,187.90479,32.375,187.91846,32.10107z M193.08008,19.28955c0,2.31689,0.44922,4.01367,1.34717,5.08936
		c0.89795,1.07666,2.00488,1.61475,3.32129,1.61475c1.41162,0,2.60449-0.55176,3.57812-1.65576
		c0.97314-1.10352,1.45996-2.73828,1.45996-4.90479c0-2.26172-0.46631-3.94092-1.39844-5.03809
		c-0.93213-1.09668-2.11133-1.64502-3.53711-1.64502c-1.38477,0-2.52588,0.53809-3.42383,1.61426
		S193.08008,17.08203,193.08008,19.28955z"/>
	<path style="&st0;" d="M219.93799,0.51367v11.08447c1.86426-2.17969,4.09229-3.26953,6.68311-3.26953
		c1.33008,0,2.52979,0.24658,3.59912,0.74023s1.87451,1.12402,2.4165,1.89209c0.54102,0.76758,0.91113,1.61768,1.11035,2.5498
		c0.19824,0.93262,0.29785,2.37891,0.29785,4.33936v12.81152h-5.77832V19.125c0-2.28955-0.10986-3.74268-0.3291-4.35986
		c-0.21973-0.6167-0.60693-1.10693-1.16211-1.47021S225.52441,12.75,224.68848,12.75c-0.95996,0-1.81689,0.23291-2.5708,0.69922
		c-0.75391,0.46582-1.30566,1.16895-1.65527,2.10791s-0.52441,2.32715-0.52441,4.16406v10.94043h-5.77881V0.51367H219.93799z"/>
	<path style="&st0;" d="M249.9209,8.82178v4.60693h-3.94873v8.80127c0,1.78271,0.0376,2.8208,0.11328,3.11572
		c0.0752,0.29492,0.24658,0.53809,0.51416,0.72998c0.26709,0.19238,0.59277,0.28809,0.97656,0.28809
		c0.53516,0,1.30908-0.18506,2.32422-0.55518l0.49316,4.48291c-1.34375,0.57568-2.86523,0.86377-4.56494,0.86377
		c-1.04248,0-1.98145-0.1748-2.81738-0.52441c-0.83643-0.34961-1.4502-0.80225-1.84082-1.35742s-0.66162-1.30566-0.81201-2.25195
		c-0.12354-0.67139-0.18506-2.02881-0.18506-4.07178v-9.521h-2.65283V8.82178h2.65283V4.48291l5.79883-3.37256v7.71143H249.9209z"/>
</g>
<g>
	<path style="&st0;" d="M265.9209,30.66162V0.51367h13.36719c2.6875,0,4.73047,0.271,6.12891,0.8125
		c1.39746,0.54199,2.51562,1.49805,3.35156,2.86865c0.83594,1.37109,1.25488,2.88623,1.25488,4.54492
		c0,2.13867-0.69336,3.94189-2.07715,5.40869c-1.38477,1.4668-3.52441,2.39893-6.41602,2.79639
		c1.05469,0.50732,1.85742,1.00781,2.40527,1.50146c1.16504,1.06934,2.26953,2.40625,3.31152,4.01025l5.24414,8.20508h-5.01855
		l-3.98926-6.27197c-1.16504-1.81006-2.125-3.19434-2.87891-4.1543c-0.75391-0.95947-1.42969-1.63135-2.02539-2.01514
		c-0.59668-0.38379-1.20312-0.65137-1.82031-0.80225c-0.45215-0.0957-1.19238-0.14404-2.2207-0.14404h-4.62695v13.3877H265.9209z
		 M269.91113,13.81934h8.5752c1.82324,0,3.24902-0.18848,4.27734-0.56543s1.80957-0.98047,2.34473-1.81006
		c0.53418-0.8291,0.80176-1.73047,0.80176-2.7041c0-1.42578-0.51758-2.59766-1.55273-3.5166
		c-1.03516-0.91846-2.66992-1.37793-4.9043-1.37793h-9.54199V13.81934z"/>
	<path style="&st0;" d="M310.75195,23.62842l3.8252,0.47314c-0.60352,2.23486-1.7207,3.96875-3.35254,5.20264
		c-1.63086,1.23389-3.71484,1.85107-6.25098,1.85107c-3.19434,0-5.72754-0.98389-7.59863-2.95117s-2.80762-4.72607-2.80762-8.27734
		c0-3.67383,0.94629-6.52539,2.83789-8.55469c1.89258-2.02881,4.34668-3.04346,7.3623-3.04346
		c2.91992,0,5.30566,0.99414,7.15625,2.98193c1.85156,1.98779,2.77637,4.78467,2.77637,8.39014
		c0,0.21924-0.00684,0.54834-0.02051,0.9873h-16.28711c0.13672,2.39893,0.81543,4.23633,2.03613,5.51123
		c1.21973,1.2749,2.74219,1.9126,4.56543,1.9126c1.35742,0,2.51562-0.35645,3.47559-1.06934
		C309.42871,26.32959,310.18945,25.19141,310.75195,23.62842z M298.59863,17.64404h12.19434
		c-0.16406-1.83691-0.63086-3.21484-1.39844-4.1333c-1.17871-1.42578-2.70703-2.13867-4.58594-2.13867
		c-1.7002,0-3.12891,0.56885-4.28711,1.70703C299.3623,14.2168,298.72168,15.73877,298.59863,17.64404z"/>
	<path style="&st0;" d="M320.1084,30.66162V11.70117h-3.26953V8.82178h3.26953V6.49805c0-1.4668,0.13086-2.55664,0.39062-3.26953
		c0.35645-0.95947,0.98438-1.73779,1.88184-2.33398C323.2793,0.29785,324.53711,0,326.1543,0
		c1.04199,0,2.19336,0.12305,3.45508,0.37012l-0.55469,3.22852c-0.76855-0.13672-1.49512-0.20557-2.18066-0.20557
		c-1.12402,0-1.91895,0.23975-2.38477,0.71973c-0.4668,0.47998-0.69922,1.37793-0.69922,2.69385v2.01514h4.25684v2.87939h-4.25684
		v18.96045H320.1084z"/>
	<path style="&st0;" d="M345.23828,30.66162v-3.20801c-1.7002,2.46777-4.00977,3.70166-6.92969,3.70166
		c-1.28906,0-2.49219-0.24707-3.60938-0.74023c-1.11719-0.49365-1.94727-1.11377-2.48828-1.86133
		c-0.54199-0.74707-0.92188-1.66211-1.1416-2.74512c-0.15039-0.72656-0.22559-1.87842-0.22559-3.45508V8.82178h3.70117v12.11279
		c0,1.93311,0.0752,3.23584,0.22656,3.90723c0.23242,0.97363,0.72656,1.73779,1.48047,2.29297s1.68652,0.83301,2.79688,0.83301
		s2.15234-0.28467,3.12598-0.85352c0.97266-0.56885,1.66211-1.34326,2.06641-2.32373
		c0.4043-0.97998,0.60645-2.40283,0.60645-4.26709V8.82178h3.70215v21.83984H345.23828z"/>
	<path style="&st0;" d="M352.86816,24.14258l3.66016-0.57568c0.20605,1.46729,0.77832,2.59131,1.7168,3.37256
		c0.93945,0.78125,2.25195,1.17236,3.93848,1.17236c1.7002,0,2.96094-0.34619,3.78418-1.03857
		c0.82227-0.69238,1.2334-1.50439,1.2334-2.43701c0-0.83594-0.36328-1.49414-1.08984-1.97412
		c-0.50684-0.3291-1.76855-0.74707-3.78418-1.25439c-2.71387-0.68555-4.5957-1.27832-5.64453-1.77881
		s-1.84375-1.19287-2.38574-2.07715s-0.8125-1.86133-0.8125-2.93066c0-0.97314,0.22266-1.87451,0.66895-2.7041
		c0.44531-0.82959,1.05176-1.51807,1.81934-2.06689c0.57617-0.4248,1.36133-0.78467,2.35547-1.07959
		c0.99316-0.29443,2.05957-0.44189,3.19727-0.44189c1.71387,0,3.21875,0.24658,4.51367,0.74023
		c1.2959,0.49365,2.25195,1.16162,2.86914,2.00488s1.04199,1.97119,1.27539,3.38281l-3.62012,0.49365
		c-0.16406-1.12402-0.64062-2.00146-1.42871-2.63232c-0.78906-0.63037-1.90234-0.9458-3.3418-0.9458
		c-1.7002,0-2.91309,0.28125-3.63965,0.84326c-0.72754,0.56201-1.08984,1.22021-1.08984,1.97412
		c0,0.47998,0.15039,0.91162,0.45215,1.29541c0.30078,0.39795,0.77441,0.72705,1.41895,0.9873
		c0.37012,0.13721,1.45996,0.45215,3.26953,0.9458c2.61816,0.69922,4.44531,1.27197,5.48047,1.71729
		c1.03516,0.4458,1.84766,1.09326,2.43652,1.94336c0.58984,0.8501,0.88477,1.90576,0.88477,3.16699
		c0,1.23389-0.36035,2.39551-1.08008,3.48535c-0.71973,1.09033-1.75781,1.93311-3.11523,2.52979
		c-1.35742,0.59619-2.89258,0.89453-4.60645,0.89453c-2.83789,0-5.00098-0.58936-6.48828-1.76855
		S353.2793,26.45947,352.86816,24.14258z"/>
	<path style="&st0;" d="M389.6582,27.96777c-1.37109,1.16553-2.69043,1.98779-3.95898,2.46777
		c-1.26758,0.47949-2.62891,0.71973-4.08203,0.71973c-2.39844,0-4.24316-0.58643-5.53125-1.7583
		c-1.28906-1.17236-1.93359-2.66992-1.93359-4.49365c0-1.06934,0.24316-2.0459,0.73047-2.93018
		c0.48633-0.88428,1.12402-1.59375,1.91211-2.12842s1.67676-0.93896,2.66309-1.21338
		c0.72656-0.19189,1.82324-0.37695,3.29102-0.55518c2.98828-0.35645,5.18848-0.78174,6.60059-1.2749
		c0.01367-0.50732,0.02051-0.82959,0.02051-0.9668c0-1.50781-0.34961-2.57031-1.04883-3.1875
		c-0.94531-0.83594-2.35059-1.25439-4.21582-1.25439c-1.74121,0-3.02637,0.30518-3.85547,0.91504
		c-0.83008,0.61035-1.44336,1.68994-1.84082,3.23877l-3.61914-0.49316c0.3291-1.54932,0.87012-2.80029,1.625-3.75342
		c0.75391-0.95264,1.84375-1.68604,3.26953-2.2002s3.07715-0.771,4.95605-0.771c1.86426,0,3.37891,0.21924,4.54492,0.65771
		c1.16504,0.43896,2.02148,0.99072,2.57031,1.65576c0.54785,0.66504,0.93262,1.50439,1.15137,2.51904
		c0.12402,0.63086,0.18555,1.76855,0.18555,3.41357v4.93555c0,3.44141,0.07812,5.61768,0.23633,6.5293
		c0.15723,0.91211,0.46973,1.78613,0.93555,2.62207h-3.86621C390.01465,29.89404,389.76758,28.99609,389.6582,27.96777z
		 M389.34961,19.70068c-1.34375,0.54834-3.3584,1.01465-6.0459,1.39844c-1.52148,0.21924-2.59766,0.46631-3.22852,0.74023
		c-0.63086,0.27441-1.11719,0.67529-1.45996,1.20312s-0.51465,1.11377-0.51465,1.7583c0,0.98682,0.37402,1.80957,1.12109,2.46777
		s1.84082,0.98682,3.28027,0.98682c1.42578,0,2.69434-0.31152,3.80469-0.93555c1.11035-0.62354,1.92578-1.47705,2.44727-2.56006
		c0.39746-0.83643,0.5957-2.07031,0.5957-3.70166V19.70068z"/>
	<path style="&st0;" d="M398.74805,30.66162V0.51367h3.70117v30.14795H398.74805z"/>
</g>
<g>
	<path style="&st0;" d="M432.30664,28.58496h-3.98047l-0.90332,2.07666h-1.8457l4.53711-9.70898h0.38477l4.57617,9.70898h-1.82715
		L432.30664,28.58496z M428.96094,27.10498h2.69141l-1.28809-2.88428h-0.13477L428.96094,27.10498z"/>
	<path style="&st0;" d="M442.80371,26.79736l3.13477,3.61426v0.25h-2l-3.07617-3.69141h-1.11523v3.69141h-1.76855v-9.61279h3.71094
		c1.97949,0,3.38379,1.19189,3.38379,2.94141C445.07324,25.4707,444.26562,26.47021,442.80371,26.79736z M441.6123,22.47119
		h-1.86523v3.0957h1.82617c1.05762,0,1.69238-0.57715,1.69238-1.59619C443.26562,22.95215,442.57324,22.47119,441.6123,22.47119z"/>
	<path style="&st0;" d="M451.01367,30.66162h-1.76855v-9.61279h1.76855V30.66162z"/>
	<path style="&st0;" d="M460.93555,28.58496h-3.98047l-0.90332,2.07666h-1.8457l4.53711-9.70898h0.38477l4.57617,9.70898h-1.82715
		L460.93555,28.58496z M457.58984,27.10498h2.69141l-1.28809-2.88428h-0.13477L457.58984,27.10498z"/>
</g>
<g>
	<path style="&st0;" d="M468.39355,29.14258h4.26855v1.51904H466.625v-9.61279h1.76855V29.14258z"/>
</g>
<g>
	<path style="&st0;" d="M23.96289,80.01758c-2.31641,3.1582-6.10645,4.46387-9.64404,4.46387
		C5.34863,84.48145,0,77.15332,0,69.32031c0-8.75977,4.80078-16.33984,14.31885-16.33984
		c6.56982,0,11.79199,2.94727,12.9292,9.98047h-4.00098c-0.80029-4.54785-4.46436-6.61133-8.92822-6.61133
		c-7.28564,0-10.31787,6.31641-10.31787,12.75977c0,6.27539,3.62158,12.00293,10.31787,12.00293
		c6.19092,0,9.89697-4.33789,9.64404-9.8125h-9.60205v-3.36914h13.18164v15.83496h-2.52686L23.96289,80.01758z"/>
	<path style="&st0;" d="M42.2417,61.4873c6.90674,0,10.5708,5.01172,10.5708,11.41309c0,6.35938-3.66406,11.37109-10.5708,11.37109
		s-10.5708-5.01172-10.5708-11.37109C31.6709,66.49902,35.33496,61.4873,42.2417,61.4873z M42.2417,81.1123
		c3.74805,0,6.78027-2.94824,6.78027-8.21191c0-5.30664-3.03223-8.25488-6.78027-8.25488
		c-3.74854,0-6.78076,2.94824-6.78076,8.25488C35.46094,78.16406,38.49316,81.1123,42.2417,81.1123z"/>
	<path style="&st0;" d="M61.99414,61.99219h4.3374v3.15918h-4.3374v13.51855c0,1.64258,0.46289,1.9375,2.69531,1.9375h1.64209
		v3.1582h-2.7373c-3.70605,0-5.18018-0.75781-5.18018-4.75879V65.15137h-3.70605v-3.15918h3.70605v-6.52734h3.58008V61.99219z"/>
	<path style="&st0;" d="M70.29053,53.69629h3.57959v11.49707h0.08447c1.1792-2.61133,4.25342-3.70605,6.86475-3.70605
		c5.72754,0,7.49609,3.28516,7.49609,7.95996v14.31836h-3.57959V69.02539c0-2.65332-1.68457-4.37988-4.42236-4.37988
		c-4.3374,0-6.44336,2.90625-6.44336,6.82324v12.29688h-3.57959V53.69629z"/>
	<path style="&st0;" d="M97.49707,58.07617h-3.57959v-4.37988h3.57959V58.07617z M93.91748,61.99219h3.57959v21.77344h-3.57959
		V61.99219z"/>
	<path style="&st0;" d="M117.83838,68.9834c-0.54736-2.7373-2.44287-4.33789-5.39062-4.33789
		c-5.18018,0-6.78076,4.08496-6.78076,8.50684c0,4.00098,1.81104,7.95996,6.35938,7.95996
		c3.45361,0,5.51709-2.02148,5.98047-5.30664h3.66406c-0.80029,5.30664-4.12744,8.46582-9.60254,8.46582
		c-6.65381,0-10.19141-4.63281-10.19141-11.11914c0-6.52734,3.36914-11.66504,10.27588-11.66504
		c4.92725,0,8.88623,2.31641,9.3916,7.49609H117.83838z"/>
</g>
<g>
	<path style="&st0;" d="M137.59082,53.69629h21.1416v5.55859h-14.5293v6.94922h12.5918v5.1377h-12.5918v12.42383h-6.6123V53.69629z"
		/>
	<path style="&st0;" d="M161.93359,61.99219h5.68555v4.04297h0.08447c1.09473-2.7373,4.04297-4.63184,6.94873-4.63184
		c0.4209,0,0.92676,0.08398,1.30566,0.20996v5.55957c-0.54785-0.12695-1.43213-0.21094-2.14795-0.21094
		c-4.37988,0-5.896,3.15918-5.896,6.99121v9.8125h-5.98047V61.99219z"/>
	<path style="&st0;" d="M184.46533,58.62305h-5.97998v-4.92676h5.97998V58.62305z M178.48535,61.99219h5.97998v21.77344h-5.97998
		V61.99219z"/>
	<path style="&st0;" d="M210.11328,82.37598c0,3.5791-1.26367,9.64355-11.28662,9.64355c-4.2959,0-9.30713-2.02148-9.60205-6.99023
		h5.93799c0.54736,2.23145,2.3584,2.99023,4.46436,2.99023c3.32666,0,4.84277-2.27441,4.80078-5.39062v-2.86426h-0.08398
		c-1.30566,2.27441-3.91699,3.36914-6.52783,3.36914c-6.52783,0-9.30713-4.96973-9.30713-10.94922
		c0-5.64355,3.24268-10.78125,9.34912-10.78125c2.86377,0,5.05371,0.96777,6.48584,3.49512h0.08398v-2.90625h5.68555V82.37598z
		 M204.42773,72.60547c0-3.53809-1.22119-6.69629-5.0957-6.69629c-3.36914,0-4.84326,2.94824-4.84326,6.19043
		c0,3.11719,1.1792,6.52832,4.84326,6.52832C202.74316,78.62793,204.42773,75.72168,204.42773,72.60547z"/>
	<path style="&st0;" d="M214.91504,53.69629h5.98047v11.32812h0.12646c1.51611-2.44238,4.12695-3.62109,6.35889-3.62109
		c6.35938,0,7.95996,3.5791,7.95996,8.96973v13.39258h-5.98047V71.46875c0-3.58008-1.05273-5.34863-3.83203-5.34863
		c-3.24316,0-4.63281,1.81055-4.63281,6.23242v11.41309h-5.98047V53.69629z"/>
	<path style="&st0;" d="M247.46973,61.99219h4.37988v4.00098h-4.37988v10.78125c0,2.02148,0.50586,2.52734,2.52734,2.52734
		c0.63135,0,1.2207-0.04199,1.85254-0.16895v4.6748c-1.01074,0.16895-2.31592,0.21094-3.49512,0.21094
		c-3.66406,0-6.86475-0.84277-6.86475-5.18066V65.99316h-3.62158v-4.00098h3.62158v-6.52734h5.97998V61.99219z"/>
</g>
<g>
	<path style="&st0;" d="M267.43359,53.69629h14.15039c5.64355,0,9.13867,3.07422,9.13867,7.875
		c0,3.62207-1.60059,6.6123-5.22266,7.62305v0.08398c3.49609,0.67383,4.21191,3.24316,4.50684,6.19043
		c0.25195,2.94824,0.08398,6.2334,1.76855,8.29688h-4.46387c-1.1377-1.22168-0.50586-4.46387-1.0957-7.41211
		c-0.4209-2.94824-1.13672-5.43262-5.01074-5.43262h-9.77051v12.84473h-4.00098V53.69629z M279.77246,67.55176
		c3.74805,0,6.94922-0.96875,6.94922-5.34863c0-2.94824-1.60059-5.1377-5.34863-5.1377h-9.93848v10.48633H279.77246z"/>
	<path style="&st0;" d="M314.26562,76.85938c-0.96875,4.80078-4.42188,7.41211-9.30762,7.41211
		c-6.94824,0-10.2334-4.80176-10.44336-11.45508c0-6.52832,4.29492-11.3291,10.2334-11.3291
		c7.70703,0,10.06543,7.20117,9.85449,12.46582h-16.29785c-0.12695,3.79004,2.02148,7.15918,6.78027,7.15918
		c2.94824,0,5.01172-1.43164,5.64355-4.25293H314.26562z M310.8125,70.79492c-0.16895-3.41211-2.7373-6.14941-6.27539-6.14941
		c-3.74805,0-5.97949,2.82227-6.23242,6.14941H310.8125z"/>
	<path style="&st0;" d="M319.7832,65.15137h-3.66309v-3.15918h3.66309V58.75c0-3.53809,2.10645-5.39062,6.02246-5.39062
		c0.67383,0,1.64258,0.12598,2.31641,0.33691v3.11621c-0.63184-0.21094-1.38965-0.29492-2.02148-0.29492
		c-1.72656,0-2.7373,0.54785-2.7373,2.44238v3.03223h4.21191v3.15918h-4.21191v18.61426h-3.58008V65.15137z"/>
	<path style="&st0;" d="M348.7998,83.76562h-3.36914V80.3125h-0.08398c-1.51562,2.69531-3.95898,3.95898-7.0752,3.95898
		c-5.72754,0-7.49609-3.28516-7.49609-7.95996V61.99219h3.58008v14.74023c0,2.65332,1.68457,4.37988,4.42188,4.37988
		c4.33789,0,6.44336-2.90527,6.44336-6.82227V61.99219h3.5791V83.76562z"/>
	<path style="&st0;" d="M356.38184,76.90137c0.12695,3.2002,2.90625,4.21094,5.85449,4.21094
		c2.23145,0,5.26465-0.50488,5.26465-3.24316c0-2.7793-3.53809-3.24219-7.11816-4.04297
		c-3.53711-0.7998-7.11719-1.97852-7.11719-6.14844c0-4.37988,4.33789-6.19043,8.12793-6.19043
		c4.80176,0,8.63379,1.51562,8.92871,6.82227h-3.58008c-0.25293-2.7793-2.69531-3.66406-5.05371-3.66406
		c-2.14746,0-4.63281,0.58984-4.63281,2.78027c0,2.56836,3.79102,2.98926,7.11816,3.79004
		c3.5791,0.7998,7.11719,1.97949,7.11719,6.19043c0,5.17969-4.84375,6.86523-9.26562,6.86523
		c-4.88477,0-9.0127-1.97949-9.22266-7.37012H356.38184z"/>
	<path style="&st0;" d="M394.53809,83.68164c-0.63184,0.37891-1.43164,0.58984-2.56836,0.58984
		c-1.85352,0-3.03223-1.01172-3.03223-3.36914c-1.97949,2.31543-4.63281,3.36914-7.66504,3.36914
		c-3.95898,0-7.20117-1.76953-7.20117-6.10742c0-4.92676,3.66309-5.97949,7.36914-6.69531
		c3.95898-0.75879,7.32812-0.50586,7.32812-3.20117c0-3.11621-2.56836-3.62207-4.84277-3.62207
		c-3.03223,0-5.26465,0.92676-5.43262,4.12793h-3.58008c0.21094-5.39062,4.37988-7.28613,9.22266-7.28613
		c3.91699,0,8.1709,0.88379,8.1709,5.98047v11.20215c0,1.68457,0,2.44238,1.13672,2.44238
		c0.29492,0,0.63184-0.04199,1.09473-0.20996V83.68164z M388.72656,72.52148c-1.38965,1.01074-4.08496,1.05273-6.48535,1.47363
		c-2.3584,0.4209-4.37988,1.26367-4.37988,3.91699c0,2.3584,2.02148,3.2002,4.21094,3.2002c4.7168,0,6.6543-2.94824,6.6543-4.92676
		V72.52148z"/>
	<path style="&st0;" d="M398.07715,53.69629h3.5791v30.06934h-3.5791V53.69629z"/>
</g>
<g>
	<path style="&st0;" d="M434.78613,83.76562h-1.76855v-4.13379h-4.61426v4.13379h-1.76855v-9.61328h1.76855v3.96094h4.61426
		v-3.96094h1.76855V83.76562z"/>
	<path style="&st0;" d="M445.1875,75.67188h-4.67188v2.44141h4.0957v1.51855h-4.0957v2.61523h4.86426v1.51855h-6.63281v-9.61328
		h6.44043V75.67188z"/>
</g>
<g>
	<path style="&st0;" d="M450.89746,82.24707h4.26855v1.51855h-6.03711v-9.61328h1.76855V82.24707z"/>
</g>
<g>
	<path style="&st0;" d="M461.26074,80.24707h0.07715l2.61523-6.09473h1.88379l-4.42188,9.70898h-0.26953l-4.42188-9.70898h1.88477
		L461.26074,80.24707z"/>
	<path style="&st0;" d="M475.18066,75.67188h-4.67188v2.44141h4.0957v1.51855h-4.0957v2.61523h4.86426v1.51855h-6.63281v-9.61328
		h6.44043V75.67188z"/>
	<path style="&st0;" d="M483.10254,75.67188v8.09375h-1.76855v-8.09375h-3.26855v-1.51953h8.34375v1.51953H483.10254z"/>
	<path style="&st0;" d="M491.77344,83.76562h-1.76855v-9.61328h1.76855V83.76562z"/>
	<path style="&st0;" d="M503.36719,76.47852c-0.42285-0.28809-1.38477-0.94141-2.8457-0.92285
		c-1.65332,0.01953-3.36426,1.03906-3.36426,3.48047c0,1.94141,1.44141,3.32617,3.40234,3.32617
		c1.17285,0,2.21191-0.53809,2.82715-1.01953l0.67285,1.44238c-0.86523,0.63477-2.19238,1.17285-3.53809,1.17285
		c-3.03809,0-5.15234-2.19238-5.15234-4.88379c0-3.21094,2.51855-5.11426,5.19043-5.11426c1.48047,0,2.75,0.55762,3.38477,1.01953
		L503.36719,76.47852z"/>
	<path style="&st0;" d="M513.05762,81.68945h-3.98047l-0.90332,2.07617h-1.8457l4.53711-9.70898H511.25l4.57617,9.70898h-1.82715
		L513.05762,81.68945z M509.71191,80.20898h2.69141l-1.28809-2.88379h-0.13379L509.71191,80.20898z"/>
</g>
</svg>
