<?xml version="1.0" encoding="utf-8"?>
<!-- Generator: Adobe Illustrator 15.1.0, SVG Export Plug-In . SVG Version: 6.00 Build 0)  -->
<!DOCTYPE svg PUBLIC "-//W3C//DTD SVG 1.1//EN" "http://www.w3.org/Graphics/SVG/1.1/DTD/svg11.dtd" [
	<!ENTITY st0 "clip-path:url(#SVGID_6_);fill:#FF9C4C;">
	<!ENTITY st1 "clip-path:url(#SVGID_2_);fill:#718BB1;">
	<!ENTITY st2 "fill:#4C6C9C;">
	<!ENTITY st3 "clip-path:url(#SVGID_8_);fill:none;stroke:#D85D27;stroke-width:1.04;">
	<!ENTITY st4 "clip-path:url(#SVGID_14_);fill:none;stroke:#4C6C9C;stroke-width:1.04;">
	<!ENTITY st5 "clip-path:url(#SVGID_4_);fill:#4C6C9C;">
	<!ENTITY st6 "clip-path:url(#SVGID_10_);fill:none;stroke:#4C6C9C;stroke-width:1.04;">
	<!ENTITY st7 "clip-path:url(#SVGID_4_);fill:none;stroke:#D8DFE9;stroke-width:1.04;">
	<!ENTITY st8 "clip-path:url(#SVGID_2_);fill:none;stroke:#FFFFFF;">
	<!ENTITY st9 "fill:#FFFFFF;">
	<!ENTITY st10 "clip-path:url(#SVGID_12_);fill:#FFFFFF;">
	<!ENTITY st11 "fill:#D85D27;">
	<!ENTITY st12 "fill:#D8DFE9;">
	<!ENTITY st13 "clip-path:url(#SVGID_6_);fill:none;stroke:#FFFFFF;stroke-width:1.04;">
	<!ENTITY st14 "fill:#DAE0EA;">
	<!ENTITY st15 "clip-path:url(#SVGID_8_);fill:#BDC9DA;">
]>
<svg version="1.1" id="Layer_1" xmlns="http://www.w3.org/2000/svg" xmlns:xlink="http://www.w3.org/1999/xlink" x="0px" y="0px"
	 width="492px" height="449px" viewBox="0 0 492 449" style="enable-background:new 0 0 492 449;" xml:space="preserve">
<rect style="&st14;" width="492" height="449"/>
<g>
	<defs>
		<polyline id="SVGID_1_" points="492,518 492,-274 0,-274 0,518 		"/>
	</defs>
	<clipPath id="SVGID_2_">
		<use xlink:href="#SVGID_1_"  style="overflow:visible;"/>
	</clipPath>
	<polygon style="&st8;" points="-11.5,-277.70703 -11.5,625 -11.5,625.5 -11,625.5 509.7998,625.5 510.2998,625.5 510.2998,625 
		510.2998,-277.70703 510.2998,-278.20703 509.7998,-278.20703 -11,-278.20703 -11.5,-278.20703 	"/>
	<path style="&st1;" d="M24,230c0,0-12,0-12,12v48c0,0,0,12,12,12h444c0,0,12,0,12-12v-48c0,0,0-12-12-12H24z"/>
</g>
<g>
</g>
<path style="&st12;" d="M49.03564,261.36719H41.1377v4.12695h6.92285v2.56836H41.1377v4.41992h8.22266v2.56738H38.14746v-16.25098
	h10.88818V261.36719z M59.30518,266.82715l-5.8501-8.02832h3.51025l4.03027,5.62305l4.0625-5.62305h3.4126l-5.8501,7.96289
	l6.04492,8.28809h-3.50977l-4.2251-5.85059l-4.25781,5.85059h-3.4126L59.30518,266.82715z M76.43311,275.0498h-2.99023v-16.25098
	h2.99023V275.0498z M90.37549,261.36719v13.68262h-2.99023v-13.68262h-5.5249v-2.56836h14.10547v2.56836H90.37549z
	 M108.21777,271.96191c1.49512,0.68262,3.28271,1.07324,4.90771,1.07324c2.30762,0,4.12744-0.91016,4.12744-2.50293
	c0-1.36523-1.42969-2.60059-3.80225-2.50293l-3.25049,0.12988l0.26025-2.69727l2.85986,0.12988
	c1.85254,0.09766,3.54297-0.94238,3.54297-2.46973c0-1.39746-1.52783-2.30762-3.64014-2.30762
	c-1.52783,0-2.82764,0.35742-4.16016,1.00781l-0.09766-0.13086l0.25977-2.53516c0.84521-0.35742,2.43799-0.84473,4.48535-0.84473
	c3.02246,0,6.11035,1.16992,6.11035,4.35547c0,1.91699-1.30029,3.41211-3.34766,3.83496v0.19531
	c2.47021,0.42188,3.73779,2.30762,3.73779,4.09473c0,3.41309-3.4126,4.74512-7.37793,4.74512
	c-1.82031,0-3.18506-0.3252-4.58252-0.87695l-0.09766-2.60059L108.21777,271.96191z"/>
<g>
	<path style="&st12;" d="M134.83594,271.54004h-6.72754l-1.52783,3.50977h-3.12012l7.67041-16.41309h0.6499l7.73535,16.41309
		h-3.0874L134.83594,271.54004z M129.18066,269.03711h4.55029l-2.17773-4.875h-0.22705L129.18066,269.03711z"/>
</g>
<g>
</g>
<g>
</g>
<g>
</g>
<path style="&st12;" d="M187.48535,261.75684l-4.7124,14.75586h-0.9751l-8.12549-22.58887h3.28271l5.26514,15.08105h0.26025
	l4.64746-15.40625h0.84521l4.84277,15.40625h0.25977l5.07031-15.08105h3.28271l-8.12549,22.58887h-0.9751l-4.58252-14.75586
	H187.48535z M204.51514,269.55664c0,3.41309,1.81982,4.48535,4.02979,4.48535c1.26758,0,2.82764-0.64941,3.77051-1.55957h0.09717
	l0.55273,2.33984c-1.07275,1.00781-2.82764,1.65723-4.84277,1.65723c-3.51025,0-6.59766-2.14453-6.59766-7.34473
	c0-4.77832,2.89258-8.12598,6.69531-8.12598c3.47754,0,5.62256,2.60059,5.62256,5.85059c0,0.65039-0.03223,1.78809-0.32471,2.69727
	H204.51514z M210.9502,267.47656c0.39014-2.56738-1.1377-4.0625-2.79492-4.0625c-2.01514,0-3.44531,1.75488-3.51025,4.0625H210.9502
	z M224.86035,265.03906c-1.39795-1.07227-2.63281-1.65723-3.90039-1.65723c-1.36523,0-2.04736,0.68262-2.04736,1.42969
	c0,1.10547,1.4624,1.78809,3.44482,2.95801c2.72998,1.59277,3.64014,2.82715,3.64014,4.64746
	c0,2.69824-2.37256,4.0625-4.97266,4.0625c-2.04736,0-3.99756-0.8125-5.07031-1.78711l0.87793-2.17773
	c1.26758,0.87793,2.50244,1.56055,4.09473,1.56055c1.30029,0,2.30762-0.61816,2.30762-1.6582
	c0-1.16992-1.625-2.04785-3.4126-3.02246c-2.4375-1.33301-3.67236-2.33984-3.67236-4.35547
	c0-2.14453,1.72266-4.03027,4.7124-4.03027c1.85254,0,3.64014,0.8457,4.90771,1.88574L224.86035,265.03906z M237.50244,273.29492
	l0.55273,2.1123c-0.91016,0.68262-2.21045,1.07227-3.54297,1.07227c-3.12012,0-4.5498-1.88477-4.5498-4.67969v-8.06055h-2.27539
	v-1.1377l4.32275-4.22461h0.87744v3.08691h4.87549v2.27539h-4.87549v7.76758c0,1.78809,0.94287,2.50293,2.17773,2.50293
	c1.04004,0,1.65771-0.29297,2.37256-0.71484H237.50244z M251.47754,276.02441h-3.05469v-22.10059h3.05469V276.02441z
	 M264.18555,265.03906c-1.39746-1.07227-2.63281-1.65723-3.90039-1.65723c-1.36523,0-2.04785,0.68262-2.04785,1.42969
	c0,1.10547,1.46289,1.78809,3.44531,2.95801c2.73047,1.59277,3.64062,2.82715,3.64062,4.64746
	c0,2.69824-2.37305,4.0625-4.97266,4.0625c-2.04785,0-3.99805-0.8125-5.07031-1.78711l0.87695-2.17773
	c1.26758,0.87793,2.50293,1.56055,4.0957,1.56055c1.2998,0,2.30762-0.61816,2.30762-1.6582c0-1.16992-1.625-2.04785-3.41309-3.02246
	c-2.4375-1.33301-3.67285-2.33984-3.67285-4.35547c0-2.14453,1.72266-4.03027,4.71289-4.03027
	c1.85254,0,3.64062,0.8457,4.9082,1.88574L264.18555,265.03906z M274.42285,273.52246v2.33984
	c-0.4873,0.25977-1.23535,0.45508-2.04785,0.45508c-1.91797,0-3.7373-1.39746-3.7373-4.19238v-18.20117l2.9248-0.38965v18.03809
	c0,1.36523,0.58496,2.30762,1.49512,2.30762c0.42285,0,0.97461-0.09766,1.2998-0.35742H274.42285z M278.5498,253.85938
	c1.07227,0,1.9502,0.87695,1.9502,1.94922c0,1.07324-0.87793,1.9502-1.9502,1.9502s-1.9502-0.87695-1.9502-1.9502
	C276.59961,254.73633,277.47754,253.85938,278.5498,253.85938z M280.0127,261.30176v14.72266h-2.92578v-14.33301L280.0127,261.30176
	z M286.87012,262.79688c1.36426-1.1377,2.9248-1.78809,4.74512-1.78809c2.56738,0,4.48438,1.49512,4.48438,4.87598v10.13965h-2.9248
	v-9.39258c0-2.46973-1.33203-3.02246-2.69727-3.02246c-1.33301,0-2.73047,0.8125-3.47754,1.85254v10.5625h-2.92578v-14.56055
	h2.40527l0.22754,1.33301H286.87012z M303.57422,270.79199l-1.46191,1.72266v0.19531l6.11035,1.20215
	c2.04688,0.42285,3.57422,1.49512,3.57422,3.93262c0,2.9248-3.11914,4.9082-6.62988,4.9082
	c-3.90039,0-6.37012-1.9502-6.37012-4.16016c0-1.36523,0.71484-2.7959,2.30762-3.6084v-0.16211l-1.46289-0.3252v-2.4375
	l1.78809-2.1123c-1.26758-0.8457-1.98242-2.20996-1.98242-3.90039c0-2.7627,2.17676-5.03809,5.71973-5.03809
	c1.33301,0,2.37305,0.26074,3.18555,0.68262l4.25781-0.22754v2.17773l-2.34082-0.06445
	c0.39062,0.7793,0.55273,1.65723,0.55273,2.50195c0,2.34082-1.85254,4.84277-5.71973,4.84277
	C304.5498,270.92188,304.0293,270.88965,303.57422,270.79199z M307.37695,276.25195l-3.67285-0.74707
	c-1.13672,0.12988-2.27441,1.26758-2.27441,2.50293c0,1.5918,1.82031,2.56738,3.80273,2.56738
	c2.17773,0,3.63965-1.10547,3.63965-2.56738C308.87207,277,308.25488,276.41504,307.37695,276.25195z M305.06934,263.21973
	c-1.59277,0-2.85938,1.20215-2.85938,2.9248c0,1.82031,1.42969,2.59961,2.9248,2.59961s2.89258-0.87695,2.89258-2.59961
	C308.02734,264.16211,306.72754,263.21973,305.06934,263.21973z M317.71191,262.79688
	c1.1377-1.04004,2.63281-1.78809,4.35547-1.78809c2.50293,0,4.58301,1.49512,4.58301,5.13574v9.87988h-2.92578v-9.52246
	c0-2.14551-1.46191-2.89258-2.59961-2.89258c-1.2998,0-2.56738,0.71484-3.5752,1.85254v10.5625h-2.9248v-22.10059l2.9248-0.38965
	v9.2627H317.71191z M342.05469,274.82227l-1.98242,1.69043c-0.65039-0.42285-1.26758-1.04004-1.59277-2.04785h-0.12988
	c-1.00781,1.33203-2.59961,2.01465-4.22461,2.01465c-2.34082,0-4.45312-1.5918-4.45312-4.35449
	c0-2.14551,1.52734-4.61523,6.0127-4.61523c0.65039,0,1.625,0.06445,2.33984,0.16211v-1.42969
	c0-2.14551-1.46191-2.86035-2.69727-2.86035c-1.26758,0-2.50293,0.51953-3.86719,1.42969l-0.97559-2.17676
	c1.36523-0.8125,3.08789-1.62598,5.39551-1.62598c2.4375,0,4.875,1.36523,4.875,4.74609v6.69434
	c0,1.10547,0.65039,1.88574,1.2998,2.24316V274.82227z M338.02441,269.78418c-0.61719-0.09668-1.55957-0.19434-2.37207-0.19434
	c-2.04785,0-3.18555,1.04004-3.18555,2.50195c0,1.36523,0.97559,2.01562,2.24316,2.01562c1.49512,0,2.7627-0.74805,3.31445-1.91797
	V269.78418z M356.22461,263.12207c1.72266-1.46289,3.05566-2.11328,4.9082-2.11328c2.17773,0,4.51758,1.36523,4.51758,4.74609
	v10.26953h-2.92578v-9.71777c0-2.14453-1.42969-2.69727-2.76172-2.69727c-1.23535,0-2.50293,0.91016-3.25098,1.78711v10.62793
	h-2.9248v-9.71777c0-2.14453-1.55957-2.69727-2.7627-2.69727c-1.20215,0-2.40527,0.71484-3.25,1.78711v10.62793h-2.9248v-14.56055
	h2.40527l0.22754,1.33301h0.16211c1.16992-0.97461,2.69727-1.78809,4.5498-1.78809c1.69043,0,3.05566,0.78027,3.86816,2.11328
	H356.22461z"/>
<g>
</g>
<g>
	<path style="&st12;" d="M382.12695,276.02441v-19.30566l-3.99805,0.45508l-0.19434-2.63281l6.62988-0.84473l0.55273,0.38965
		v21.93848H382.12695z"/>
	<path style="&st12;" d="M401.46484,264.64941c3.34766,1.94922,4.64746,3.83496,4.64746,6.1748
		c0,3.28223-3.08789,5.6875-7.37793,5.6875c-4.32227,0-7.24805-2.53516-7.24805-6.0127c0-2.59961,2.04785-4.71289,4.35547-5.84961
		v-0.19531c-2.63281-1.75488-3.70508-3.54297-3.70508-5.45996c0-2.99023,2.7627-5.55762,6.92285-5.55762
		c3.47754,0,6.40234,1.98242,6.40234,5.2002c0,2.59961-1.42969,4.58203-3.99707,5.81738V264.64941z M398.05176,265.75391
		c-2.56738,1.10547-3.67285,2.9248-3.67285,4.74512c0,2.20996,1.88574,3.5752,4.48535,3.5752
		c2.53516,0,4.19238-1.52734,4.19238-3.28223c0-2.17773-2.17676-3.64062-4.77734-4.94043L398.05176,265.75391z M399.18945,263.41406
		c1.85254-1.07227,3.41211-2.50293,3.41211-4.45312c0-1.72266-1.39746-3.18457-3.70508-3.18457
		c-2.46973,0-3.70508,1.55957-3.70508,3.08691C395.19141,260.58594,396.52441,261.91895,399.18945,263.41406z"/>
</g>
<g>
</g>
<g>
	<path style="&st12;" d="M425.125,261.78906l-5.84961,6.40234l6.1748,7.44336v0.38965h-3.15234l-5.03809-6.40234l-1.07227,1.10449
		v5.29785h-2.92578v-22.10059l2.92578-0.39062v14.13867h0.3252l5.33008-6.20801h3.28223V261.78906z"/>
	<path style="&st12;" d="M438.9375,263.12109c1.72266-1.46191,3.05469-2.1123,4.90723-2.1123
		c2.17773,0,4.51758,1.36523,4.51758,4.74512v10.27051h-2.9248v-9.71777c0-2.14551-1.42969-2.69727-2.7627-2.69727
		c-1.23438,0-2.50195,0.90918-3.25,1.78711v10.62793H436.5v-9.71777c0-2.14551-1.56055-2.69727-2.7627-2.69727
		s-2.40527,0.71484-3.25,1.78711v10.62793h-2.92578v-14.56055h2.40527l0.22754,1.33301h0.16309
		c1.16992-0.97559,2.69727-1.78809,4.5498-1.78809c1.69043,0,3.05469,0.78027,3.86816,2.1123H438.9375z"/>
</g>
<g>
	<defs>
		<polyline id="SVGID_3_" points="492,518 492,-274 0,-274 0,518 		"/>
	</defs>
	<clipPath id="SVGID_4_">
		<use xlink:href="#SVGID_3_"  style="overflow:visible;"/>
	</clipPath>
	<path style="&st7;" d="M24.09473,238.70996c-2.81836,0.09375-3.38525,1.3291-3.38525,3.29004v48
		c0.06934,2.38086,0.96094,3.29004,3.29004,3.29004H468c2.38184-0.06934,3.29004-0.96094,3.29004-3.29004v-48
		c-0.06836-2.38086-0.96094-3.29004-3.29004-3.29004H24.09473z"/>
	<path style="&st5;" d="M24,302c0,0-12,0-12,12v108c0,0,0,12,12,12h444c0,0,12,0,12-12V314c0,0,0-12-12-12H24z"/>
</g>
<g>
	<path style="&st9;" d="M160.04932,331.74414h-12.54834v6.9082h11.2793v5.82715h-11.2793v7.56738h13.06543v5.82715h-19.41016
		v-31.95801h18.89307V331.74414z"/>
	<path style="&st9;" d="M182.13916,339.45117c1.64502-2.25586,4.32373-3.52441,6.95557-3.52441
		c3.47754,0,6.15674,2.02051,6.15674,6.86133v15.08594h-6.10986v-13.1123c0-2.25586-1.36279-3.05469-2.44385-3.05469
		c-1.78564,0-3.38379,1.22168-3.99463,2.44336v13.72363h-6.10938v-12.87695c0-2.58496-1.50391-3.29004-2.53809-3.29004
		c-1.55078,0-3.10156,1.08105-3.90088,2.44336v13.72363h-6.10938v-21.29004h5.16943l0.56396,2.53809h0.28223
		c1.50391-1.97363,3.66553-3.19531,6.34424-3.19531c2.53809,0,4.55908,1.40918,5.49902,3.52441H182.13916z"/>
	<path style="&st9;" d="M215.4624,351.43555l0.79883,5.02832c-2.06787,1.36328-4.84082,2.11523-7.84863,2.11523
		c-5.54541,0-9.96338-3.14941-9.96338-10.66895c0-7.04883,4.84082-11.9834,9.9165-11.9834c5.49854,0,8.9292,4.37012,8.9292,9.11719
		c0,0.79883-0.14062,2.44336-0.70459,3.75977h-12.12549c0,3.94727,2.91406,4.60547,4.8877,4.60547
		c2.021,0,4.46484-0.75195,5.92188-1.97363H215.4624z M211.32666,345.18457c0.32861-2.39648-1.08105-4.18262-2.96094-4.18262
		c-1.97412,0-3.38379,1.83301-3.71289,4.18262H211.32666z"/>
	<path style="&st9;" d="M232.00635,342.92871c-3.43066,0-5.45166,2.91406-5.45166,5.68652v9.25879h-6.10938v-21.29004h4.51172
		l0.61084,4.13574h0.23486c1.26904-2.91309,3.94775-4.55859,6.53271-4.55859h0.47021v6.76758H232.00635z"/>
	<path style="&st9;" d="M254.04883,336.58398v20.96094c0,6.34473-4.93457,10.05762-10.90332,10.05762
		c-2.67871,0-5.35791-0.42285-7.61377-1.78613l1.78613-5.2168c1.97363,1.08105,3.7124,1.50391,5.78076,1.50391
		c2.39648,0,5.31055-1.31543,5.31055-4.60547v-1.87988h-0.18848c-1.31543,1.36328-2.91357,2.20898-4.98145,2.20898
		c-5.2168,0-9.02344-3.57227-9.02344-10.01074s3.90088-11.88965,10.29248-11.88965c1.59814,0,3.57178,0.7041,4.74658,1.83301
		h0.28223l3.00781-1.50391L254.04883,336.58398z M247.93945,350.26074v-7.09668c-0.70508-1.03418-1.64551-1.78613-2.96094-1.78613
		c-2.91406,0-4.51172,2.67871-4.51172,6.34473c0,3.33691,1.73877,4.60547,4.0415,4.60547
		C245.77734,352.32812,247.28125,351.66992,247.93945,350.26074z"/>
	<path style="&st9;" d="M274.25781,351.43555l0.79883,5.02832c-2.06738,1.36328-4.83984,2.11523-7.84766,2.11523
		c-5.5459,0-9.96387-3.14941-9.96387-10.66895c0-7.04883,4.84082-11.9834,9.91699-11.9834
		c5.49805,0,8.92871,4.37012,8.92871,9.11719c0,0.79883-0.14062,2.44336-0.70508,3.75977h-12.125
		c0,3.94727,2.91406,4.60547,4.8877,4.60547c2.02148,0,4.46484-0.75195,5.92188-1.97363H274.25781z M270.12207,345.18457
		c0.3291-2.39648-1.08105-4.18262-2.95996-4.18262c-1.97461,0-3.38477,1.83301-3.71289,4.18262H270.12207z"/>
	<path style="&st9;" d="M285.25684,339.12207c1.41016-1.92676,3.61914-3.19531,6.29785-3.19531
		c3.14844,0,6.2041,2.16113,6.2041,7.04883v14.89844h-6.11035v-12.68945c0-2.67871-1.12793-3.47754-2.49023-3.47754
		c-1.45703,0-2.86719,0.9873-3.80664,2.39648v13.77051h-6.11035v-21.29004h5.16992l0.56445,2.53809H285.25684z"/>
	<path style="&st9;" d="M316.55859,342.92871c-1.31641-0.98633-2.77344-1.59766-4.41797-1.59766
		c-2.96094,0-4.93457,2.63184-4.93457,6.29785c0,4.13574,2.53809,5.63965,4.84082,5.63965
		c1.78516,0,3.28906-0.61133,4.69922-1.87988h0.18848l1.1748,4.55859c-1.87988,1.69141-4.18262,2.63184-7.14355,2.63184
		c-6.81445,0-10.01074-4.98145-10.01074-10.66895c0-6.95508,4.74707-11.9834,10.29297-11.9834
		c2.81934,0,5.0752,0.98633,6.67285,2.20801l-1.1748,4.79395H316.55859z"/>
	<path style="&st9;" d="M330.75195,361.68066c-1.08105,3.05469-2.63184,4.98145-4.46484,5.2168l-5.59277,0.70508l-0.1875-1.69238
		c3.33691-2.44336,4.22949-4.83984,5.82715-9.49316l-6.34473-19.83301h6.43848l3.33691,12.2666h0.28223l3.24316-12.2666h6.43848
		L330.75195,361.68066z"/>
	<path style="&st9;" d="M377.23242,344.33887c0.5166,1.1748,0.8457,2.49121,0.8457,4.08887
		c0,5.4043-4.69922,10.15137-13.1123,10.15137c-8.12988,0-12.9707-4.55859-12.9707-9.82227
		c0-5.2168,2.81934-7.98926,5.78027-9.63477v-0.3291c-2.53711-1.64453-3.43066-3.61816-3.43066-5.68652
		c0-4.55859,4.84082-7.89551,10.33984-7.89551c3.90039,0,6.62598,0.9873,8.78809,2.34961l-2.39648,5.16992h-0.28223
		c-1.73926-1.22168-3.90137-1.83301-5.7334-1.83301c-2.53809,0-4.23047,1.08105-4.23047,3.14941
		c0,1.73828,1.12793,3.10156,3.75977,3.61816v2.96094c-3.57129,0.75195-6.10938,3.33691-6.10938,6.86133
		c0,3.43066,2.77344,5.40527,6.67383,5.40527c4.32324,0,7.37891-2.20898,7.37891-5.26367c0-0.75195-0.1416-1.55078-0.51758-2.25586
		l-3.71289,0.70508l-0.98633-4.74707l11.84277-2.30273l0.94043,4.74707L377.23242,344.33887z"/>
	<path style="&st9;" d="M412.95215,331.74414h-12.07812v6.9082h10.80957v5.82715h-10.80957v13.39453h-6.34473v-31.95801h18.42285
		V331.74414z"/>
	<path style="&st9;" d="M418.96875,325.54004c2.06836,0,3.71289,1.64453,3.71289,3.71289c0,2.06738-1.64453,3.71289-3.71289,3.71289
		c-2.06738,0-3.71289-1.64551-3.71289-3.71289C415.25586,327.18457,416.90137,325.54004,418.96875,325.54004z M422.02344,336.44336
		v21.43066h-6.10938v-20.67871L422.02344,336.44336z"/>
	<path style="&st9;" d="M437.95605,342.92871c-3.43066,0-5.45117,2.91406-5.45117,5.68652v9.25879h-6.11035v-21.29004h4.51172
		l0.61133,4.13574h0.23535c1.26855-2.91309,3.94727-4.55859,6.53223-4.55859h0.46973v6.76758H437.95605z"/>
	<path style="&st9;" d="M457.17773,351.43555l0.79883,5.02832c-2.06738,1.36328-4.83984,2.11523-7.84766,2.11523
		c-5.5459,0-9.96387-3.14941-9.96387-10.66895c0-7.04883,4.84082-11.9834,9.91699-11.9834
		c5.49805,0,8.92871,4.37012,8.92871,9.11719c0,0.79883-0.14062,2.44336-0.70508,3.75977h-12.125
		c0,3.94727,2.91406,4.60547,4.8877,4.60547c2.02148,0,4.46484-0.75195,5.92188-1.97363H457.17773z M453.04199,345.18457
		c0.3291-2.39648-1.08105-4.18262-2.95996-4.18262c-1.97461,0-3.38477,1.83301-3.71289,4.18262H453.04199z"/>
</g>
<g>
	<path style="&st9;" d="M224.20508,393.17188h0.23486l7.04932-19.36328h6.81494l-12.36035,31.95801h-3.28955l-12.36035-31.95801
		h6.81445L224.20508,393.17188z"/>
	<path style="&st9;" d="M254.98926,399.32812l0.79883,5.02832c-2.06738,1.36328-4.84082,2.11523-7.84863,2.11523
		c-5.54541,0-9.96338-3.14941-9.96338-10.66895c0-7.04883,4.84082-11.9834,9.9165-11.9834
		c5.49902,0,8.92969,4.37012,8.92969,9.11719c0,0.79883-0.1416,2.44336-0.70508,3.75977H243.9917
		c0,3.94727,2.91357,4.60547,4.88818,4.60547c2.02051,0,4.46387-0.75195,5.9209-1.97363H254.98926z M250.85352,393.07715
		c0.3291-2.39648-1.08105-4.18262-2.96094-4.18262c-1.97363,0-3.38379,1.83301-3.71289,4.18262H250.85352z"/>
	<path style="&st9;" d="M266.36328,387.01465c1.26953-1.87988,3.10254-3.19531,5.92188-3.19531
		c2.96094,0,6.2041,2.02051,6.2041,7.04883v14.89844h-6.11035v-12.68945c0-2.44336-0.89258-3.47754-2.49023-3.47754
		c-1.55078,0-2.86719,1.08105-3.80664,2.39648v13.77051h-6.11035v-31.95801l6.11035-0.56445v13.77051H266.36328z"/>
	<path style="&st9;" d="M285.91504,373.43262c2.06836,0,3.71289,1.64453,3.71289,3.71289c0,2.06738-1.64453,3.71289-3.71289,3.71289
		c-2.06738,0-3.71191-1.64551-3.71191-3.71289C282.20312,375.07715,283.84766,373.43262,285.91504,373.43262z M288.9707,384.33594
		v21.43066h-6.11035v-20.67871L288.9707,384.33594z"/>
	<path style="&st9;" d="M308.09863,390.82129c-1.31641-0.98633-2.77344-1.59766-4.41797-1.59766
		c-2.96094,0-4.93457,2.63184-4.93457,6.29785c0,4.13574,2.53711,5.63965,4.84082,5.63965
		c1.78516,0,3.28906-0.61133,4.69922-1.87988h0.18848l1.1748,4.55859c-1.87988,1.69141-4.18262,2.63184-7.14355,2.63184
		c-6.81445,0-10.01074-4.98145-10.01074-10.66895c0-6.95508,4.74707-11.9834,10.29199-11.9834
		c2.82031,0,5.07617,0.98633,6.67383,2.20801l-1.1748,4.79395H308.09863z"/>
	<path style="&st9;" d="M318.58008,373.24414v32.52246h-6.11035v-31.95801L318.58008,373.24414z"/>
	<path style="&st9;" d="M339.11719,399.32812l0.79883,5.02832c-2.06738,1.36328-4.83984,2.11523-7.84766,2.11523
		c-5.5459,0-9.96387-3.14941-9.96387-10.66895c0-7.04883,4.84082-11.9834,9.91699-11.9834
		c5.49805,0,8.92871,4.37012,8.92871,9.11719c0,0.79883-0.14062,2.44336-0.70508,3.75977h-12.125
		c0,3.94727,2.91406,4.60547,4.8877,4.60547c2.02148,0,4.46484-0.75195,5.92188-1.97363H339.11719z M334.98145,393.07715
		c0.3291-2.39648-1.08105-4.18262-2.95996-4.18262c-1.97461,0-3.38477,1.83301-3.71289,4.18262H334.98145z"/>
	<path style="&st9;" d="M356.79004,391.15039c-1.50391-1.08105-3.85352-2.30273-6.0625-2.30273
		c-1.03418,0-1.59766,0.42285-1.59766,1.12793c0,0.89258,0.75195,1.64453,3.99414,3.24316
		c4.04199,1.97363,5.40527,4.22949,5.40527,7.04883c0,4.65332-4.04199,6.2041-7.66113,6.2041
		c-3.38379,0-5.96777-0.9873-8.08301-2.58496l1.73828-4.79395c1.73926,1.31641,3.52539,2.20898,5.6875,2.20898
		c1.64453,0,2.49023-0.5166,2.49023-1.45703c0-0.98633-1.31543-1.45703-3.61816-2.67871
		c-4.18262-2.16211-5.875-3.94727-5.875-7.2373c0-3.94824,3.52441-6.10938,7.14355-6.10938
		c2.91406,0,6.01562,1.12793,8.03613,2.86621L356.79004,391.15039z"/>
	<path style="&st9;" d="M387.94922,406.47168c-8.69434,0-16.21387-6.25098-16.21387-16.44922
		c0-10.10449,7.89551-16.91895,16.21387-16.91895c8.55371,0,16.12012,6.67383,16.12012,16.91895
		C404.06934,399.75098,396.78516,406.47168,387.94922,406.47168z M387.90234,379.07227c-5.26367,0-9.54004,4.22949-9.54004,10.85645
		c0,7.0498,4.8877,10.57422,9.58691,10.57422c5.68652,0,9.54102-4.32324,9.54102-10.57422
		C397.49023,383.30176,393.30664,379.07227,387.90234,379.07227z"/>
	<path style="&st9;" d="M414.03516,387.01465c1.41016-1.92676,3.61914-3.19531,6.29785-3.19531
		c3.14941,0,6.2041,2.16113,6.2041,7.04883v14.89844h-6.11035v-12.68945c0-2.67871-1.12793-3.47754-2.49023-3.47754
		c-1.45703,0-2.86719,0.9873-3.80664,2.39648v13.77051h-6.11035v-21.29004h5.16992l0.56445,2.53809H414.03516z"/>
	<path style="&st9;" d="M437.01758,373.24414v32.52246h-6.10938v-31.95801L437.01758,373.24414z"/>
	<path style="&st9;" d="M450.60059,409.57324c-1.08105,3.05469-2.63184,4.98145-4.46484,5.2168l-5.59277,0.70508l-0.1875-1.69238
		c3.33594-2.44336,4.22949-4.83984,5.82715-9.49316l-6.34473-19.83301h6.43848l3.33691,12.2666h0.28223l3.24316-12.2666h6.43848
		L450.60059,409.57324z"/>
</g>
<g>
	<defs>
		<polyline id="SVGID_5_" points="492,518 492,-274 0,-274 0,518 		"/>
	</defs>
	<clipPath id="SVGID_6_">
		<use xlink:href="#SVGID_5_"  style="overflow:visible;"/>
	</clipPath>
	<path style="&st13;" d="M24.09473,310.70996c-2.81836,0.09375-3.38525,1.3291-3.38525,3.29004v108
		c0.06934,2.38086,0.96094,3.29004,3.29004,3.29004H468c2.38184-0.06934,3.29004-0.96094,3.29004-3.29004V314
		c-0.06836-2.38086-0.96094-3.29004-3.29004-3.29004H24.09473z"/>
	<path style="&st0;" d="M228,86c0,0-12,0-12,12v120c0,0,0,12,12,12h240c0,0,12,0,12-12V98c0,0,0-12-12-12H228z"/>
</g>
<g>
	<path style="&st11;" d="M290.34375,124.49219c2,0.5752,2.87402,2.04688,2.87402,3.63379c0,2.85156-2.32227,4.50684-6.11621,4.50684
		h-6.07129v-15.63672h5.79492c3.88574,0,5.63379,1.72461,5.63379,3.90918c0,1.17285-0.62109,2.82812-2.11523,3.47266V124.49219z
		 M286.7334,120.44531h-1.42578v2.94336h1.47168c0.80469,0,1.49414-0.5752,1.49414-1.42578
		C288.27344,121.06641,287.58398,120.44531,286.7334,120.44531z M285.30762,126.28613v2.94336h2.00098
		c0.73535,0,1.51758-0.48242,1.51758-1.47168c0-0.87402-0.71289-1.47168-1.54102-1.47168H285.30762z"/>
	<path style="&st11;" d="M306.5127,120.76758h-5.74902v2.18457h4.9668v3.54102h-4.9668v2.36816h5.97852v3.77148h-10.30176v-15.63672
		h10.07227V120.76758z"/>
	<path style="&st11;" d="M319.2998,124.88379l-2.25293,7.74902h-3.33496l-4.8291-15.63672h4.59961l2,8.30176h0.11523
		l2.25391-8.30176h2.98926l2.25293,8.30176h0.11523l2.00098-8.30176h4.59863l-4.8291,15.63672h-3.33398l-2.23047-7.74902H319.2998z"
		/>
	<path style="&st11;" d="M340.57422,130.17188h-5.19629l-0.94336,2.46094h-4.36914l6.04785-15.63672h3.67969l6.13965,15.63672
		h-4.36914L340.57422,130.17188z M336.57324,126.90723h2.78223l-1.26465-4.36914h-0.20703L336.57324,126.90723z"/>
	<path style="&st11;" d="M362.03223,132.63281h-4.82812l-3.88672-6.23145h-0.29883v6.23145h-4.32324v-15.63672h5.84082
		c3.72559,0,5.88672,1.95459,5.88672,4.64502c0,2.18506-1.17285,3.6792-2.89746,4.34619l4.50684,6.53027V132.63281z
		 M354.30664,120.42236h-1.28809v3.28857h1.31055c0.96582,0,1.72461-0.4834,1.72461-1.63281
		C356.05371,121.06641,355.36426,120.42236,354.30664,120.42236z"/>
	<path style="&st11;" d="M374.86816,120.76758h-5.74902v2.18457h4.9668v3.54102h-4.9668v2.36816h5.97852v3.77148H364.7959v-15.63672
		h10.07227V120.76758z"/>
</g>
<g>
	<path style="&st11;" d="M392.94727,132.97754c-4.80664,0-8.18652-3.05859-8.18652-8.04785
		c0-4.94434,3.77051-8.27832,8.18652-8.27832c4.46094,0,8.13965,3.26514,8.13965,8.27832
		C401.08691,129.75879,397.56836,132.97754,392.94727,132.97754z M392.87793,120.49121c-1.93164,0-3.63379,1.49512-3.63379,4.39258
		c0,2.75879,1.61035,4.25391,3.79492,4.25391c2.06934,0,3.56348-1.54102,3.56348-4.25391
		C396.60254,122.03223,394.90137,120.49121,392.87793,120.49121z"/>
</g>
<g>
	<path style="&st11;" d="M414.6123,120.76758h-5.74902v2.41406h4.9668v3.65625h-4.9668v5.79492h-4.32324v-15.63672h10.07227
		V120.76758z"/>
</g>
<g>
</g>
<g>
	<path style="&st11;" d="M246.84082,152.94531l-6.99951,0.16797l-0.50439,3.05176l6.02002-0.22363l-0.78369,4.45215
		l-6.02002,0.22363l-0.84033,4.62012l-0.11182,2.15625l-5.54395,0.2793l1.76416-9.7998l1.20361-7.08398l0.08398-2.15625
		l12.54443-0.2793L246.84082,152.94531z"/>
	<path style="&st11;" d="M245.24512,167.47754l11.50781-18.84473l4.48047-0.2793l3.21973,19.04004l-5.06836,0.2793l-0.50391-3.24805
		l-6.55176,0.22461l-1.62402,2.74414l-5.37598,0.2793L245.24512,167.47754z M254.68066,160.64551l3.64062-0.16797l-0.53223-5.18066
		h-0.25195L254.68066,160.64551z"/>
</g>
<g>
	<path style="&st11;" d="M274.00098,162.8291l6.74805-0.22363l-0.81152,4.64746l-12.04004,0.41992l1.73633-9.37988l1.14746-7.41992
		l0.1123-2.24023l5.68359-0.2793L274.00098,162.8291z"/>
	<path style="&st11;" d="M290.24023,162.8291l6.74805-0.22363l-0.81152,4.64746l-12.04004,0.41992l1.73633-9.37988l1.14746-7.41992
		l0.1123-2.24023l5.68359-0.2793L290.24023,162.8291z"/>
</g>
<g>
	<path style="&st11;" d="M307.57422,157.70508l-0.98047,6.58008l-0.25195,3.1084l-5.71191,0.2793l1.98828-10.44336l0.97949-6.04785
		l0.16797-2.54883l5.62793-0.2793L307.57422,157.70508z"/>
	<path style="&st11;" d="M325.35352,159.16113h0.13965l1.17676-7.72754l0.22363-2.80078l5.65625-0.2793l-1.87598,10.10742
		l-1.45605,8.93262l-3.97656,0.2793l-7.05566-10.66797h-0.13965l-1.23242,7.9248l-0.16797,2.46387l-5.62793,0.2793l2.04395-11.14355
		l1.28809-7.89648l3.91992-0.2793L325.35352,159.16113z"/>
	<path style="&st11;" d="M340.41699,159.3291c0,2.63184,1.76465,3.94824,3.89258,3.94824c0.92383,0,2.01562-0.25195,2.71582-0.7002
		l0.3916-2.35156l-3.8916,0.08398l0.67188-4.17188l8.84766-0.1123l-1.62402,9.4082c-2.01562,1.51172-4.7041,2.51953-8.14746,2.51953
		c-4.95605,0-8.40039-3.02344-8.40039-8.14746c0-6.2168,4.5918-11.73242,11.53613-11.73242
		c2.94043,0,5.20801,1.03613,6.58008,2.12793l-2.52051,4.22852h-0.13965c-0.97949-0.95215-2.46387-1.70801-4.25586-1.70801
		C343.2168,152.72168,340.41699,155.24121,340.41699,159.3291z"/>
	<path style="&st11;" d="M380.34473,167.39355l-5.62793,0.2793l-3.55566-7.72754h-0.7002l-0.92383,5.20801l-0.1123,2.24023
		l-5.54395,0.2793l2.91211-16.65918l0.13965-2.38086l6.58008-0.2793c4.3125-0.16797,7.08398,2.09961,7.08398,5.0957
		c0,3.24805-2.12793,5.17969-4.56348,5.99219l4.31152,7.81152V167.39355z M373.31641,152.58105l-1.56738,0.08398l-0.7002,4.00391
		l1.5957-0.08398c1.31641,0,2.49219-0.81152,2.46387-2.40723C375.1084,153.19727,374.43652,152.58105,373.31641,152.58105z"/>
	<path style="&st11;" d="M392.24512,167.95312c-5.23633,0-8.70801-2.96777-8.70801-7.95215
		c0-7.05566,5.32031-11.92773,11.64844-11.92773c4.95605,0,8.5957,3.19238,8.5957,8.23242
		C403.78125,163.02539,398.8252,167.95312,392.24512,167.95312z M394.56934,152.74902c-2.60449,0-5.48828,2.2959-5.48828,6.66406
		c0,2.52051,1.51172,3.86426,3.80859,3.86426c2.91113,0,5.43164-2.77246,5.37598-6.80371
		C398.2373,154.03711,396.69727,152.74902,394.56934,152.74902z"/>
</g>
<g>
	<path style="&st11;" d="M422.09375,154.42969c-1.06445-1.09277-2.46387-1.56836-3.72363-1.56836
		c-2.54883,0-5.68457,1.98828-5.68457,6.32812c0,2.6875,1.70801,3.94824,4.00391,3.94824c1.23242,0,2.71582-0.50488,3.86426-1.26074
		h0.13965l1.79199,4.11621c-2.04395,1.34375-4.62012,1.95996-6.80371,1.95996c-5.34766,0-8.54004-3.33203-8.54004-8.2041
		c0-6.94336,5.43262-11.67578,11.39648-11.67578c2.07129,0,4.03125,0.33594,6.2998,2.09961l-2.60449,4.25684H422.09375z"/>
</g>
<g>
	<path style="&st11;" d="M443.56934,167.39355l-6.04785,0.2793l-4.56348-8.39941h-0.19629l-0.98047,5.76758l-0.13965,2.35254
		l-5.54395,0.2793l2.85645-16.32324l0.19531-2.7168l5.54395-0.2793l-1.31543,7.67188h0.19531l6.24414-7.39258l6.38379-0.2793
		v0.13965l-8.25977,9.52051l5.68457,9.2959L443.56934,167.39355z"/>
	<path style="&st11;" d="M448.66504,161.12109c1.37207,1.31641,3.27637,2.12793,5.0957,2.12793
		c1.48438,0,2.12793-0.53223,2.12793-1.2041c0-0.81152-0.81152-1.31543-1.87598-1.90332
		c-2.04395-1.12012-5.01172-2.43652-5.01172-5.85254c0-2.88379,2.43652-6.21582,7.33594-6.21582
		c2.66016,0,4.81641,0.98047,6.58008,2.49219l-2.49219,4.03223c-1.42773-1.23242-3.08008-1.82031-4.36816-1.82031
		c-1.14746,0-1.73535,0.47559-1.73535,1.2041c0,0.61621,0.78418,1.2041,1.81934,1.81934
		c2.04395,1.26074,5.09668,2.82812,5.09668,6.13281c0,4.33984-4.08789,6.01953-7.64453,6.01953
		c-3.05176,0-5.87988-1.14746-7.25195-2.71582L448.66504,161.12109z"/>
</g>
<g>
	<path style="&st11;" d="M284.52344,193.23535h0.11523v-8.43945h4.32324v15.63672h-3.26562l-7.24316-8.32422h-0.11523v8.32422
		h-4.32324V184.7959h3.21973L284.52344,193.23535z"/>
</g>
<g>
	<path style="&st11;" d="M303.17773,188.56738h-5.74902v2.18457h4.9668v3.54102h-4.9668v2.36816h5.97852v3.77148h-10.30176V184.7959
		h10.07227V188.56738z"/>
</g>
<g>
	<path style="&st11;" d="M310.86035,192.45312l-4.875-7.65723h4.8291l2.64453,4.27734l2.75879-4.27734h4.8291l-5.0127,7.65723
		l5.12793,7.97949h-4.8291l-2.87402-4.62207l-2.875,4.62207h-4.8291L310.86035,192.45312z"/>
</g>
<g>
	<path style="&st11;" d="M331.26074,188.61328v11.81934h-4.32324v-11.81934h-4.04688v-3.81738h12.41699v3.81738H331.26074z"/>
	<path style="&st11;" d="M343.98047,196.24707c1.47168,0.59863,2.9668,0.94336,4.39258,0.94336
		c1.49414,0,2.62109-0.45996,2.62109-1.56348c0-0.85156-0.75879-1.51758-2.11523-1.47168l-3.44922,0.1377l0.18359-3.42578
		l3.17383,0.1377c1.40234,0.0459,1.93164-0.71289,1.93164-1.42578c0-0.96582-0.78223-1.51758-2.36914-1.51758
		c-1.40234,0-2.71289,0.45996-3.49512,0.80469h-0.18359l0.20703-3.70215c0.80469-0.29883,2.4375-0.71289,4.3916-0.71289
		c3.10449,0,5.81836,1.37988,5.81836,4.11621c0,1.8623-0.91992,3.10449-2.59863,3.81738v0.11426
		c1.65527,0.41406,2.87402,1.88574,2.87402,3.63379c0,3.95508-4.46094,4.64453-6.46191,4.64453
		c-1.93164,0-3.60938-0.32129-4.94336-0.85059l-0.0918-3.67969H343.98047z"/>
	<path style="&st11;" d="M358.5625,193.07422l1.10352-8.27832h9.38184l-0.22949,3.63379l-6.11719-0.23047l-0.27539,2.09277
		c0.29883-0.02344,0.64355-0.0459,0.91992-0.0459c4.41504,0,6.34668,2.3457,6.34668,4.8291
		c0,3.79395-3.77148,5.70215-8.37012,5.70215c-1.37988,0-2.25391-0.11523-2.9668-0.32129l0.36816-3.31152
		c0.5752,0.16113,1.63281,0.25293,2.18457,0.25293c3.03516,0,4.2998-1.12695,4.2998-2.23047
		c0-1.35645-1.67871-2.13867-4.3457-2.13867c-0.80469,0-1.47168,0.02246-2.16211,0.11523L358.5625,193.07422z"/>
	<path style="&st11;" d="M378.84668,200.77734c-3.51758,0-6.48438-2.4375-6.48438-8.32422c0-5.42676,2.9668-8.00195,6.48438-8.00195
		c3.72559,0,6.39258,2.69043,6.39258,8.00195C385.23926,197.92578,382.57227,200.77734,378.84668,200.77734z M378.75488,188.08398
		c-1.08105,0-2.02344,1.10449-2.02344,4.32324c0,3.72559,0.98926,4.7373,2.13867,4.7373c1.26465,0,2-1.17285,2-4.7373
		C380.87012,189.23438,379.97363,188.08398,378.75488,188.08398z"/>
	<path style="&st11;" d="M407.6875,193.37305l-3.12695,7.05957h-1.37988l-3.12695-7.05957h-0.11523l-1.01172,7.05957h-4.48438
		l2.59863-15.63672h2.69043l4.16211,8.64648h0.0918l4.02441-8.64648h2.69043l2.59863,15.63672h-4.48438l-1.01172-7.05957H407.6875z"
		/>
	<path style="&st11;" d="M420.9834,200.43262h-4.32324V184.7959h4.32324V200.43262z"/>
</g>
<g>
	<defs>
		<polyline id="SVGID_7_" points="492,518 492,-274 0,-274 0,518 		"/>
	</defs>
	<clipPath id="SVGID_8_">
		<use xlink:href="#SVGID_7_"  style="overflow:visible;"/>
	</clipPath>
	<path style="&st3;" d="M228.09277,94.70996c-2.81592,0.09521-3.38281,1.33008-3.38281,3.29004v120
		c0.06885,2.38086,0.96094,3.29004,3.29004,3.29004h240c2.38086-0.06934,3.29004-0.96094,3.29004-3.29004V98
		c-0.06836-2.38086-0.95996-3.29004-3.29004-3.29004H228.09277z"/>
	<path style="&st15;" d="M24,14c0,0-12,0-12,12v48c0,0,0,12,12,12h444c0,0,12,0,12-12V26c0,0,0-12-12-12H24z"/>
</g>
<path style="&st2;" d="M56.61084,51.88428l-3.99756,5.91553h-0.6499l-3.99805-5.91553h-0.16211v10.17285H40.1001V39.95654h6.89062
	l5.26514,7.93018h0.12988l5.29785-7.93018h6.79248v22.10059h-7.70264V51.88428H56.61084z M73.38037,55.52441
	c0,1.59277,1.36523,2.17773,3.4126,2.17773c1.82031,0,4.19287-0.39014,5.16797-0.9751h0.1626l-0.65039,4.55029
	c-1.88477,0.94238-4.77734,1.26758-6.69531,1.26758c-4.51758,0-8.18994-2.17773-8.18994-7.37793
	c0-5.33008,3.86768-9.06787,8.64502-9.06787c4.81055,0,7.60547,3.34766,7.60547,6.76025c0,0.61768-0.06494,1.72266-0.4873,2.66504
	H73.38037z M76.66309,52.98926c0.1626-1.42969-0.61768-2.17725-1.33252-2.17725c-0.87744,0-1.7876,0.84473-1.85254,2.17725H76.66309
	z M94.05029,41.25635v5.33057h2.34033v5.33008h-2.34033v10.14014h-7.4751V51.91699h-2.4375v-4.29004l2.4375-1.33252v-4.22559
	L94.05029,41.25635z M110.36523,46.42432v6.95508h-1.10498c-3.0874,0.52002-3.8999,2.82764-3.8999,4.97266v3.70508h-7.47559
	V46.58691h5.78516l0.48779,3.15234h0.32471c1.10547-2.33984,3.54297-3.31494,5.10303-3.31494H110.36523z M120.375,62.54492
	c-4.67969,0-8.7749-3.08789-8.7749-8.09277c0-4.81055,3.80225-8.35303,8.64502-8.35303c5.23291,0,8.90527,3.5752,8.90527,8.35303
	C129.15039,58.90479,125.41309,62.54492,120.375,62.54492z M120.375,51.13672c-0.87744,0-1.42969,0.87793-1.42969,3.28271
	c0,2.27539,0.55225,3.05518,1.42969,3.05518c0.71533,0,1.43018-0.77979,1.43018-3.05518
	C121.80518,52.01465,121.28516,51.13672,120.375,51.13672z M153.62305,50.68164h0.22754v-10.7251h7.47559v22.10059h-6.72803
	l-7.67041-10.62793h-0.22705v10.62793h-7.47559V39.95654h6.72803L153.62305,50.68164z M172.21289,62.54492
	c-4.68018,0-8.77539-3.08789-8.77539-8.09277c0-4.81055,3.80273-8.35303,8.64551-8.35303c5.23242,0,8.90527,3.5752,8.90527,8.35303
	C180.98828,58.90479,177.25049,62.54492,172.21289,62.54492z M172.21289,51.13672c-0.87744,0-1.43018,0.87793-1.43018,3.28271
	c0,2.27539,0.55273,3.05518,1.43018,3.05518c0.71484,0,1.43018-0.77979,1.43018-3.05518
	C173.64307,52.01465,173.12305,51.13672,172.21289,51.13672z M195.35303,46.42432v6.95508h-1.10498
	c-3.08789,0.52002-3.90039,2.82764-3.90039,4.97266v3.70508h-7.4751V46.58691h5.78516l0.48779,3.15234h0.32471
	c1.10498-2.33984,3.54297-3.31494,5.10303-3.31494H195.35303z M206.66309,41.25635v5.33057h2.33984v5.33008h-2.33984v10.14014
	h-7.47559V51.91699H196.75v-4.29004l2.4375-1.33252v-4.22559L206.66309,41.25635z M218.16797,48.21191
	c0.68213-0.9751,2.20996-2.11279,4.45264-2.11279c2.4375,0,5.23242,1.59277,5.23242,5.16797v10.79004h-7.4751v-8.97021
	c0-0.71484-0.45508-1.16992-1.04004-1.16992s-1.10498,0.29248-1.36523,0.58496v9.55518h-7.4751V40.0542l7.4751-0.48779v8.64551
	H218.16797z M246.15039,55.81689h7.31348v6.24023h-15.11328V39.95654h7.7998V55.81689z M263.86328,62.54492
	c-4.68066,0-8.77539-3.08789-8.77539-8.09277c0-4.81055,3.80273-8.35303,8.64551-8.35303c5.23242,0,8.90527,3.5752,8.90527,8.35303
	C272.63867,58.90479,268.90039,62.54492,263.86328,62.54492z M263.86328,51.13672c-0.87793,0-1.43066,0.87793-1.43066,3.28271
	c0,2.27539,0.55273,3.05518,1.43066,3.05518c0.71484,0,1.42969-0.77979,1.42969-3.05518
	C265.29297,52.01465,264.77344,51.13672,263.86328,51.13672z M288.20605,56.23975v5.23242
	c-1.43066,0.78027-3.67285,1.07275-4.97266,1.07275c-5.62305,0-9.13281-3.25-9.13281-7.76807
	c0-5.00488,3.86719-8.67773,8.96973-8.67773c1.82031,0,3.47754,0.29248,5.13574,1.00781v5.26514h-0.16309
	c-1.23438-0.68262-2.20996-1.07275-3.25-1.07275c-1.91699,0-3.28223,1.33252-3.28223,2.92529
	c0,2.50244,1.78711,3.0874,3.28223,3.0874c1.1377,0,2.27539-0.35742,3.25-1.07227H288.20605z M307.12109,61.34229l-5.33008,1.30029
	c-0.65039-0.22754-1.36523-1.20264-1.43066-1.72266h-0.22754c-1.07227,0.94238-2.66504,1.625-4.97266,1.625
	c-2.89258,0-5.42773-1.46289-5.42773-4.87549c0-3.47754,3.31543-5.0376,7.02051-5.0376c1.10547,0,1.625,0.09766,2.46973,0.26025
	v-0.58496c0-0.9751-0.90918-1.30029-2.24219-1.30029c-1.59277,0-3.41309,0.45508-4.94043,1.1377l-1.20215-4.51758
	c1.55957-0.74756,5.03711-1.52783,7.70312-1.52783c4.25684,0,7.6377,1.72266,7.6377,6.37012v5.91553
	c0,1.88477,0.38965,2.33984,0.94238,2.63232V61.34229z M299.22266,55.75195c-0.4873-0.12988-0.84473-0.22754-1.2998-0.22754
	c-0.78027,0-1.49512,0.35742-1.49512,1.33252c0,0.87793,0.58496,1.33252,1.33301,1.33252c0.61719,0,1.10449-0.25977,1.46191-0.74707
	V55.75195z M316.1875,39.56641v22.49072h-7.47461V40.0542L316.1875,39.56641z M326.94531,41.90674
	c2.30762-1.43018,5.65527-2.43799,9.55566-2.43799c4.16016,0,8.06055,1.91797,8.06055,6.56543
	c0,3.70508-3.80273,7.57275-7.86621,9.94531l0.09766,0.19531l7.76855-0.26025v6.14258h-17.03125l-1.04004-4.0625
	c8.06055-5.29785,10.40039-7.96289,10.40039-10.27051c0-1.20264-0.68262-2.08008-2.40527-2.08008s-4.03027,0.65039-6.04492,1.9502
	L326.94531,41.90674z M347.25781,52.56689l1.39746-12.61035h15.04785l-0.29199,5.81787l-9.91309-0.3252l-0.29297,2.37256
	c0.58594-0.03271,1.1709-0.06494,1.75586-0.06494c6.53223,0,9.52246,2.63232,9.52246,6.72754
	c0,4.87549-4.35547,8.06055-13.78027,8.06055c-1.26758,0-2.4375-0.09766-3.41309-0.26025l0.52051-5.88232
	c0.8125,0.19482,2.4375,0.29248,3.08691,0.29248c3.31543,0,6.0127-0.58545,6.0127-2.17773
	c0-1.52783-2.63184-2.01514-6.24023-2.01514c-1.2666,0-2.30664,0.03271-3.18457,0.1626L347.25781,52.56689z M376.37793,62.54492
	c-5.39453,0-9.97754-3.5752-9.97754-11.76562c0-7.73535,4.58301-11.31055,9.97754-11.31055
	c5.75293,0,9.84863,3.83545,9.84863,11.31055C386.22656,58.6123,382.13086,62.54492,376.37793,62.54492z M376.3457,45.35156
	c-1.72266,0-2.82715,2.30762-2.82715,5.52539c0,3.99756,1.23438,5.81787,2.89258,5.81787c1.72266,0,2.72949-1.9502,2.72949-5.81787
	C379.14062,47.85449,378.13379,45.35156,376.3457,45.35156z M397.60059,51.91699v10.14014H390.125V51.91699h-2.27441v-4.29004
	l2.27441-1.33252v-0.29248c0-2.66553,1.88574-4.97314,4.03027-5.94775l5.98047-0.48779l0.3252,4.03027
	c-2.01562,0.12988-3.02246,1.36523-3.02246,2.6001v0.39014h2.59961v5.33008H397.60059z M410.92578,41.25635v5.33057h2.33984v5.33008
	h-2.33984v10.14014h-7.47559V51.91699h-2.4375v-4.29004l2.4375-1.33252v-4.22559L410.92578,41.25635z"/>
<g>
	<defs>
		<polyline id="SVGID_9_" points="492,518 492,-274 0,-274 0,518 		"/>
	</defs>
	<clipPath id="SVGID_10_">
		<use xlink:href="#SVGID_9_"  style="overflow:visible;"/>
	</clipPath>
	<path style="&st6;" d="M24.09473,22.70996C21.27637,22.8042,20.70947,24.03906,20.70947,26v48
		c0.06934,2.38086,0.96094,3.29004,3.29004,3.29004H468c2.38184-0.06885,3.29004-0.96094,3.29004-3.29004V26
		c-0.06836-2.38086-0.96094-3.29004-3.29004-3.29004H24.09473z"/>
</g>
<g>
	<defs>
		<polyline id="SVGID_11_" points="492,518 492,-274 0,-274 0,518 		"/>
	</defs>
	<clipPath id="SVGID_12_">
		<use xlink:href="#SVGID_11_"  style="overflow:visible;"/>
	</clipPath>
	<path style="&st10;" d="M24,86c0,0-12,0-12,12v120c0,0,0,12,12,12h180c0,0,12,0,12-12V98c0,0,0-12-12-12H24z"/>
</g>
<g>
	<path style="&st2;" d="M37.15283,138.24512c0.03223,4.35449,2.20996,6.07715,4.84229,6.07715
		c1.30029,0,2.73047-0.51953,3.60791-1.42969h0.09717l0.45508,1.00781c-0.94238,0.91016-2.66504,1.625-4.41992,1.625
		c-3.02246,0-5.94775-2.27539-5.94775-7.21582c0-4.67969,2.63232-7.99512,6.04541-7.99512c2.98975,0,4.97266,2.56738,4.97266,5.7207
		c0,0.55176-0.03271,1.49512-0.3252,2.20996H37.15283z M45.34277,137.13965c0.55273-3.44531-1.2998-5.62207-3.5752-5.62207
		c-2.53467,0-4.35498,2.46973-4.58252,5.62207H45.34277z"/>
	<path style="&st2;" d="M57.82275,132.97949c-1.16992-0.97461-2.20996-1.46191-3.4126-1.46191
		c-1.75488,0-2.63232,1.10449-2.63232,2.33984c0,1.625,1.13721,2.24219,3.77002,3.60742
		c2.40479,1.26758,3.4126,2.60059,3.4126,4.29004c0,2.50293-2.24268,3.77051-4.48535,3.77051
		c-1.7876,0-3.4126-0.68262-4.25732-1.46289l0.58496-1.10449h0.06494c1.07227,0.87695,2.08008,1.36426,3.60742,1.36426
		c1.88525,0,3.12012-0.94238,3.12012-2.4375c0-1.55957-0.84473-2.4375-3.47754-3.76953
		c-2.30762-1.16992-3.70508-2.24316-3.70508-4.19336c0-1.85254,1.4624-3.60742,4.0625-3.60742
		c1.52783,0,2.92529,0.68262,4.09521,1.69043l-0.68262,0.97461H57.82275z"/>
	<path style="&st2;" d="M66.3374,125.73242v4.90723h3.5752v1.16992h-3.5752v13.39062h-1.2998v-13.39062h-3.51025l0.39014-1.16992
		h3.12012v-4.51758L66.3374,125.73242z"/>
	<path style="&st2;" d="M74.4624,123.09961c0.58496,0,1.07227,0.55273,1.07227,1.23438c0,0.68262-0.4873,1.23535-1.07227,1.23535
		s-1.07275-0.55273-1.07275-1.23535C73.38965,123.65234,73.87744,123.09961,74.4624,123.09961z M75.1123,130.54199v14.6582h-1.30029
		v-14.49512L75.1123,130.54199z"/>
	<path style="&st2;" d="M91.00537,132.71973c1.56006-1.42969,3.25-2.40527,5.42773-2.40527
		c1.85254,0,3.70508,1.43066,3.70508,4.61523v10.27051h-1.30029v-10.20508c0-2.27539-1.23486-3.47754-2.7627-3.47754
		c-1.94971,0-3.93262,1.26758-5.0376,2.82715v10.85547h-1.2998v-10.53027c0-2.40527-1.65771-3.15234-2.92529-3.15234
		c-1.85254,0-3.77002,1.13672-4.875,2.82715v10.85547h-1.30029v-14.56055h1.07275l0.22754,2.08008h0.12988
		c1.20264-1.33301,3.05518-2.40527,5.10254-2.40527c1.49512,0,3.02295,0.65039,3.73779,2.40527H91.00537z"/>
	<path style="&st2;" d="M115.64014,144.77734l-0.94238,0.78027c-0.74756-0.58496-1.30029-1.36523-1.43018-2.40527h-0.09766
		c-1.07227,1.6582-2.66504,2.37305-4.41992,2.37305c-2.56787,0-4.45264-1.69043-4.45264-4.0625
		c0-2.24316,1.56006-4.58301,5.8501-4.58301c0.94238,0,2.01514,0.12988,2.99023,0.3252v-1.78809
		c0-2.9248-1.85254-3.89941-3.34766-3.89941c-1.39746,0-2.72998,0.42188-4.19287,1.39746l-0.52002-1.07324
		c1.10498-0.74707,2.89258-1.52734,4.87549-1.52734c2.17725,0,4.48486,1.39746,4.48486,4.77832v7.11719
		c0,1.16992,0.52002,2.1123,1.20264,2.50293V144.77734z M113.1377,138.375c-0.68262-0.16211-1.7876-0.35742-3.02246-0.35742
		c-2.92529,0-4.45312,1.2998-4.45312,3.44531c0,1.75488,1.36523,2.85938,3.18555,2.85938c2.01465,0,3.60742-1.20215,4.29004-3.18457
		V138.375z"/>
	<path style="&st2;" d="M122.59424,125.73242v4.90723h3.5752v1.16992h-3.5752v13.39062h-1.2998v-13.39062h-3.51025l0.39014-1.16992
		h3.12012v-4.51758L122.59424,125.73242z"/>
	<path style="&st2;" d="M130.13477,138.24512c0.03223,4.35449,2.20996,6.07715,4.84229,6.07715
		c1.30029,0,2.73047-0.51953,3.60791-1.42969h0.09766l0.45459,1.00781c-0.94238,0.91016-2.66504,1.625-4.41992,1.625
		c-3.02246,0-5.94775-2.27539-5.94775-7.21582c0-4.67969,2.63281-7.99512,6.04541-7.99512c2.98975,0,4.97266,2.56738,4.97266,5.7207
		c0,0.55176-0.03271,1.49512-0.3252,2.20996H130.13477z M138.32471,137.13965c0.55273-3.44531-1.2998-5.62207-3.5752-5.62207
		c-2.53467,0-4.35498,2.46973-4.58252,5.62207H138.32471z"/>
	<path style="&st2;" d="M153.69727,143.05469c-1.16992,1.56055-3.05518,2.4707-4.74512,2.4707
		c-3.21777,0-5.55762-2.56738-5.55762-6.89062c0-4.71289,2.50244-8.32031,6.27246-8.32031c1.59277,0,3.18555,0.8125,4.03027,1.9502
		h0.09766v-9.16504l1.2998-0.39062v22.49121h-1.00732l-0.29248-2.14551H153.69727z M153.79492,141.36523v-7.50781
		c-0.94238-1.36523-2.47021-2.33984-4.12793-2.33984c-3.21729,0-4.90723,3.15234-4.90723,6.92188
		c0,3.93359,1.81982,5.88281,4.35498,5.88281C150.77246,144.32227,152.65723,143.25,153.79492,141.36523z"/>
</g>
<g>
	<path style="&st2;" d="M50.90039,170.77734h-2.37256v5.81738h-4.32227v-5.81738h-8.9707l-0.52002-2.17773l9.42578-14.10547h4.38721
		v12.57812l2.37256-0.06543V170.77734z M44.20557,167.16895v-6.9873h-0.1626l-4.51758,6.9873l0.03223,0.13086L44.20557,167.16895z"
		/>
	<path style="&st2;" d="M61.4624,166.90918v3.80273h-8.12549v-3.80273H61.4624z"/>
	<path style="&st2;" d="M68.74219,163.62695c0.87744-1.2998,2.14502-2.20996,4.09521-2.20996
		c2.04736,0,4.29004,1.39746,4.29004,4.875v10.30273h-4.2251v-8.77539c0-1.69043-0.61768-2.40527-1.72266-2.40527
		c-1.07275,0-1.98242,0.74805-2.63281,1.6582v9.52246h-4.2251v-22.10059l4.2251-0.39062v9.52344H68.74219z"/>
	<path style="&st2;" d="M86.4873,177.08203c-4.03027,0-7.15039-3.02246-7.15039-7.70215c0-4.61523,2.99023-7.96289,7.11768-7.96289
		c4.32275,0,7.18311,3.37988,7.18311,7.96289C93.6377,173.66992,90.45215,177.08203,86.4873,177.08203z M86.4873,165.08887
		c-1.75537,0-2.82764,2.01562-2.82764,4.25781c0,2.50293,1.20264,4.0625,2.85986,4.0625c1.56006,0,2.79541-1.625,2.79541-4.0625
		C89.31494,167.00684,88.40479,165.08887,86.4873,165.08887z"/>
	<path style="&st2;" d="M104.49219,174.83984c-0.91016,1.20215-2.37256,2.24219-4.19287,2.24219
		c-2.30762,0-4.45264-1.39746-4.45264-5.3623v-9.84766h4.2251v8.64453c0,1.78809,0.68262,2.56836,1.88525,2.56836
		c1.00732,0,1.98242-0.71582,2.47021-2.01562v-9.19727h4.2251v14.72266h-3.5752l-0.39014-1.75488H104.49219z"/>
	<path style="&st2;" d="M119.44189,166.25977c-2.37256,0-3.77051,2.01465-3.77051,3.93262v6.40234h-4.2251v-14.72266h3.12012
		l0.42285,2.85938h0.16211c0.87793-2.01465,2.73047-3.15234,4.51758-3.15234h0.3252v4.68066H119.44189z"/>
	<path style="&st2;" d="M137.90088,169.34668l-2.01514,7.24805h-3.0874l-5.0376-14.72266h4.45264l2.17773,7.96191h0.16211
		l1.88525-7.96191h3.15283l1.85254,7.96191h0.16211l2.17773-7.96191h4.45264l-5.0376,14.72266h-3.0874l-2.01514-7.24805H137.90088z"
		/>
	<path style="&st2;" d="M162.17871,175.32715l-3.18506,1.85254c-1.04004-0.38965-1.49512-1.07227-1.75488-1.88477h-0.1626
		c-0.94238,1.07227-2.37256,1.78711-3.99756,1.78711c-2.01514,0-4.25781-1.36523-4.25781-4.41992
		c0-3.02246,2.2749-5.00488,5.6875-5.00488c0.91016,0,1.62549,0.12988,2.50293,0.29199v-1.10449
		c0-1.43066-1.20264-1.82031-2.47021-1.82031c-1.10498,0-2.30762,0.45508-3.70508,1.36523l-1.1377-3.18555
		c1.33252-0.97461,3.60791-1.78711,5.91504-1.78711c2.89307,0,5.62305,1.42969,5.59033,5.03711l-0.06494,5.94824
		c-0.03223,1.36523,0.45508,2.24219,1.04004,2.63281V175.32715z M157.01123,170.5498
		c-0.61768-0.12988-1.23535-0.29297-2.04785-0.29297c-1.16992,0-2.14502,0.78027-2.14502,1.9502
		c0,1.04004,0.78027,1.52734,1.75488,1.52734c0.84521,0,1.7876-0.45508,2.43799-1.36523V170.5498z"/>
	<path style="&st2;" d="M166.43604,154.23438c1.42969,0,2.56738,1.13672,2.56738,2.56738c0,1.42969-1.1377,2.56738-2.56738,2.56738
		c-1.43018,0-2.56787-1.1377-2.56787-2.56738C163.86816,155.37109,165.00586,154.23438,166.43604,154.23438z M168.54834,161.77441
		v14.82031h-4.2251v-14.30078L168.54834,161.77441z"/>
	<path style="&st2;" d="M177.38818,156.80176v5.07031h2.79492v3.63965h-2.79492v11.08301h-4.2251v-11.08301h-2.66504v-2.82715
		l2.66504-1.04004v-3.67285L177.38818,156.80176z"/>
</g>
<g>
	<path style="&st2;" d="M39.6875,194.59961v13.39062h-1.2998v-13.39062h-3.34766l0.39014-1.16992h2.95752v-1.39746
		c0-3.67285,1.7876-5.2002,3.70508-6.24023l1.98242-0.29297l0.09766,0.94336c-2.6001,0.29199-4.48535,2.20996-4.48535,5.45996
		v1.52734h3.73779v1.16992H39.6875z"/>
	<path style="&st2;" d="M53.92285,193.42969v1.2998h-0.06494c-0.29248-0.19434-0.58496-0.25977-0.94287-0.25977
		c-1.94971,0-4.12744,2.53516-4.77734,5.62305v7.89746H46.8374v-14.56055h1.30029v3.99805h0.09717
		c0.87793-2.53516,2.82764-4.25781,4.71289-4.25781C53.5,193.16992,53.76025,193.2998,53.92285,193.42969z"/>
	<path style="&st2;" d="M62.46973,208.31543c-3.44531,0-6.17529-3.12012-6.17529-7.47559c0-4.45215,2.50244-7.73535,6.04541-7.73535
		c3.8999,0,6.30518,3.31543,6.30518,7.73535C68.64502,205.19531,65.84961,208.31543,62.46973,208.31543z M62.33984,194.30762
		c-2.79541,0-4.68018,2.82715-4.68018,6.53223c0,3.60742,1.98242,6.27246,4.81006,6.27246c2.7627,0,4.81006-2.66504,4.81006-6.27246
		C67.27979,197.13477,65.3623,194.30762,62.33984,194.30762z"/>
	<path style="&st2;" d="M83.2373,195.50977c1.56006-1.42969,3.25-2.40527,5.42773-2.40527
		c1.85254,0,3.70508,1.43066,3.70508,4.61523v10.27051h-1.30029v-10.20508c0-2.27539-1.23486-3.47754-2.7627-3.47754
		c-1.94971,0-3.93262,1.26758-5.0376,2.82715v10.85547h-1.2998v-10.53027c0-2.40527-1.65771-3.15234-2.92529-3.15234
		c-1.85254,0-3.77002,1.13672-4.875,2.82715v10.85547h-1.30029v-14.56055h1.07275l0.22754,2.08008h0.12988
		c1.20264-1.33301,3.05518-2.40527,5.10254-2.40527c1.49512,0,3.02295,0.65039,3.73779,2.40527H83.2373z"/>
	<path style="&st2;" d="M105.79102,195.47754c1.30029-1.43066,3.31543-2.37305,5.2002-2.37305
		c2.30762,0,4.12793,1.43066,4.12793,4.81055v10.0752h-1.30029v-9.88086c0-2.69727-1.36475-3.80176-3.12012-3.80176
		c-1.7876,0-3.70508,0.97461-5.00488,2.72949v10.95312h-1.30029v-22.10059l1.30029-0.39062v9.97852H105.79102z"/>
	<path style="&st2;" d="M120.70898,201.03516c0.03223,4.35547,2.20996,6.07715,4.84229,6.07715
		c1.30029,0,2.73047-0.51953,3.60791-1.42969h0.09766l0.45459,1.00781c-0.94238,0.91016-2.66504,1.625-4.41992,1.625
		c-3.02246,0-5.94775-2.27539-5.94775-7.21582c0-4.67969,2.63281-7.99512,6.04541-7.99512c2.98975,0,4.97266,2.56738,4.97266,5.7207
		c0,0.55176-0.03271,1.49512-0.3252,2.20996H120.70898z M128.89893,199.92969c0.55273-3.44531-1.2998-5.62207-3.5752-5.62207
		c-2.53467,0-4.35498,2.46973-4.58252,5.62207H128.89893z"/>
	<path style="&st2;" d="M141.7041,193.42969v1.2998h-0.06494c-0.29248-0.19434-0.58496-0.25977-0.94287-0.25977
		c-1.94971,0-4.12744,2.53516-4.77734,5.62305v7.89746h-1.30029v-14.56055h1.30029v3.99805h0.09717
		c0.87793-2.53516,2.82764-4.25781,4.71289-4.25781C141.28125,193.16992,141.5415,193.2998,141.7041,193.42969z"/>
	<path style="&st2;" d="M145.44092,201.03516c0.03223,4.35547,2.20996,6.07715,4.84229,6.07715
		c1.30029,0,2.73047-0.51953,3.60791-1.42969h0.09717l0.45508,1.00781c-0.94238,0.91016-2.66504,1.625-4.41992,1.625
		c-3.02246,0-5.94775-2.27539-5.94775-7.21582c0-4.67969,2.63232-7.99512,6.04541-7.99512c2.98975,0,4.97266,2.56738,4.97266,5.7207
		c0,0.55176-0.03271,1.49512-0.3252,2.20996H145.44092z M153.63086,199.92969c0.55273-3.44531-1.2998-5.62207-3.5752-5.62207
		c-2.53467,0-4.35498,2.46973-4.58252,5.62207H153.63086z"/>
</g>
<g>
	<defs>
		<polyline id="SVGID_13_" points="492,518 492,-274 0,-274 0,518 		"/>
	</defs>
	<clipPath id="SVGID_14_">
		<use xlink:href="#SVGID_13_"  style="overflow:visible;"/>
	</clipPath>
	<path style="&st4;" d="M24.09424,94.70996C21.27734,94.8042,20.70996,96.03906,20.70996,98v120
		c0.06934,2.38086,0.96045,3.29004,3.29004,3.29004h180c2.38135-0.06934,3.29004-0.96094,3.29004-3.29004V98
		c-0.06885-2.38086-0.96094-3.29004-3.29004-3.29004H24.09424z"/>
</g>
<g>
	<defs>
		<polyline id="SVGID_15_" points="492,518 492,-274 0,-274 0,518 		"/>
	</defs>
	<clipPath id="SVGID_16_">
		<use xlink:href="#SVGID_15_"  style="overflow:visible;"/>
	</clipPath>
</g>
<g>
</g>
<path style="&st9;" d="M79.02197,405.13867c-20.18213,0-36.55664-16.2793-36.55664-36.17578
	c0-20.18262,16.37451-36.46191,36.55664-36.46191c19.89697,0,36.17627,16.2793,36.17627,36.46191
	C115.19824,388.85938,98.91895,405.13867,79.02197,405.13867z M52.46143,368.10547v1.23828l22.5625,25.32227l8.66309-7.33008
	l-11.99512-12.85156h33.51025V363.3457H71.59668l12.09033-13.1377l-8.66309-7.23535L52.46143,368.10547z"/>
<g>
	<path style="&st2;" d="M185.07275,210.84961h-0.61523l-12.58643-11.21387l2.22363-2.88672l8.65918,7.71289v-19.87305h3.97461
		v19.87305l8.65918-7.71289l2.17676,2.88672L185.07275,210.84961z"/>
</g>
<g>
	<path style="&st2;" d="M455.75684,50.52832v0.76172l-13.88281,16.16748l-6.20996-5.68213l5.8584-6.38477h-18.21777V46.6626
		h18.39355l-6.03418-6.56104l6.20996-5.62354L455.75684,50.52832z"/>
</g>
<g>
	<defs>
		<polyline id="SVGID_17_" points="492,518 492,-274 0,-274 0,518 		"/>
	</defs>
	<clipPath id="SVGID_18_">
		<use xlink:href="#SVGID_17_"  style="overflow:visible;"/>
	</clipPath>
</g>
<g>
	<defs>
		<polyline id="SVGID_19_" points="492,518 492,-274 0,-274 0,518 		"/>
	</defs>
	<clipPath id="SVGID_20_">
		<use xlink:href="#SVGID_19_"  style="overflow:visible;"/>
	</clipPath>
</g>
</svg>
