<?xml version="1.0" encoding="utf-8"?>
<!-- Generator: Adobe Illustrator 15.1.0, SVG Export Plug-In . SVG Version: 6.00 Build 0)  -->
<!DOCTYPE svg PUBLIC "-//W3C//DTD SVG 1.1//EN" "http://www.w3.org/Graphics/SVG/1.1/DTD/svg11.dtd" [
	<!ENTITY st0 "clip-path:url(#SVGID_2_);fill:#231F20;">
]>
<svg version="1.1" id="Layer_1" xmlns="http://www.w3.org/2000/svg" xmlns:xlink="http://www.w3.org/1999/xlink" x="0px" y="0px"
	 width="588.25px" height="112.10742px" viewBox="0 0 588.25 112.10742" style="enable-background:new 0 0 588.25 112.10742;"
	 xml:space="preserve">
<g>
	<defs>
		<rect id="SVGID_1_" width="588.25" height="112.10742"/>
	</defs>
	<clipPath id="SVGID_2_">
		<use xlink:href="#SVGID_1_"  style="overflow:visible;"/>
	</clipPath>
	<path style="&st0;" d="M588.25,89.54688v-1.87695h-10.33984v1.87695h4.05078v10.03125h2.18945V89.54688H588.25z
		 M573.83398,87.66992h-2.18945v4.9082h-5.71875v-4.9082h-2.19141v11.9082h2.19141v-5.12109h5.71875v5.12109h2.18945V87.66992z
		 M559.13086,92.91211h-5.25977v1.87891h3.02539v2.43359c-0.61914,0.4043-1.57422,0.61719-2.57422,0.61719
		c-2.43164,0-4.21875-1.7168-4.21875-4.12109c0-3.02734,2.12305-4.29297,4.16992-4.31445
		c1.74219-0.02539,3.02734,0.9043,3.52734,1.26367l0.64062-1.98047c-0.75977-0.56836-2.33203-1.25781-4.11914-1.25781
		c-3.31445,0-6.43164,2.35547-6.43164,6.33594c0,3.33398,2.61523,6.04883,6.38281,6.04883
		c1.86133,0,3.76562-0.61719,4.85742-1.44922V92.91211z M543.43164,87.66406h-2.19141v11.91406h2.19141V87.66406z
		 M533.83203,91.28906c0,1.26367-0.78906,1.98047-2.09961,1.98047h-2.26562v-3.8418h2.3125
		C532.97266,89.42773,533.83203,90.02344,533.83203,91.28906 M536.06641,91.3125c0-2.16797-1.73633-3.64258-4.19141-3.64258
		h-4.59766v11.9082h2.18945v-4.57422h1.38281l3.81641,4.57422h2.47461v-0.30859l-3.88281-4.47852
		C535.06836,94.38867,536.06641,93.15039,536.06641,91.3125 M447.70508,99.58203h1.45898l0.78516-0.67969
		c0.83398,0.36523,3.18164,1.30469,5.37695,1.30469c4.22656,0,7.93359-2.45312,7.93359-7.09766
		c0-3.86328-2.76953-5.74219-6.78711-7.56836c-3.60352-1.66992-5.48242-2.76562-5.48242-4.90625
		c0-2.13867,1.77734-3.65234,3.9668-3.65234c1.98633,0,4.5957,1.61719,5.79492,5.89648h1.51367v-7.46289h-1.14844l-1.30469,0.62695
		C458.76953,75.625,457.04688,75,454.80273,75c-4.90625,0-7.09766,3.59961-7.09766,6.62695
		c0,3.54883,1.87891,5.68945,6.05273,7.46484c4.59375,2.0332,5.53516,3.23438,5.53516,5.37305
		c0,1.93359-1.56836,3.86328-3.86523,3.86328c-3.23633,0-5.16602-2.71289-6.00195-6.57617h-1.7207V99.58203z M435.49414,64.82031
		c0,1.61719,1.45898,3.07812,3.07812,3.07812c1.66992,0,3.13281-1.46094,3.13281-3.07812c0-1.66992-1.46289-3.13086-3.13281-3.13086
		C436.95312,61.68945,435.49414,63.15039,435.49414,64.82031 M440.71289,75h-1.25195l-6.36719,2.19141v1.09375l3.39062,1.46289
		v17.48438l-3.13086,0.7832v1.56641h10.49023v-1.56641l-3.13086-0.7832V75z M430.63867,99.58203v-1.56641l-3.12891-0.7832V82.98438
		c0-5.53516-3.1875-7.98438-6.83984-7.98438c-2.24219,0-4.43555,1.09375-6.83789,2.91992l-0.41797-0.3125V61.27148h-1.25195
		l-6.36719,2.19336v1.09375l3.39062,1.51367v31.16016l-3.12891,0.7832v1.56641h10.49219v-1.56641l-3.13477-0.7832V80.26953
		c1.04688-0.93945,2.92383-1.93164,5.01367-1.93164c3.07812,0,4.85352,1.77539,4.85352,6.31641v12.57812l-3.13477,0.7832v1.56641
		H430.63867z M392.38086,78.39062v15.39648c0,4.17578,1.56836,6.41992,5.375,6.41992c3.02734,0,5.37695-1.51367,6.36914-2.50391
		l-0.67773-1.35938c-1.35742,0.78516-2.92383,1.04492-4.02148,1.04492c-1.7207,0-2.81836-1.0957-2.81836-3.44336V78.39062h6.83984
		v-2.71289h-6.83984v-5.90039h-1.61719l-2.76562,4.80273l-3.02734,1.87891v1.93164H392.38086z M365.1875,76.7207
		c2.24609,0,2.71484,1.98438,2.71484,3.33984c0,1.51367-0.05078,3.70508-1.25195,3.70508h-5.79297
		C361.37891,78.75586,363.09961,76.7207,365.1875,76.7207 M374.16602,85.90625c0.93945,0,0.93945-0.67773,0.93945-1.7207
		c0-4.75195-3.02734-9.70898-9.3418-9.70898c-6.78516,0-11.84961,5.375-11.84961,13.36133
		c0,7.51562,4.4375,12.36914,10.44141,12.36914c6.15625,0,9.49805-4.17578,11.16797-7.77539l-1.56641-0.99414
		c-1.92969,2.97656-4.22656,4.22852-6.83594,4.22852c-3.44531,0-6.41992-1.82617-6.41992-8.61133v-1.14844H374.16602z
		 M349.89648,99.58203l1.67188-9.08398l-1.61719-0.36328c-2.14258,4.9043-3.86133,6.88867-9.91797,7.14844l-2.66211,0.10547
		l-0.3125-0.67773l14.03906-20.04297l-0.57422-1.51367h-18.94531l-2.45312,8.24609l1.77539,0.52344
		c2.87109-4.90625,5.0625-6.52539,10.75195-6.68164h0.67969l0.36328,0.7832l-13.62109,19.72852l0.625,1.82812H349.89648z
		 M315.91992,65.91602c0,2.29688,2.08789,4.38477,4.38281,4.38477c2.40234,0,4.49023-2.08789,4.49023-4.38477
		c0-2.40039-2.08789-4.48828-4.49023-4.48828C318.00781,61.42773,315.91992,63.51562,315.91992,65.91602 M323.90625,74.47656
		h-1.25391l-8.97461,2.19141v1.09766l3.39062,1.98242v17.48438l-3.13086,0.7832v1.56641h13.10156v-1.56641l-3.13281-0.7832V74.47656
		z M293.37305,99.89453h1.4082l0.7832-1.14844c1.04492,0.57422,3.07812,1.46094,6.31445,1.46094
		c4.69727,0,9.44922-2.45312,9.44922-7.83008c0-4.2793-3.18359-6.1582-6.05469-7.41016
		c-4.69727-1.92969-5.89844-3.49609-5.89844-5.58398c0-1.46289,1.04297-2.92383,3.08008-2.92383
		c3.33984,0,5.79297,3.91406,6.36719,6.41992h1.51367v-8.14062h-1.30273l-1.30859,0.93945
		c-1.14844-0.57422-2.86914-1.20117-5.2168-1.20117c-5.79492,0-9.13477,3.54883-9.13477,7.46289
		c0,4.2793,3.39258,5.95117,6.36719,7.35938c4.38672,1.98438,5.95117,3.49805,5.95117,5.79297
		c0,1.93164-1.51367,3.18555-3.39453,3.18555c-3.86133,0-6.41992-4.54102-7.25391-7.56836h-1.66992V99.89453z M285.70117,100.20703
		c2.03516,0,4.2793-1.09375,5.58398-5.16797l-1.56641-0.625c-0.20703,0.83594-0.57422,2.34961-1.66992,2.34961
		s-1.35742-1.04492-1.35742-2.19141V81.7832c0-4.2793-2.45312-7.30664-7.30664-7.30664c-2.24414,0-6.99219,2.50586-8.97656,3.80859
		c-1.46094,0.93945-1.98242,1.93359-1.98242,3.70508c0,1.72461,1.04297,2.92383,2.97461,2.92383
		c1.82617,0,3.02734-0.93945,3.02734-2.66211c0-1.09375-0.26172-2.71289-0.4707-3.44336
		c0.73047-0.57422,2.03516-0.99219,3.02734-0.99219c2.03516,0,3.23633,1.56641,3.23633,4.64453v2.08984l-7.15039,3.07812
		c-3.54883,1.51367-5.0625,3.18359-5.0625,5.89648c0,2.56055,2.13867,6.68164,4.95703,6.68164
		c2.19336,0,5.11523-1.14844,7.30664-3.80859h0.52344C281.36914,98.95508,282.88281,100.20703,285.70117,100.20703
		 M280.2207,92.79688c0,1.66797-1.87891,3.07812-3.33984,3.07812c-1.25391,0-2.29688-1.87891-2.29688-4.07031
		c0-1.77344,1.51367-2.97461,3.18359-3.81055l2.45312-1.25195V92.79688z M265.44922,99.58203v-1.56641l-3.13086-0.7832V82.46094
		c0-5.53125-3.02734-7.98438-6.41992-7.98438c-2.40039,0-4.95898,1.0957-7.51562,2.92188l-0.41797-0.3125V61.27148h-1.25391
		l-8.97461,2.19336v1.09375l3.39062,2.03711v30.63672l-3.13086,0.7832v1.56641h12.78711v-1.56641l-2.81836-0.7832V80.26953
		c0.83594-0.93945,2.45312-1.77344,4.12305-1.77344c2.19336,0,3.39258,1.25195,3.39258,4.5918v14.14453l-2.50586,0.7832v1.56641
		H265.44922z M219.67969,80.79297c0.72852-0.88867,2.08594-2.03711,3.91211-2.03711c2.24609,0,5.16797,2.97656,5.16797,8.97656
		c0,7.72656-3.02734,10.125-5.16797,10.125c-1.51367,0-3.13086-0.88477-3.91211-2.34766V80.79297z M223.90625,100.20703
		c5.89844,0,11.79492-4.48828,11.79492-13.72656c0-9.91602-5.16602-12.00391-8.50586-12.00391
		c-2.45312,0-4.54102,1.14844-6.78711,2.92188l-0.57422-0.3125l-0.3125-2.60938h-1.25195l-8.82227,2.19141v1.09766l3.39453,1.98242
		v30.00977l-3.13281,0.7832v1.56641h14.35352v-1.56641l-4.38281-0.7832V99.42578
		C220.61914,99.8418,222.18359,100.20703,223.90625,100.20703 M193.79102,99.58203v-1.56641l-2.71484-0.7832V82.41016
		c0-0.73242-0.10547-1.46289-0.15625-2.14062c1.0957-0.88672,2.87109-1.93164,4.22852-1.93164
		c2.08594,0,3.02734,1.04492,3.02734,3.9668v14.92773l-2.24609,0.7832v1.56641h12.21484v-1.56641l-3.13281-0.7832V82.46094
		c0-5.53125-2.97461-7.98438-6.62891-7.98438c-2.81641,0-5.58398,1.7207-8.19336,3.6543
		c-1.14844-2.50586-3.28906-3.6543-5.79492-3.6543c-2.24219,0-4.22656,1.0957-6.67969,2.92188l-0.41797-0.3125l-0.3125-2.60938
		h-1.25195l-8.82031,2.19141v1.09766l3.39062,1.98242v17.48438l-3.13086,0.7832v1.56641h12.52734v-1.56641l-2.55859-0.7832V80.26953
		c0.83594-0.93945,2.29688-1.93164,3.9668-1.93164c2.03516,0,3.13086,1.14844,3.13086,4.48828v14.40625l-2.40039,0.7832v1.56641
		H193.79102z M155.01172,76.7207c2.24219,0,2.71289,1.98438,2.71289,3.33984c0,1.51367-0.05273,3.70508-1.25195,3.70508h-5.79492
		C151.20117,78.75586,152.92383,76.7207,155.01172,76.7207 M163.98828,85.90625c0.93945,0,0.93945-0.67773,0.93945-1.7207
		c0-4.75195-3.02734-9.70898-9.3418-9.70898c-6.78711,0-11.84961,5.375-11.84961,13.36133
		c0,7.51562,4.4375,12.36914,10.43945,12.36914c6.1582,0,9.5-4.17578,11.16797-7.77539l-1.56445-0.99414
		c-1.93164,2.97656-4.22656,4.22852-6.83594,4.22852c-3.44531,0-6.42188-1.82617-6.42188-8.61133v-1.14844H163.98828z
		 M119.31055,77.13867c2.45312,0,4.22852,1.51172,4.22852,4.01953c0,0.51953-0.05273,1.30273-0.26172,1.87891h-9.60352
		C114.35156,79.74805,116.07422,77.13867,119.31055,77.13867 M128.07812,85.125c0.52344,0,0.57422-0.68164,0.57422-1.67188
		c0-3.49609-3.44336-8.45312-9.28906-8.45312c-6.00195,0-10.23047,5.6875-10.23047,12.83789
		c0,6.26367,4.01953,12.36914,10.38672,12.36914c5.2207,0,8.08984-3.9668,9.65625-6.99414l-1.46289-0.99023
		c-1.87695,3.02734-4.17383,4.2793-6.93945,4.2793c-3.81055,0-7.41211-3.28906-7.41211-9.91797c0-0.46875,0-0.99023,0.05078-1.45898
		H128.07812z M89.61328,99.58203h1.46094l0.7832-0.67969c0.83594,0.36523,3.18359,1.30469,5.375,1.30469
		c4.22852,0,7.93359-2.45312,7.93359-7.09766c0-3.86328-2.76562-5.74219-6.78516-7.56836
		c-3.60156-1.66992-5.48047-2.76562-5.48047-4.90625c0-2.13867,1.77539-3.65234,3.9668-3.65234
		c1.98438,0,4.59375,1.61719,5.79492,5.89648h1.51367v-7.46289h-1.15039l-1.30273,0.62695C100.67773,75.625,98.95508,75,96.71094,75
		c-4.90625,0-7.09766,3.59961-7.09766,6.62695c0,3.54883,1.87891,5.68945,6.05469,7.46484
		c4.5918,2.0332,5.53125,3.23438,5.53125,5.37305c0,1.93359-1.56641,3.86328-3.86133,3.86328
		c-3.23633,0-5.16797-2.71289-6.00195-6.57617h-1.72266V99.58203z M81.31445,100.05078c1.56445,0,4.01758-1.0957,5.26953-4.75
		l-1.04297-0.41602c-0.36523,0.88672-1.14844,1.92969-2.03516,1.92969c-1.14844,0-1.35547-1.0957-1.35547-2.24219V81.26172
		c0-3.6543-1.98438-6.26172-5.74219-6.26172c-2.08789,0-6.31445,2.60742-8.19531,3.91211
		c-1.0957,0.93945-1.46094,1.98438-1.46094,3.13281c0,1.51367,0.93945,2.55664,2.03516,2.55664
		c1.20117,0,2.29688-0.67773,2.29688-2.03516c0-1.04297-0.26172-2.34766-0.3125-2.97461
		c0.625-0.94141,2.34766-1.67188,3.49609-1.67188c2.55859,0,4.01953,1.51367,4.01953,4.95898v2.19336l-7.35938,3.18359
		c-2.87109,1.19922-4.12305,3.49609-4.12305,5.79297c0,2.34961,2.08789,6.1582,4.75,6.1582c2.13867,0,3.80859-1.14844,6-3.44336
		h0.52344C78.23438,98.90234,79.5918,100.05078,81.31445,100.05078 M78.33984,92.37695c0,2.45312-2.76758,4.33398-4.75,4.33398
		c-1.51367,0-2.66211-1.67188-2.66211-3.60156c0-2.03516,1.77539-3.44336,2.92188-3.91406l4.49023-2.03711V92.37695z
		 M53.23438,77.13867c2.45508,0,4.22656,1.51172,4.22656,4.01953c0,0.51953-0.04883,1.30273-0.25977,1.87891h-9.60352
		C48.27539,79.74805,49.99805,77.13867,53.23438,77.13867 M62.00391,85.125c0.52344,0,0.57227-0.68164,0.57227-1.67188
		c0-3.49609-3.44336-8.45312-9.28711-8.45312c-6.00586,0-10.23242,5.6875-10.23242,12.83789
		c0,6.26367,4.02148,12.36914,10.38867,12.36914c5.2168,0,8.08789-3.9668,9.6543-6.99414l-1.46289-0.99023
		c-1.87891,3.02734-4.17578,4.2793-6.94141,4.2793c-3.80859,0-7.41211-3.28906-7.41211-9.91797c0-0.46875,0-0.99023,0.05273-1.45898
		H62.00391z M36.74219,61.27148h-1.25195l-6.36719,2.19336v1.09375l3.39258,1.51367v31.16016l-3.13086,0.7832v1.56641H39.875
		v-1.56641l-3.13281-0.7832V61.27148z M9.75781,65.44727h3.44531c4.69922,0,7.72656,2.13867,7.72656,8.08984
		c0,4.59375-3.3418,7.46289-7.25586,7.46289H9.75781V65.44727z M12.94336,83.40039c8.24609,0,13.20508-3.91406,13.20508-10.17578
		c0-7.62109-6.89062-10.49219-12.94531-10.49219H0v1.82617l4.69531,0.7832v31.63086L0,97.75391v1.82812h14.92578v-1.82812
		l-5.16797-0.78125V83.40039H12.94336z"/>
	<path style="&st0;" d="M588.25,28.27734v-1.87695h-10.33984v1.87695h4.05078v10.0293h2.18945v-10.0293H588.25z M573.83398,26.40039
		h-2.18945v4.90625h-5.71875v-4.90625h-2.19141v11.90625h2.19141v-5.12109h5.71875v5.12109h2.18945V26.40039z M559.13086,31.64062
		h-5.25977v1.88086h3.02539v2.43164c-0.61914,0.40625-1.57422,0.61914-2.57422,0.61914c-2.43164,0-4.21875-1.7168-4.21875-4.12109
		c0-3.02734,2.12305-4.29297,4.16992-4.31641c1.74219-0.02344,3.02734,0.9043,3.52734,1.26367l0.64062-1.97852
		c-0.75977-0.57031-2.33203-1.25977-4.11914-1.25977c-3.31445,0-6.43164,2.35742-6.43164,6.33594
		c0,3.33594,2.61523,6.05078,6.38281,6.05078c1.86133,0,3.76562-0.61914,4.85742-1.44922V31.64062z M543.43164,26.39453h-2.19141
		v11.91211h2.19141V26.39453z M533.83203,30.01953c0,1.26367-0.78906,1.97852-2.09961,1.97852h-2.26562V28.1582h2.3125
		C532.97266,28.1582,533.83203,28.75391,533.83203,30.01953 M536.06641,30.04102c0-2.16602-1.73633-3.64062-4.19141-3.64062
		h-4.59766v11.90625h2.18945v-4.57227h1.38281l3.81641,4.57227h2.47461V38l-3.88281-4.47852
		C535.06836,33.11719,536.06641,31.88086,536.06641,30.04102 M415.0332,38.3125h1.45898l0.7832-0.68164
		c0.83594,0.36719,3.18359,1.30664,5.375,1.30664c4.22852,0,7.93359-2.45312,7.93359-7.09961
		c0-3.86133-2.76562-5.74023-6.78516-7.56641c-3.60156-1.67188-5.48047-2.76562-5.48047-4.90625
		c0-2.13867,1.77539-3.65234,3.9668-3.65234c1.98438,0,4.59375,1.61719,5.79492,5.89648h1.51172v-7.46484h-1.14844l-1.30273,0.62891
		c-1.04492-0.41992-2.76758-1.04492-5.01172-1.04492c-4.90625,0-7.0957,3.60156-7.0957,6.62891
		c0,3.54688,1.87891,5.6875,6.05273,7.46289c4.5918,2.03516,5.53125,3.23633,5.53125,5.375
		c0,1.93164-1.56445,3.86133-3.86133,3.86133c-3.23633,0-5.16602-2.71094-6.00391-6.57422h-1.71875V38.3125z M402.82227,3.55078
		c0,1.61719,1.45703,3.07812,3.07812,3.07812c1.66797,0,3.13086-1.46094,3.13086-3.07812c0-1.67188-1.46289-3.13086-3.13086-3.13086
		C404.2793,0.41992,402.82227,1.87891,402.82227,3.55078 M408.03906,13.72852h-1.25195l-6.36719,2.19141v1.0957l3.39258,1.46289
		v17.48438l-3.13086,0.78125v1.56836h10.49023v-1.56836l-3.13281-0.78125V13.72852z M397.9668,38.3125v-1.56836l-3.13281-0.78125
		v-14.25c0-5.5332-3.18359-7.98438-6.83789-7.98438c-2.24219,0-4.4375,1.0957-6.83594,2.92188l-0.41797-0.3125V0h-1.25195
		l-6.36914,2.19336v1.0957l3.39258,1.51367v31.16016l-3.13086,0.78125v1.56836H383.875v-1.56836l-3.13281-0.78125V18.99805
		c1.04492-0.93945,2.92383-1.92969,5.01172-1.92969c3.08008,0,4.85352,1.77539,4.85352,6.31641v12.57812l-3.13281,0.78125v1.56836
		H397.9668z M359.70898,17.11914v15.39844c0,4.17383,1.56641,6.41992,5.375,6.41992c3.02734,0,5.37695-1.51367,6.36719-2.50586
		l-0.67773-1.35742c-1.35742,0.78516-2.92188,1.04297-4.01758,1.04297c-1.72266,0-2.82031-1.09375-2.82031-3.44336V17.11914h6.83789
		v-2.71289h-6.83789V8.50781h-1.61719l-2.76758,4.80273l-3.02734,1.87891v1.92969H359.70898z M332.09766,24.5332
		c1.61719-4.02148,4.59375-8.19531,7.30859-8.19531c0.93945,0,1.46094,0.78125,1.46094,1.77344
		C340.86719,21.03516,337.41992,23.75,332.09766,24.5332 M331.36523,26.46289c5.79688-0.67773,13.36328-3.60156,13.36328-8.66406
		c0-3.13281-2.0332-4.07031-3.70508-4.07031c-6.99414,0-14.66602,10.9082-14.66602,18.47656
		c0,4.48633,2.03516,6.83594,5.0625,6.83594c4.5918,0,7.87891-3.9668,9.6543-6.67969l-1.25195-1.04297
		c-2.60938,2.91992-4.54102,4.12109-6.52344,4.12109c-2.08789,0-2.87305-1.4082-2.87305-3.23438
		C330.42578,30.27344,330.94922,27.87109,331.36523,26.46289 M319.67773,19.3125l-15.86719,15.71094
		c-1.09375,1.09375-2.14062,1.7207-2.14062,2.92188c0,0.7832,0.62695,1.0957,1.25586,1.0957c1.7207,0,1.45898-3.9668,4.07031-3.9668
		c1.56641,0,3.75586,3.9668,10.07227,3.9668c3.28906,0,6.21094-2.45312,6.21094-7.04492c0-2.14062-0.99023-3.3418-2.55664-3.3418
		c-1.35938,0-2.24609,1.20117-2.24609,2.24414c0,2.08789,2.03711,2.19141,2.03711,3.86328c0,1.30469-1.0957,2.08789-2.34961,2.08789
		c-3.80859,0-4.01758-4.38477-8.45312-4.38477v-0.41797l17.01562-16.96094c0.72852-0.73242-2.03711-1.82617-2.45703-1.20117
		c-0.36328,0.62695-1.4082,1.98242-3.12891,1.98242c-3.08008,0-4.22852-2.13867-8.45508-2.13867
		c-3.75977,0-6.52539,2.92188-6.52539,5.89648c0,1.51367,0.93945,2.66211,2.40234,2.66211
		c1.66797,0,2.50391-1.04297,2.50391-2.14062c0-1.56445-0.67773-1.98242-0.67773-2.97461c0-0.88477,0.4707-1.56641,1.61719-1.56641
		c2.76562,0,2.50391,3.44727,7.67188,3.44727V19.3125z M299.11328,4.22852c0,1.41016,0.93945,2.61133,2.24414,2.61133
		c1.62109,0,3.18555-1.72461,3.18555-3.55078c0-1.46094-0.99219-2.71484-2.24609-2.71484
		C300.36719,0.57422,299.11328,2.61133,299.11328,4.22852 M300.00195,20.4082c1.72266-3.70508,1.77539-6.67969-1.25195-6.67969
		c-2.71484,0-6.68164,5.26953-8.19531,8.29688l1.35742,0.57422c1.56641-2.71289,3.75781-4.85352,4.64453-4.85352
		c0.4707,0,0.67773,0.73242,0.20898,1.82617l-5.58398,12.99805c-1.93164,4.48633-0.83594,6.36719,0.93945,6.36719
		c3.39258,0,7.04492-4.85352,9.18555-9.55273l-1.30469-0.57422c-1.61914,2.92383-3.91406,5.63867-5.0625,5.63867
		c-0.7832,0-0.99219-0.93945-0.52148-1.98438L300.00195,20.4082z M282.30664,16.28711c2.76758,0,2.14258,3.44336,4.64648,3.44336
		c1.46289,0,2.08789-1.04492,2.08789-2.19141c0-1.98438-2.45312-3.81055-5.11523-3.81055
		c-4.07031,0-7.15039,3.07812-7.15039,7.14844c0,3.55078,1.0957,5.37695,2.24414,7.36133
		c1.0957,1.87891,2.24414,3.39258,2.24414,5.42578c0,1.98438-1.19922,2.71484-2.76562,2.71484
		c-3.28906,0-3.49609-3.02734-5.58398-3.02734c-1.30664,0-2.03516,0.93945-2.03516,2.08789
		c0,2.14062,2.71289,3.60156,5.6875,3.60156c4.17578,0,8.08984-2.81836,8.08984-7.09766c0-2.71484-1.4082-5.21875-2.97461-7.93359
		c-0.88672-1.56445-1.72266-3.44336-1.72266-5.16602C279.95898,17.69336,280.5332,16.28711,282.30664,16.28711 M251.46094,32.51758
		c0-2.71289,1.30664-6.36719,3.02734-9.39453c2.24414-3.9668,5.5332-7.20312,8.4043-7.20312
		c1.41016,0,1.98242,1.41016,1.61719,4.22656c-3.39258,8.14453-9.08203,15.18945-11.69141,15.18945
		C252.14062,35.33594,251.46094,34.9707,251.46094,32.51758 M265.86719,15.3457c-0.52148-1.14844-1.4082-1.61719-2.40039-1.61719
		c-4.33203,0-9.39648,4.69531-12.68359,10.28125c-1.98242,3.39258-3.33984,6.99414-3.33984,10.38672
		c0,2.19141,0.93945,4.64453,3.18359,4.64453c4.33203,0,7.72461-5.37695,11.16992-10.54102l0.41602,0.25977
		c-3.33984,6.83789-2.50586,10.17773,0,10.17773c2.08984,0,4.85547-1.82617,8.24805-8.92578l-1.35742-0.62695
		c-2.08789,3.75977-3.70508,5.74219-5.0625,5.74219c-0.52344,0-0.7832-0.57422-0.4707-1.56641l6.1582-18.8418
		c0.1582-0.67773-0.25977-0.93945-1.51367-0.93945c-1.46094,0-1.77344,0.4707-2.08789,1.56641H265.86719z M230.58398,22.28711
		l6.57617-20.7207L235.75195,0l-6.83789,1.67188v1.0957l3.81055,0.99023l-10.43945,33.56055
		c-0.20898,0.83594,0.83594,1.20117,1.82617,1.20117c0.7832,0,1.67188-0.41797,1.88086-1.20117l1.72266-5.58398
		c4.12305-8.50781,10.17773-14.66602,12.31641-14.66602c1.04297,0,1.25391,0.88672,0.67969,2.60938l-4.69922,12.89258
		c-1.4082,3.91406-0.78125,6.36719,1.0957,6.36719c2.97656,0,6.10742-4.85352,8.03906-8.66406l-1.14844-0.67969
		c-1.51367,2.40234-2.81836,4.75195-3.91406,4.75195c-0.83594,0-0.93945-0.78516-0.52344-1.88086l4.07227-11.01367
		c2.24414-6,0.99219-7.72266-0.99219-7.72266c-3.39258,0-8.97656,5.42773-11.63867,8.92383L230.58398,22.28711z M213.93555,16.17969
		c1.87891,0,3.13086,1.77539,3.13086,4.80273c0,6.57617-4.80078,15.44922-9.39453,15.44922
		c-0.88672,0-1.66992-0.31445-2.34961-0.83398l5.68945-18.6875C212.00391,16.44141,212.99414,16.17969,213.93555,16.17969
		 M206.78516,18.94727l-9.13477,29.54102l-4.17578,0.78125v1.56836h12.00391v-1.56836l-4.17383-0.78125l3.18359-10.5957
		c0.7832,0.52344,1.77344,0.93945,3.23633,0.93945c5.79297,0,13.35938-9.08008,13.35938-17.84961
		c0-4.90625-3.33789-7.25391-6.31445-7.25391c-1.0957,0-2.34766,0.36328-3.13086,0.57422l1.87891-5.79492L209.39453,9.5
		l-1.88086,6.1582c-2.71289,1.88086-4.74805,3.70703-6.7832,6.52539l1.4082,1.30469
		c1.09766-1.66992,3.13281-3.81055,4.33203-4.80273L206.78516,18.94727z M184.65625,21.40039
		c2.03516-5.42969,1.04492-7.67188-0.99023-7.67188c-3.55078,0-8.97852,5.94922-12.10938,11.11523l-0.4707-0.31055
		c2.76562-6.10938,3.44531-10.80469,0.57422-10.80469c-2.71289,0-5.94922,4.12305-7.88086,8.24609l1.25391,0.57422
		c1.46094-3.02734,3.39258-4.90625,3.9668-4.90625c0.46875,0,0.78125,0.67773,0.41602,1.82617l-5.5332,17.84961
		c-0.20703,0.73242,0.83594,1.20117,1.82812,1.20117c0.7832,0,1.66992-0.41797,1.87891-1.20117l2.29492-7.09766
		c4.28125-7.67188,9.5-13.20508,11.64062-13.20508c0.93945,0,0.7832,1.20117,0.41602,2.40234l-5.79297,17.38086
		c-0.25977,0.9375,0.15625,1.7207,1.46289,1.7207c1.14648,0,1.77344-0.26172,2.08789-1.35742l2.86914-9.29102
		c3.91602-6.78516,8.45703-10.85547,10.33398-10.85547c0.73242,0,0.93945,0.93945,0.41797,2.40234l-4.85352,13.15234
		c-1.4082,3.86133-0.7832,6.36719,1.0957,6.36719c2.97656,0,6.10742-4.4375,8.03906-8.24609l-1.15039-0.83594
		c-1.51367,2.45312-2.81641,4.74805-3.91211,4.74805c-0.7832,0-0.99219-0.93945-0.52344-2.13867l4.07227-11.01367
		c2.19141-5.89648,0.73047-7.72266-1.04492-7.72266c-2.92188,0-6.10742,3.18164-10.02148,7.93164L184.65625,21.40039z
		 M149.26953,24.5332c1.61914-4.02148,4.59375-8.19531,7.30664-8.19531c0.93945,0,1.46289,0.78125,1.46289,1.77344
		C158.03906,21.03516,154.59375,23.75,149.26953,24.5332 M148.53906,26.46289c5.79297-0.67773,13.36133-3.60156,13.36133-8.66406
		c0-3.13281-2.03516-4.07031-3.70508-4.07031c-6.99414,0-14.66602,10.9082-14.66602,18.47656
		c0,4.48633,2.03516,6.83594,5.0625,6.83594c4.5918,0,7.88086-3.9668,9.6543-6.67969l-1.25195-1.04297
		c-2.60938,2.91992-4.54102,4.12109-6.52344,4.12109c-2.08789,0-2.87109-1.4082-2.87109-3.23438
		C147.59961,30.27344,148.12109,27.87109,148.53906,26.46289 M119.31055,15.86719c2.45312,0,4.22852,1.51367,4.22852,4.01953
		c0,0.52148-0.05273,1.30273-0.26172,1.87891h-9.60352C114.35156,18.47852,116.07422,15.86719,119.31055,15.86719
		 M128.07812,23.85352c0.52344,0,0.57422-0.67969,0.57422-1.66992c0-3.49805-3.44336-8.45508-9.28906-8.45508
		c-6.00195,0-10.23047,5.68945-10.23047,12.83789c0,6.26562,4.01953,12.37109,10.38672,12.37109
		c5.2207,0,8.08984-3.9668,9.65625-6.99414l-1.46289-0.99023c-1.87695,3.02539-4.17383,4.2793-6.93945,4.2793
		c-3.81055,0-7.41211-3.28906-7.41211-9.91797c0-0.4707,0-0.99023,0.05078-1.46094H128.07812z M89.61328,38.3125h1.46094
		l0.7832-0.68164c0.83594,0.36719,3.18359,1.30664,5.375,1.30664c4.22852,0,7.93359-2.45312,7.93359-7.09961
		c0-3.86133-2.76562-5.74023-6.78516-7.56641c-3.60156-1.67188-5.48047-2.76562-5.48047-4.90625
		c0-2.13867,1.77539-3.65234,3.9668-3.65234c1.98438,0,4.59375,1.61719,5.79492,5.89648h1.51367v-7.46484h-1.15039l-1.30273,0.62891
		c-1.04492-0.41992-2.76758-1.04492-5.01172-1.04492c-4.90625,0-7.09766,3.60156-7.09766,6.62891
		c0,3.54688,1.87891,5.6875,6.05469,7.46289c4.5918,2.03516,5.53125,3.23633,5.53125,5.375
		c0,1.93164-1.56641,3.86133-3.86133,3.86133c-3.23633,0-5.16797-2.71094-6.00195-6.57422h-1.72266V38.3125z M81.31445,38.7793
		c1.56445,0,4.01758-1.09375,5.26953-4.74805l-1.04297-0.41797c-0.36523,0.88672-1.14844,1.93164-2.03516,1.93164
		c-1.14844,0-1.35547-1.0957-1.35547-2.24414V19.99219c0-3.6543-1.98438-6.26367-5.74219-6.26367
		c-2.08789,0-6.31445,2.60938-8.19531,3.91406c-1.0957,0.93945-1.46094,1.98242-1.46094,3.13086
		c0,1.51367,0.93945,2.55859,2.03516,2.55859c1.20117,0,2.29688-0.67969,2.29688-2.03516c0-1.04297-0.26172-2.34961-0.3125-2.97656
		c0.625-0.93945,2.34766-1.66992,3.49609-1.66992c2.55859,0,4.01953,1.51367,4.01953,4.95898v2.19141l-7.35938,3.18555
		c-2.87109,1.19727-4.12305,3.49609-4.12305,5.79102c0,2.34961,2.08789,6.16016,4.75,6.16016c2.13867,0,3.80859-1.14844,6-3.44531
		h0.52344C78.23438,37.63086,79.5918,38.7793,81.31445,38.7793 M78.33984,31.10742c0,2.45312-2.76758,4.33203-4.75,4.33203
		c-1.51367,0-2.66211-1.66992-2.66211-3.60156c0-2.0332,1.77539-3.44336,2.92188-3.91211l4.49023-2.03711V31.10742z
		 M53.23438,15.86719c2.45508,0,4.22656,1.51367,4.22656,4.01953c0,0.52148-0.04883,1.30273-0.25977,1.87891h-9.60352
		C48.27539,18.47852,49.99805,15.86719,53.23438,15.86719 M62.00391,23.85352c0.52344,0,0.57227-0.67969,0.57227-1.66992
		c0-3.49805-3.44336-8.45508-9.28711-8.45508c-6.00586,0-10.23242,5.68945-10.23242,12.83789
		c0,6.26562,4.02148,12.37109,10.38867,12.37109c5.2168,0,8.08789-3.9668,9.6543-6.99414l-1.46289-0.99023
		c-1.87891,3.02539-4.17578,4.2793-6.94141,4.2793c-3.80859,0-7.41211-3.28906-7.41211-9.91797c0-0.4707,0-0.99023,0.05273-1.46094
		H62.00391z M36.74219,0h-1.25195l-6.36719,2.19336v1.0957l3.39258,1.51367v31.16016l-3.13086,0.78125v1.56836H39.875v-1.56836
		l-3.13281-0.78125V0z M9.75781,4.17773h3.44531c4.69922,0,7.72656,2.13867,7.72656,8.08789
		c0,4.59375-3.3418,7.46484-7.25586,7.46484H9.75781V4.17773z M12.94336,22.13086c8.24609,0,13.20508-3.91406,13.20508-10.17773
		c0-7.62109-6.89062-10.49023-12.94531-10.49023H0v1.82617l4.69531,0.78125v31.63086L0,36.48438v1.82812h14.92578v-1.82812
		l-5.16797-0.7832V22.13086H12.94336z"/>
</g>
</svg>
