<?xml version="1.0" encoding="utf-8"?>
<!-- Generator: Adobe Illustrator 15.1.0, SVG Export Plug-In . SVG Version: 6.00 Build 0)  -->
<!DOCTYPE svg PUBLIC "-//W3C//DTD SVG 1.1//EN" "http://www.w3.org/Graphics/SVG/1.1/DTD/svg11.dtd" [
	<!ENTITY st0 "fill:#231F20;">
]>
<svg version="1.1" id="Layer_1" xmlns="http://www.w3.org/2000/svg" xmlns:xlink="http://www.w3.org/1999/xlink" x="0px" y="0px"
	 width="509.09619px" height="89.06982px" viewBox="0 0 509.09619 89.06982" style="enable-background:new 0 0 509.09619 89.06982;"
	 xml:space="preserve">
<g>
	<path style="&st0;" d="M0,0h9.78906c3.56006,0,5.98682,0.20215,7.96924,2.34619c1.45605,1.49658,2.14355,3.47852,2.14355,5.66309
		c0,2.22461-0.72803,4.12598-2.30566,5.70361C16.05908,15.25,14.03662,16.2207,8.77783,16.2207H4.04541v12.98486H0V0z
		 M4.04541,12.82275h4.81348c2.66992,0,6.75537-0.20215,6.75537-4.97559c0-4.5708-3.80225-4.5708-5.90576-4.5708H4.04541V12.82275z"
		/>
	<path style="&st0;" d="M24.80029,0.04053h3.80225v29.16504h-3.80225V0.04053z"/>
	<path style="&st0;" d="M38.27197,19.74023c-0.08057,4.20654,1.65869,7.32129,5.8252,7.32129
		c2.46729,0,4.44971-1.29443,4.77295-4.20654h3.80273c-0.12158,1.01123-0.2832,2.66943-1.73975,4.24707
		c-0.88965,1.01123-2.91211,2.71045-6.99805,2.71045c-6.39111,0-9.4248-3.96436-9.4248-10.396
		c0-4.00488,0.80908-7.32178,4.00439-9.54639c1.94189-1.37549,4.36914-1.49707,5.54199-1.49707
		c9.10156,0,8.89941,8.0498,8.81836,11.36719H38.27197z M48.9917,17.07031c0.04053-1.94189-0.32373-5.98682-5.01611-5.98682
		c-2.46729,0-5.46094,1.49658-5.5415,5.98682H48.9917z"/>
	<path style="&st0;" d="M70.83887,29.20557c-0.28271-1.01123-0.36377-1.98193-0.36377-3.03369
		c-1.82031,3.35742-4.5708,3.68115-6.27002,3.68115c-4.65186,0-7.15967-2.62939-7.15967-5.98682
		c0-1.61816,0.56641-4.20703,3.55957-5.94629c2.18457-1.21387,5.42041-1.33496,7.03857-1.33496
		c0.9707,0,1.57764,0.04053,2.75049,0.12109c0-2.50781,0-3.6001-0.72803-4.48975c-0.76855-1.01123-2.42725-1.33496-3.51904-1.33496
		c-3.84326,0-4.04541,2.62939-4.08594,3.43848h-3.80225c0.12158-1.05176,0.24268-2.46777,1.41602-3.84326
		c1.53711-1.69873,4.40918-2.18408,6.55273-2.18408c2.95312,0,6.1084,0.93018,7.2002,2.99316
		c0.64746,1.21387,0.68799,2.18457,0.68799,3.11475l-0.16211,9.7085c0,0.32324,0.04053,3.03369,0.32373,5.09668H70.83887z
		 M68.20996,19.21436c-1.53711,0-7.32178,0-7.32178,4.12598c0,1.29443,0.80908,3.51904,4.20703,3.51904
		c1.94141,0,3.39795-0.76855,4.32812-2.18408c0.84961-1.37549,0.88965-2.5083,0.9707-5.33984
		C69.70654,19.25439,69.14014,19.21436,68.20996,19.21436z"/>
	<path style="&st0;" d="M83.13965,23.17822c-0.04053,1.53711,0.76855,3.68115,4.44971,3.68115
		c1.57764,0,2.75049-0.2832,3.55957-1.29443c0.4043-0.52588,0.64697-1.21338,0.64697-1.90137
		c0-1.98193-1.41553-2.34619-4.44922-3.03369c-4.24756-0.9707-7.80713-1.82031-7.80713-6.06738
		c0-3.72168,3.23584-6.14893,7.92822-6.14893c2.54834,0,6.1084,0.72852,7.32178,3.15527
		c0.52588,1.13281,0.52588,2.10352,0.52588,2.95312h-3.8833c0.12109-3.07422-2.54834-3.31689-3.92383-3.31689
		c-0.56641,0-4.12598,0-4.12598,2.91211c0,1.86084,1.82031,2.30566,2.87207,2.58887c5.62256,1.33496,6.83594,1.65869,8.0498,2.7915
		c1.13232,1.05127,1.53711,2.46729,1.53711,3.76172c0,2.26514-1.25391,4.20703-2.75098,5.13721
		c-1.77979,1.09229-3.92334,1.37549-6.02686,1.37549c-4.12598,0-7.96924-1.69922-7.92871-6.59375H83.13965z"/>
	<path style="&st0;" d="M103.48926,19.74023c-0.08057,4.20654,1.65869,7.32129,5.8252,7.32129
		c2.46729,0,4.44971-1.29443,4.77295-4.20654h3.80273c-0.12158,1.01123-0.2832,2.66943-1.73975,4.24707
		c-0.88965,1.01123-2.91211,2.71045-6.99805,2.71045c-6.39111,0-9.4248-3.96436-9.4248-10.396
		c0-4.00488,0.80908-7.32178,4.00439-9.54639c1.94189-1.37549,4.36914-1.49707,5.54199-1.49707
		c9.10156,0,8.89941,8.0498,8.81836,11.36719H103.48926z M114.20898,17.07031c0.04053-1.94189-0.32373-5.98682-5.01611-5.98682
		c-2.46729,0-5.46094,1.49658-5.5415,5.98682H114.20898z"/>
</g>
<g>
	<path style="&st0;" d="M139.25439,19.74023c-0.97119,4.20654,0.08057,7.32129,4.24707,7.32129
		c2.46777,0,4.73291-1.29443,5.66309-4.20654h3.80273c-0.32373,1.01123-0.84961,2.66943-2.62939,4.24707
		c-1.09229,1.01123-3.479,2.71045-7.56445,2.71045c-6.39111,0-8.57568-3.96436-7.24072-10.396
		c0.84961-4.00488,2.38672-7.32178,6.06738-9.54639c2.2251-1.37549,4.65186-1.49707,5.8252-1.49707
		c9.10156,0,7.2002,8.0498,6.43164,11.36719H139.25439z M150.54004,17.07031c0.44482-1.94189,0.93018-5.98682-3.76221-5.98682
		c-2.46729,0-5.78418,1.49658-6.79541,5.98682H150.54004z"/>
	<path style="&st0;" d="M161.10107,11.60938l0.52588-2.71045h3.84277l-0.64697,2.95312c2.62939-3.1958,5.42041-3.479,7.15967-3.479
		c4.49023,0,5.42041,2.30615,5.8252,3.80273c0.93018-1.13281,3.15479-3.80273,7.64502-3.80273
		c2.9126,0,7.2002,1.21387,5.94629,7.20068l-2.9126,13.63184h-3.84277l2.75049-13.02539c0.40479-1.77979,0.24316-2.54834,0-3.07422
		c-0.48535-0.93018-1.57715-1.77979-3.51904-1.77979c-2.46729,0-4.08545,1.41602-4.77344,2.14404
		c-1.17285,1.25391-1.6582,3.47852-1.81982,4.36865l-2.42725,11.3667h-3.84277l2.87207-13.42969
		c0.52588-2.50781-0.52588-4.44971-3.51953-4.44971c-2.58887,0-4.36865,1.61816-4.93506,2.22461
		c-1.0918,1.17334-1.49658,2.83203-1.73926,4.12646l-2.46729,11.52832h-3.84326L161.10107,11.60938z"/>
	<path style="&st0;" d="M199.09033,12.21631c0.20215-0.89014,0.24268-1.37549,0.60645-3.31738h3.84326l-0.64746,3.35742
		c2.58887-3.19531,6.02734-3.68066,7.68555-3.68066c4.36914,0,7.92871,2.99316,6.31055,10.51709
		c-1.61816,7.56445-6.71484,10.88135-11.56885,10.88135c-2.95312,0-4.854-1.25391-5.58252-3.03369l-2.14355,10.07227h-3.76221
		L199.09033,12.21631z M205.2793,27.18311c0.9707,0,3.03369-0.20215,4.69238-1.98242
		c1.86084-1.98193,2.70996-4.89453,2.99316-6.35059c0.80908-3.64062,0.52588-7.44287-3.96387-7.44287
		c-6.06787,0-7.44336,6.43164-7.84766,8.25195C200.62744,22.12646,199.93994,27.18311,205.2793,27.18311z"/>
	<path style="&st0;" d="M226.51953,0.04053h3.84277l-2.50781,11.85205c1.69922-2.14404,4.49023-3.35742,7.32178-3.35742
		c2.14404,0,5.05615,0.76855,5.70361,3.23584c0.20215,0.80908,0.2832,1.77979-0.32373,4.73291l-2.70996,12.70166h-3.8833
		l2.54834-12.01416c0.4043-1.82031,1.21338-5.74365-3.15527-5.74365c-2.83154,0-4.61133,1.73926-5.33936,2.70996
		c-0.89014,1.13281-1.29443,3.03369-1.53711,4.28809l-2.30615,10.75977h-3.84277L226.51953,0.04053z"/>
	<path style="&st0;" d="M257.42822,29.20557c-0.08203-1.01123,0.04102-1.98193,0.2832-3.03369
		c-2.54883,3.35742-5.33984,3.68115-7.03906,3.68115c-4.65234,0-6.63281-2.62939-5.90625-5.98682
		c0.36523-1.61816,1.45703-4.20703,4.81445-5.94629c2.4668-1.21387,5.70312-1.33496,7.32227-1.33496
		c0.9707,0,1.57617,0.04053,2.75,0.12109c0.52539-2.50781,0.76758-3.6001,0.20312-4.48975
		c-0.52734-1.01123-2.14453-1.33496-3.23633-1.33496c-3.84375,0-4.61133,2.62939-4.81445,3.43848h-3.80273
		c0.36523-1.05176,0.76953-2.46777,2.22461-3.84326c1.90234-1.69873,4.89453-2.18408,7.03906-2.18408
		c2.95312,0,5.90625,0.93018,6.55273,2.99316c0.4043,1.21387,0.24219,2.18457,0.04102,3.11475l-2.22461,9.7085
		c-0.08203,0.32324-0.60742,3.03369-0.76953,5.09668H257.42822z M256.94189,19.21436c-1.53711,0-7.32031,0-8.21094,4.12598
		c-0.2832,1.29443,0.04102,3.51904,3.4375,3.51904c1.94336,0,3.56055-0.76855,4.81445-2.18408
		c1.13281-1.37549,1.41602-2.5083,2.10352-5.33984C258.39893,19.25439,257.87354,19.21436,256.94189,19.21436z"/>
	<path style="&st0;" d="M271.02197,23.17822c-0.36328,1.53711-0.03906,3.68115,3.64062,3.68115
		c1.57812,0,2.83203-0.2832,3.84375-1.29443c0.52539-0.52588,0.92969-1.21338,1.05078-1.90137
		c0.44531-1.98193-0.92969-2.34619-3.80078-3.03369c-4.04492-0.9707-7.40234-1.82031-6.51367-6.06738
		c0.76953-3.72168,4.53125-6.14893,9.22266-6.14893c2.54883,0,5.94727,0.72852,6.67578,3.15527
		c0.2832,1.13281,0.08008,2.10352-0.12305,2.95312h-3.88281c0.76953-3.07422-1.82031-3.31689-3.19531-3.31689
		c-0.56641,0-4.125,0-4.77344,2.91211c-0.36328,1.86084,1.33594,2.30566,2.3457,2.58887
		c5.33984,1.33496,6.47266,1.65869,7.44336,2.7915c0.89062,1.05127,1.01172,2.46729,0.72852,3.76172
		c-0.48633,2.26514-2.14453,4.20703-3.84375,5.13721c-1.98047,1.09229-4.20508,1.37549-6.30859,1.37549
		c-4.12695,0-7.60547-1.69922-6.51367-6.59375H271.02197z"/>
	<path style="&st0;" d="M292.14111,8.89893h3.80273l-4.32812,20.30664h-3.80273L292.14111,8.89893z M293.59814,0.08057h4.57031
		l-0.89062,4.1665h-4.57031L293.59814,0.08057z"/>
	<path style="&st0;" d="M297.52393,25.28174L311.23682,11.771h-10.27539l0.60742-2.87207h14.60352l-0.6875,3.23633
		l-14.19922,14.11719h11.20508l-0.64648,2.95312h-15.16992L297.52393,25.28174z"/>
	<path style="&st0;" d="M320.5415,19.74023c-0.9707,4.20654,0.08203,7.32129,4.24805,7.32129
		c2.4668,0,4.73242-1.29443,5.66406-4.20654h3.80078c-0.32227,1.01123-0.84961,2.66943-2.62891,4.24707
		c-1.0918,1.01123-3.47852,2.71045-7.56445,2.71045c-6.39062,0-8.57422-3.96436-7.24023-10.396
		c0.84961-4.00488,2.38672-7.32178,6.06836-9.54639c2.22461-1.37549,4.65039-1.49707,5.82422-1.49707
		c9.10156,0,7.20117,8.0498,6.43164,11.36719H320.5415z M331.82861,17.07031c0.44531-1.94189,0.92969-5.98682-3.76172-5.98682
		c-2.46875,0-5.78516,1.49658-6.79688,5.98682H331.82861z"/>
</g>
<g>
	<path style="&st0;" d="M346.80127,8.81836h3.59961V4.5708l3.76172-1.21338v5.46094h4.53125v2.79102h-4.53125v12.17578
		c0,1.01123,0,2.70996,2.71094,2.70996c0.76758,0,1.49609-0.12109,1.82031-0.20215v2.95312
		c-0.6875,0.12109-1.78125,0.24268-3.15625,0.24268c-3.47852,0-5.13672-1.01123-5.13672-4.32812V11.60938h-3.59961V8.81836z"/>
	<path style="&st0;" d="M363.38721,0.04053h3.8418v11.85205c1.25391-2.14404,3.76172-3.35742,6.59375-3.35742
		c2.14453,0,5.21875,0.76855,6.39258,3.23584c0.4043,0.80908,0.6875,1.77979,0.6875,4.73291v12.70166h-3.88477V17.19141
		c0-1.82031,0-5.74365-4.36719-5.74365c-2.83203,0-4.24805,1.73926-4.77344,2.70996
		c-0.64844,1.13281-0.64844,3.03369-0.64844,4.28809v10.75977h-3.8418V0.04053z"/>
	<path style="&st0;" d="M387.74268,0.08057h4.57031v4.1665h-4.57031V0.08057z M388.14697,8.89893h3.80273v20.30664h-3.80273V8.89893
		z"/>
	<path style="&st0;" d="M401.5376,23.17822c-0.04102,1.53711,0.76953,3.68115,4.44922,3.68115
		c1.57812,0,2.75195-0.2832,3.56055-1.29443c0.4043-0.52588,0.64648-1.21338,0.64648-1.90137
		c0-1.98193-1.41602-2.34619-4.44922-3.03369c-4.24805-0.9707-7.80664-1.82031-7.80664-6.06738
		c0-3.72168,3.23633-6.14893,7.92773-6.14893c2.54883,0,6.10938,0.72852,7.32227,3.15527
		c0.52539,1.13281,0.52539,2.10352,0.52539,2.95312h-3.88281c0.12109-3.07422-2.54883-3.31689-3.92383-3.31689
		c-0.56641,0-4.12695,0-4.12695,2.91211c0,1.86084,1.82031,2.30566,2.87305,2.58887c5.62305,1.33496,6.83594,1.65869,8.04883,2.7915
		c1.13281,1.05127,1.53711,2.46729,1.53711,3.76172c0,2.26514-1.25391,4.20703-2.75,5.13721
		c-1.7793,1.09229-3.92383,1.37549-6.02734,1.37549c-4.125,0-7.96875-1.69922-7.92773-6.59375H401.5376z"/>
</g>
<g>
	<path style="&st0;" d="M451.34229,23.19629l-2.3457,6.11035h-0.52734l-4.30859-10.21777h1.98242l2.58984,6.31299h0.08203
		l2.30664-6.41406h0.52539l2.42773,6.41406h0.08008l2.46875-6.31299h1.98438l-4.31055,10.21777h-0.52539l-2.26758-6.11035H451.34229
		z"/>
	<path style="&st0;" d="M466.73682,25.13867l3.29688,3.80371v0.26318h-2.10352l-3.23633-3.88477h-1.17383v3.88477h-1.86133v-10.1167
		h3.9043c2.08398,0,3.56055,1.25439,3.56055,3.0957C469.12354,23.74268,468.27393,24.79492,466.73682,25.13867z M465.48291,20.58643
		h-1.96289v3.25732h1.92188c1.11328,0,1.78125-0.60693,1.78125-1.6792S466.49463,20.58643,465.48291,20.58643z"/>
	<path style="&st0;" d="M477.8833,29.40771c-3.05469,0-5.42188-2.24561-5.42188-5.13916c0-3.25732,2.56836-5.38184,5.42188-5.38184
		c2.79297,0,5.38281,2.06396,5.38281,5.38184C483.26611,26.95947,480.99854,29.40771,477.8833,29.40771z M477.86377,20.56592
		c-1.82227,0-3.50195,1.29492-3.50195,3.66211c0,1.80078,1.27539,3.50049,3.5625,3.50049c2.08398,0,3.43945-1.69971,3.43945-3.50049
		C481.36377,22.06348,479.78564,20.56592,477.86377,20.56592z"/>
	<path style="&st0;" d="M494.06494,25.66455h0.16211v-6.57568h1.86133v10.21777h-0.60547l-6.75781-6.65674h-0.16211v6.55566
		h-1.86133V18.98779h0.60547L494.06494,25.66455z"/>
	<path style="&st0;" d="M509.09619,28.17383c-0.92969,0.70801-2.54883,1.23389-4.12695,1.23389
		c-3.19727,0-5.42188-2.30664-5.42188-5.13916c0-3.37891,2.65039-5.38184,5.46289-5.38184c1.51758,0,2.85156,0.58691,3.5,1.07227
		l-0.54688,1.6792c-0.42383-0.30322-1.51758-1.09229-2.99414-1.07227c-1.74023,0.02051-3.54102,1.09277-3.54102,3.66211
		c0,2.04395,1.51758,3.50049,3.58203,3.50049c0.84961,0,1.6582-0.18213,2.18359-0.52588v-2.06396h-2.56836v-1.59814h4.4707V28.17383
		z"/>
</g>
<g>
	<path style="&st0;" d="M0,52.01611h9.78906c3.56006,0,5.98682,0.20312,7.96924,2.34668
		c1.45605,1.49609,2.14355,3.47852,2.14355,5.66309c0,2.22461-0.72803,4.12598-2.30566,5.70312
		c-1.53711,1.53711-3.55957,2.50879-8.81836,2.50879H4.04541v12.98438H0V52.01611z M4.04541,64.83936h4.81348
		c2.66992,0,6.75537-0.20215,6.75537-4.97559c0-4.57031-3.80225-4.57031-5.90576-4.57031H4.04541V64.83936z"/>
	<path style="&st0;" d="M24.80029,52.05713h3.80225v29.16504h-3.80225V52.05713z"/>
	<path style="&st0;" d="M38.27197,71.75635c-0.08057,4.20703,1.65869,7.32227,5.8252,7.32227
		c2.46729,0,4.44971-1.29492,4.77295-4.20703h3.80273c-0.12158,1.01074-0.2832,2.66992-1.73975,4.24707
		c-0.88965,1.01172-2.91211,2.70996-6.99805,2.70996c-6.39111,0-9.4248-3.96387-9.4248-10.39551
		c0-4.00488,0.80908-7.32129,4.00439-9.54688c1.94189-1.375,4.36914-1.49609,5.54199-1.49609
		c9.10156,0,8.89941,8.0498,8.81836,11.36621H38.27197z M48.9917,69.08643c0.04053-1.94141-0.32373-5.98633-5.01611-5.98633
		c-2.46729,0-5.46094,1.49707-5.5415,5.98633H48.9917z"/>
	<path style="&st0;" d="M70.83887,81.22217c-0.28271-1.01172-0.36377-1.98242-0.36377-3.03418
		c-1.82031,3.35742-4.5708,3.68164-6.27002,3.68164c-4.65186,0-7.15967-2.62988-7.15967-5.9873
		c0-1.61816,0.56641-4.20703,3.55957-5.94629c2.18457-1.21289,5.42041-1.33496,7.03857-1.33496
		c0.9707,0,1.57764,0.04102,2.75049,0.12207c0-2.50879,0-3.60059-0.72803-4.49023c-0.76855-1.01172-2.42725-1.33496-3.51904-1.33496
		c-3.84326,0-4.04541,2.62891-4.08594,3.43848h-3.80225c0.12158-1.05176,0.24268-2.46777,1.41602-3.84277
		c1.53711-1.69922,4.40918-2.18457,6.55273-2.18457c2.95312,0,6.1084,0.93066,7.2002,2.99316
		c0.64746,1.21387,0.68799,2.18457,0.68799,3.11523l-0.16211,9.70801c0,0.32324,0.04053,3.0332,0.32373,5.09668H70.83887z
		 M68.20996,71.23096c-1.53711,0-7.32178,0-7.32178,4.12598c0,1.29395,0.80908,3.51953,4.20703,3.51953
		c1.94141,0,3.39795-0.76855,4.32812-2.18457c0.84961-1.37598,0.88965-2.50781,0.9707-5.33984
		C69.70654,71.271,69.14014,71.23096,68.20996,71.23096z"/>
	<path style="&st0;" d="M83.13965,75.19482c-0.04053,1.53711,0.76855,3.68164,4.44971,3.68164
		c1.57764,0,2.75049-0.2832,3.55957-1.29492c0.4043-0.52539,0.64697-1.21387,0.64697-1.90137
		c0-1.98145-1.41553-2.3457-4.44922-3.0332c-4.24756-0.97168-7.80713-1.82031-7.80713-6.06836
		c0-3.72168,3.23584-6.14844,7.92822-6.14844c2.54834,0,6.1084,0.72852,7.32178,3.15527
		c0.52588,1.13281,0.52588,2.10352,0.52588,2.95312h-3.8833c0.12109-3.07422-2.54834-3.31738-3.92383-3.31738
		c-0.56641,0-4.12598,0-4.12598,2.91309c0,1.86035,1.82031,2.30566,2.87207,2.58887c5.62256,1.33496,6.83594,1.6582,8.0498,2.79102
		c1.13232,1.05176,1.53711,2.4668,1.53711,3.76172c0,2.26562-1.25391,4.20703-2.75098,5.1377
		c-1.77979,1.0918-3.92334,1.375-6.02686,1.375c-4.12598,0-7.96924-1.69922-7.92871-6.59375H83.13965z"/>
	<path style="&st0;" d="M103.48926,71.75635c-0.08057,4.20703,1.65869,7.32227,5.8252,7.32227
		c2.46729,0,4.44971-1.29492,4.77295-4.20703h3.80273c-0.12158,1.01074-0.2832,2.66992-1.73975,4.24707
		c-0.88965,1.01172-2.91211,2.70996-6.99805,2.70996c-6.39111,0-9.4248-3.96387-9.4248-10.39551
		c0-4.00488,0.80908-7.32129,4.00439-9.54688c1.94189-1.375,4.36914-1.49609,5.54199-1.49609
		c9.10156,0,8.89941,8.0498,8.81836,11.36621H103.48926z M114.20898,69.08643c0.04053-1.94141-0.32373-5.98633-5.01611-5.98633
		c-2.46729,0-5.46094,1.49707-5.5415,5.98633H114.20898z"/>
</g>
<g>
	<path style="&st0;" d="M138.80908,72.5249c0,1.33496,0,5.46094,4.1665,5.46094c1.49658,0,2.99365-0.56641,3.55957-2.83105h5.46094
		c-0.08057,0.9707-0.2832,2.70996-1.94141,4.44922c-1.49658,1.57812-4.1665,2.38672-7.16016,2.38672
		c-1.73926,0-5.05615-0.32324-7.2002-2.54883c-1.86084-1.94141-2.62939-4.69238-2.62939-7.96875
		c0-3.31641,0.80908-7.28125,4.24756-9.66699c1.57764-1.05176,3.51904-1.69922,5.74414-1.69922
		c2.9126,0,6.39111,1.13281,8.25195,4.93457c1.37549,2.79102,1.29443,5.78516,1.21338,7.4834H138.80908z M146.41406,68.76318
		c0-0.93066-0.08105-4.57129-3.55957-4.57129c-2.62939,0-3.72168,2.18457-3.84326,4.57129H146.41406z"/>
	<path style="&st0;" d="M156.61084,64.63721c0-1.29395-0.08057-2.54883-0.20215-3.84277h5.78467l0.20215,2.62891
		c0.64746-0.88965,2.22461-3.07422,6.31055-3.07422c4.69238,0,6.02686,2.87207,6.43164,3.84277
		c1.69873-3.27637,4.44971-3.80176,6.55273-3.80176c4.12646,0,5.78467,2.4668,6.22949,3.27637
		c1.09229,1.7793,1.01172,4.24707,1.01172,6.02734v11.52832h-6.02734V69.2085c0-2.18457-0.32373-4.61133-3.43848-4.61133
		c-3.6001,0-3.68115,3.35742-3.68115,6.39062v10.23438h-6.02686V69.08643c0-1.57715-0.04053-4.48926-3.35742-4.48926
		c-3.76221,0-3.76221,3.23535-3.76221,4.61133v12.01367h-6.02734V64.63721z"/>
	<path style="&st0;" d="M200.30371,60.79443l0.16211,2.91211c1.86035-3.27637,5.2583-3.31641,6.229-3.31641
		c5.29932,0,8.49512,3.96387,8.49512,10.19336c0,5.78418-2.99365,10.92188-8.89941,10.92188
		c-3.68115,0-5.17773-1.94141-5.70361-2.62891v10.19336H194.479V60.79443H200.30371z M209.12207,70.82666
		c0-2.42773-0.60693-6.59375-4.12598-6.59375c-1.94141,0-4.69238,1.45605-4.69238,6.95703c0,1.21387,0.04053,6.3916,4.44971,6.3916
		C207.58496,77.58154,209.12207,74.87158,209.12207,70.82666z"/>
	<path style="&st0;" d="M219.56201,52.01611h5.94629v11.56934c0.68799-0.9707,2.18457-3.07422,5.90576-3.07422
		c3.03418,0,4.97559,1.49707,5.94629,2.75098c0.72852,1.01074,1.33496,2.87207,1.33496,5.54102v12.41895h-5.94629V69.00635
		c0-1.17383,0-4.4502-3.35742-4.4502c-1.69873,0-3.84277,0.9707-3.84277,4.16699l0.04053,12.49902h-6.02734V52.01611z"/>
	<path style="&st0;" d="M256.37549,81.22217c-0.20117-1.25391-0.20117-2.18457-0.20117-2.79102
		c-2.26562,3.27637-4.97656,3.27637-6.10938,3.27637c-2.95117,0-4.28711-0.84961-5.0957-1.61816
		c-1.21289-1.21289-1.7793-2.87207-1.7793-4.49023s0.56641-4.61133,4.32812-6.35059
		c2.50781-1.13281,6.10742-1.13281,8.08984-1.13281c0-1.33496-0.04102-1.98145-0.2832-2.70996
		c-0.52539-1.49707-2.10352-1.69922-2.66992-1.69922c-0.84961,0-1.74023,0.36426-2.26562,1.13281
		c-0.44531,0.6875-0.44531,1.33496-0.44531,1.82031h-5.86523c0.04102-1.0918,0.16211-3.27637,2.30664-4.81348
		c1.85938-1.33496,4.24609-1.6582,6.18945-1.6582c1.69727,0,5.25781,0.2832,7.28125,2.62891
		c1.375,1.6582,1.41406,4.08594,1.41406,5.01562l0.04102,8.21191c0,1.73926,0.12109,3.47852,0.48633,5.17773H256.37549z
		 M249.01416,74.91162c0,1.37598,0.92969,2.91309,2.91211,2.91309c1.0918,0,1.98242-0.52637,2.54883-1.17383
		c1.05078-1.29395,1.13281-2.87207,1.13281-5.05566C251.76416,71.271,249.01416,72.48486,249.01416,74.91162z"/>
	<path style="&st0;" d="M270.77979,75.31592c0.08203,1.29492,0.89062,2.79199,3.39844,2.79199
		c2.14453,0,3.1543-1.21387,3.1543-2.42773c0-0.93066-0.48438-1.6582-2.83008-2.30566l-3.72266-1.01074
		c-1.6582-0.48535-5.17773-1.49707-5.17773-5.66309c0-3.96484,3.64062-6.3916,8.93945-6.3916
		c4.20703,0,7.60547,1.94141,7.76758,6.02734h-5.46094c-0.16211-2.26562-1.98242-2.42773-2.91211-2.42773
		c-1.61914,0-2.83203,0.76855-2.83203,2.02344c0,1.375,1.01172,1.6582,2.79102,2.14355l3.68164,1.01074
		c3.7207,1.01172,5.46094,2.91309,5.46094,5.7041c0,3.51953-3.03516,7.03809-9.38477,7.03809
		c-2.63086,0-5.13867-0.56641-6.99805-2.50781c-1.33594-1.41602-1.45703-3.0332-1.49805-4.00488H270.77979z"/>
	<path style="&st0;" d="M286.63916,52.01611h6.39258v5.21875h-6.39258V52.01611z M286.84229,60.75439h5.98633v20.46777h-5.98633
		V60.75439z"/>
	<path style="&st0;" d="M296.75635,75.96338l10.35547-11.16406H297.0376v-4.00488h16.74805v5.1377l-10.35547,11.16406h10.75977
		v4.12598h-17.43359V75.96338z"/>
	<path style="&st0;" d="M322.36377,72.5249c0,1.33496,0,5.46094,4.16602,5.46094c1.49805,0,2.99414-0.56641,3.56055-2.83105h5.46094
		c-0.08203,0.9707-0.2832,2.70996-1.94141,4.44922c-1.49805,1.57812-4.16797,2.38672-7.16016,2.38672
		c-1.74023,0-5.05664-0.32324-7.20117-2.54883c-1.85938-1.94141-2.62891-4.69238-2.62891-7.96875
		c0-3.31641,0.80859-7.28125,4.24805-9.66699c1.57617-1.05176,3.51953-1.69922,5.74414-1.69922
		c2.91211,0,6.39062,1.13281,8.25195,4.93457c1.375,2.79102,1.29297,5.78516,1.21289,7.4834H322.36377z M329.96924,68.76318
		c0-0.93066-0.08203-4.57129-3.56055-4.57129c-2.62891,0-3.7207,2.18457-3.8418,4.57129H329.96924z"/>
</g>
<g>
	<path style="&st0;" d="M349.06885,60.83447h3.59961V56.5874l3.76172-1.21387v5.46094h4.53125v2.79102h-4.53125v12.17578
		c0,1.01172,0,2.71094,2.71094,2.71094c0.76758,0,1.49609-0.12207,1.82031-0.20215v2.95215
		c-0.6875,0.12207-1.78125,0.24316-3.15625,0.24316c-3.47852,0-5.13672-1.01172-5.13672-4.32812V63.62549h-3.59961V60.83447z"/>
	<path style="&st0;" d="M365.65479,52.05713h3.8418v11.85156c1.25391-2.14355,3.76172-3.35742,6.59375-3.35742
		c2.14453,0,5.21875,0.76855,6.39258,3.23633c0.4043,0.80957,0.6875,1.78027,0.6875,4.7334v12.70117h-3.88477V69.2085
		c0-1.82031,0-5.74414-4.36719-5.74414c-2.83203,0-4.24805,1.73926-4.77344,2.70996
		c-0.64844,1.13281-0.64844,3.03418-0.64844,4.28809v10.75977h-3.8418V52.05713z"/>
	<path style="&st0;" d="M390.01025,52.09717h4.57031v4.16699h-4.57031V52.09717z M390.41455,60.91553h3.80273v20.30664h-3.80273
		V60.91553z"/>
	<path style="&st0;" d="M403.80518,75.19482c-0.04102,1.53711,0.76953,3.68164,4.44922,3.68164
		c1.57812,0,2.75195-0.2832,3.56055-1.29492c0.4043-0.52539,0.64648-1.21387,0.64648-1.90137
		c0-1.98145-1.41602-2.3457-4.44922-3.0332c-4.24805-0.97168-7.80664-1.82031-7.80664-6.06836
		c0-3.72168,3.23633-6.14844,7.92773-6.14844c2.54883,0,6.10938,0.72852,7.32227,3.15527
		c0.52539,1.13281,0.52539,2.10352,0.52539,2.95312h-3.88281c0.12109-3.07422-2.54883-3.31738-3.92383-3.31738
		c-0.56641,0-4.12695,0-4.12695,2.91309c0,1.86035,1.82031,2.30566,2.87305,2.58887c5.62305,1.33496,6.83594,1.6582,8.04883,2.79102
		c1.13281,1.05176,1.53711,2.4668,1.53711,3.76172c0,2.26562-1.25391,4.20703-2.75,5.1377
		c-1.7793,1.0918-3.92383,1.375-6.02734,1.375c-4.125,0-7.96875-1.69922-7.92773-6.59375H403.80518z"/>
</g>
<g>
	<path style="&st0;" d="M450.35205,77.15576l3.29688,3.80371v0.2627h-2.10352l-3.23633-3.88477h-1.17383v3.88477h-1.86133V71.10596
		h3.9043c2.08398,0,3.56055,1.25391,3.56055,3.0957C452.73877,75.75928,451.88916,76.81104,450.35205,77.15576z M449.09814,72.60303
		h-1.96289v3.25781h1.92188c1.11328,0,1.78125-0.60742,1.78125-1.67969S450.10986,72.60303,449.09814,72.60303z"/>
	<path style="&st0;" d="M458.98877,81.22217h-1.86133V71.10596h1.86133V81.22217z"/>
	<path style="&st0;" d="M472.30127,80.18994c-0.93164,0.70801-2.55078,1.23438-4.12891,1.23438
		c-3.19531,0-5.42188-2.30664-5.42188-5.13867c0-3.37891,2.65039-5.38281,5.46289-5.38281c1.51758,0,2.85352,0.58691,3.5,1.07324
		l-0.54492,1.67871c-0.42578-0.30371-1.51758-1.09277-2.99609-1.07227c-1.73828,0.02051-3.53906,1.09277-3.53906,3.66211
		c0,2.04395,1.51562,3.50098,3.58008,3.50098c0.84961,0,1.66016-0.18262,2.18555-0.52637v-2.06348h-2.57031v-1.59863h4.47266
		V80.18994z"/>
	<path style="&st0;" d="M484.78174,81.22217h-1.86133v-4.35059h-4.85547v4.35059h-1.86133V71.10596h1.86133v4.16797h4.85547
		v-4.16797h1.86133V81.22217z"/>
	<path style="&st0;" d="M493.53955,72.70361v8.51855h-1.86133v-8.51855h-3.43945v-1.59766h8.78125v1.59766H493.53955z"/>
</g>
</svg>
