<?xml version="1.0" encoding="utf-8"?>
<!-- Generator: Adobe Illustrator 15.1.0, SVG Export Plug-In . SVG Version: 6.00 Build 0)  -->
<!DOCTYPE svg PUBLIC "-//W3C//DTD SVG 1.1//EN" "http://www.w3.org/Graphics/SVG/1.1/DTD/svg11.dtd">
<svg version="1.1" id="Layer_1" xmlns="http://www.w3.org/2000/svg" xmlns:xlink="http://www.w3.org/1999/xlink" x="0px" y="0px"
	 width="69.422px" height="97.634px" viewBox="5.519 6.999 69.422 97.634" enable-background="new 5.519 6.999 69.422 97.634"
	 xml:space="preserve">
<g>
	<path d="M46.34,55.881c0,5.331,5.59,8.451,15.601,13.391c6.89,3.38,13,8.06,13,17.68c0,11.57-8.58,17.682-18.461,17.682
		c-5.72,0-11.83-2.211-14.69-3.25l-1.95,1.689h-2.99V84.222h3.641c2.6,9.23,7.28,15.73,16.251,15.73c5.46,0,8.97-3.771,8.97-9.36
		c0-5.33-4.81-10.271-11.83-13.521C42.57,71.872,37.11,67.841,37.11,59c0-12.48,15.73-15.86,15.73-31.851
		c0-10.01-6.761-13.911-12.61-13.911c-9.75,0-15.601,9.88-15.601,21.581v68.252H6.298v-3.9l7.8-1.949V50.291h-8.58v-3.77l8.58-5.33
		V35.6c0-15.34,11.96-28.601,26.521-28.601c15.081,0,23.921,10.141,23.921,19.891C64.541,38.331,46.34,44.181,46.34,55.881z"/>
</g>
</svg>
