<?xml version="1.0" encoding="utf-8"?>
<!-- Generator: Adobe Illustrator 15.1.0, SVG Export Plug-In . SVG Version: 6.00 Build 0)  -->
<!DOCTYPE svg PUBLIC "-//W3C//DTD SVG 1.1//EN" "http://www.w3.org/Graphics/SVG/1.1/DTD/svg11.dtd" [
	<!ENTITY st0 "fill:none;stroke:#555;stroke-width:0.25;stroke-miterlimit:25.57;">
]>
<svg version="1.1" id="Layer_1" xmlns="http://www.w3.org/2000/svg" xmlns:xlink="http://www.w3.org/1999/xlink" x="0px" y="0px"
	 width="283.70557px" height="273.57617px" viewBox="0 0 283.70557 273.57617"
	 style="enable-background:new 0 0 283.70557 273.57617;" xml:space="preserve">

<style type="text/css">
path:hover {
    background: red;
}
</style>
<path style="&st0;" d="M188.6001,199.82617c-12.34961,21.47852-52.08545,44.56836-87.52539,48.86426
	c-23.62646-4.83301-37.5874-17.18262-37.5874-40.27246c0-9.12793,2.68506-19.33105,6.44336-29.5332
	c33.29199-27.92188,86.45166-37.05078,129.40869-32.21777L188.6001,199.82617z M221.35596,258.35547
	c-11.27637-9.12793-15.03516-28.99609-11.27637-50.47461l18.79395-107.39355c8.59082-48.32666-20.94141-82.69287-67.6582-82.69287
	c-31.68066,0-63.89893,18.79395-82.15576,32.75537l8.05371,16.64551c26.84912-19.33057,50.4751-29.53271,73.56494-29.53271
	c33.29199,0,54.2334,24.7002,46.7168,64.43604l-4.83398,26.31055c-53.16016-4.83301-111.68848,8.5918-149.81348,38.66211
	c-7.51709,15.03516-10.20215,30.60742-10.20215,44.56836c0,28.45898,16.646,51.01172,54.771,57.99219
	c33.8291-4.29492,73.56396-26.31152,90.74658-46.17969h1.61133c-0.53711,17.18359,3.22266,37.05176,13.96094,46.17969
	l17.7207-10.20215V258.35547z"/>
<path style="&st0;" d="M184.3042,198.7627c-16.64551,18.25586-48.86377,37.58691-76.24902,40.80859
	c-22.55176-3.75879-34.90283-17.18262-34.90283-36.51367c0-6.44336,1.61084-13.42383,3.75879-19.86719
	c24.16406-23.62695,73.02881-34.90234,114.91162-31.68164L184.3042,198.7627z M225.11377,256.75488
	c-6.98047-8.59082-11.8125-26.31152-9.12695-43.49414l18.79297-109.00488c9.12891-51.54834-23.08984-87.52539-73.02734-87.52539
	c-33.29199,0-63.3623,15.03516-86.98926,31.68115l12.88721,26.84814c24.70068-17.18311,49.40088-26.84814,69.26904-26.84814
	c28.45898,0,48.86426,18.79443,42.95801,53.69678l-3.75977,20.94141c-53.69629-3.22168-110.07764,10.20312-150.35059,45.6416
	c-5.90674,12.88867-8.59082,25.77539-8.59082,38.66211c0,30.07031,27.92188,60.14062,64.43604,63.3623
	c33.29199-4.2959,65.50928-25.77441,80.54443-40.80957h2.68457c-1.61035,19.86719,2.68457,32.75586,6.98145,40.80957
	l33.29102-11.81348V256.75488z"/>
<path style="&st0;" d="M182.15674,194.47656c-16.64648,19.33008-44.56787,34.90234-71.9541,38.66113
	c-20.94092-4.29492-28.99561-20.40332-27.92188-36.51367c0-3.75781,1.07422-8.05371,2.14795-11.81348
	c25.77393-28.45898,68.19482-34.90234,105.24561-29.53223L182.15674,194.47656z M231.55811,253.54297
	c-8.05566-10.73926-10.73926-30.07031-8.59082-42.95703l14.49805-92.89648c9.66406-61.21338-24.16406-102.02246-75.17578-102.02246
	c-34.3667,0-67.12158,13.96094-92.89551,35.43896l15.57178,31.68213h1.61084c14.49805-13.4248,44.56836-27.92334,65.50977-27.92334
	c34.36621,0,47.25391,21.479,41.34668,67.12158c-48.86426-7.51758-113.8374,10.20117-147.66602,47.25293
	c-4.83203,13.96094-6.98047,26.84863-6.98047,38.125c0,35.43945,27.38525,61.21387,61.75146,64.43555
	c30.60693-4.83301,60.14014-21.47852,78.39697-40.80957h2.14746c-0.53711,13.96191,4.29688,29.5332,8.05469,37.58789
	l40.80957-11.81348L231.55811,253.54297z"/>
<path style="&st0;" d="M163.36377,193.9502c-8.05566,7.5166-30.60742,18.25684-44.56836,19.33105
	c-15.57324-3.75977-25.23828-15.03613-23.62695-32.21973c15.03467-17.71875,49.93799-27.92188,74.6377-24.16309L163.36377,193.9502z
	 M241.22314,237.98047C232.09521,231,227.26221,214.35352,231.021,194.4873l18.79395-98.26562
	C260.01709,42.5249,218.1333,12.9917,167.65869,12.9917c-38.12451,0-81.08252,15.03516-109.5415,36.51416l22.55322,49.40137
	c26.84766-17.18359,49.93799-27.92285,68.73242-27.92285c17.18262,0,34.36523,8.5918,30.06934,30.06934l-2.68457,12.8877
	c-58.5293-2.14746-119.74414,22.01562-147.6665,63.89941c-7.51807,56.38086,26.84814,90.20996,65.51025,94.50586
	c20.94189-3.22168,50.4751-17.71973,71.9541-35.43945h2.68359c1.61133,15.57129,6.44434,28.99609,23.09082,36.51367
	l48.86328-30.60742V237.98047z"/>
<path style="&st0;" d="M159.604,182.14648c-6.98145,9.12793-23.62744,18.25684-37.58838,19.86719
	c-12.88721-1.61035-19.86816-15.57227-13.96094-30.60742c9.66504-11.27539,33.8291-20.40332,55.84424-17.18262L159.604,182.14648z
	 M254.10986,241.75c-9.66504-6.98145-11.81348-24.16406-8.5918-41.34668l16.10938-91.28418
	C273.44092,40.38672,232.63135,4.94775,167.12061,4.94775c-40.27197,0-90.20996,16.10889-118.66895,35.43896l19.86719,61.75195
	c24.16357-15.57227,53.15967-24.16406,74.10156-24.16406c17.18359,0,31.14453,5.37012,28.99609,21.47949l-1.61133,10.73828
	c-51.01172,0.53711-115.44775,22.0166-146.59131,54.23438c-4.29639,12.34961-7.51709,25.2373-7.51709,40.27148
	c0,39.19922,22.55176,61.75098,57.45508,67.12109c35.43994-3.22168,73.02783-23.62598,92.3584-41.3457h2.68457
	c1.07324,16.64648,8.5918,35.43945,21.47949,41.3457l64.43555-26.84766V241.75z"/>
<path style="&st0;" d="M157.99268,184.84082c-6.44336,6.44434-18.25635,12.35059-31.14355,13.4248
	c-14.49805-3.22168-19.33105-16.64551-14.49805-30.07129c10.20215-9.66504,33.29199-15.03418,48.32715-12.88672L157.99268,184.84082
	z M272.3667,239.0752c-9.12793-5.37012-9.12793-25.2373-5.90723-43.49414l15.03613-82.15625
	C294.92041,37.1748,241.76025,0.125,172.49072,0.125c-59.60254,0-114.37354,19.33057-144.98047,34.90283l22.55273,68.73096
	c25.2373-12.88672,57.99219-23.08887,82.15625-23.08887c18.79297,0,35.97656,2.14746,33.29199,20.94043l-1.07422,6.98145
	c-50.47461,0.53711-117.05908,17.18262-157.33203,49.9375C2.27295,171.41699,0.125,184.84082,0.125,198.26562
	c0,34.36523,23.62598,65.50879,72.49023,74.10156c33.8291-4.29688,70.87988-19.33105,91.28467-35.44043h2.68457
	c0,11.81348,9.12891,31.14355,19.33008,36.51367l86.45215-29.53223V239.0752z"/>
</svg>
