<?xml version="1.0" encoding="utf-8"?>
<!-- Generator: Adobe Illustrator 15.1.0, SVG Export Plug-In . SVG Version: 6.00 Build 0)  -->
<!DOCTYPE svg PUBLIC "-//W3C//DTD SVG 1.1//EN" "http://www.w3.org/Graphics/SVG/1.1/DTD/svg11.dtd">
<svg version="1.1"
	 id="Layer_1" image-rendering="auto" shape-rendering="auto" color-rendering="auto" color-interpolation="auto" text-rendering="auto"
	 xmlns="http://www.w3.org/2000/svg" xmlns:xlink="http://www.w3.org/1999/xlink" x="0px" y="0px" width="133.03125px"
	 height="215.15625px" viewBox="13.21875 170.71875 133.03125 215.15625"
	 style="enable-background:new 13.21875 170.71875 133.03125 215.15625;" xml:space="preserve">
<g>
	<g>
		<path d="M95.625,180.84375c16.03125,2.625,28.47656,8.55469,37.33594,17.78906S146.25,219.09375,146.25,232.3125
			c0,8.90625-2.03906,17.29688-6.11719,25.17188s-12.39844,17.0625-24.96094,27.5625
			c-7.78125,6.46875-13.28906,11.53125-16.52344,15.1875s-5.60156,8.03906-7.10156,13.14844s-2.34375,12.39844-2.53125,21.86719
			H70.3125v-23.48438l-6.04688-86.34375v-22.07812c-13.21875,5.625-21.5625,18.5625-25.03125,38.8125l-26.01562-2.8125
			c1.6875-15.28125,6.82031-28.10156,15.39844-38.46094S49.07812,183.9375,64.26562,181.125v-10.40625H95.625V180.84375z
			 M92.10938,276.46875l14.20312-13.92188c4.6875-4.59375,8.20312-9.14062,10.54688-13.64062s3.51562-9.42188,3.51562-14.76562
			c0-7.03125-2.17969-13.38281-6.53906-19.05469s-10.42969-9.82031-18.21094-12.44531v22.78125L92.10938,276.46875z
			 M94.21875,385.875H65.39062v-28.82812h28.82812V385.875z"/>
	</g>
</g>
</svg>
