<?xml version="1.0" encoding="utf-8"?>
<!-- Generator: Adobe Illustrator 15.1.0, SVG Export Plug-In . SVG Version: 6.00 Build 0)  -->
<!DOCTYPE svg PUBLIC "-//W3C//DTD SVG 1.1//EN" "http://www.w3.org/Graphics/SVG/1.1/DTD/svg11.dtd" [
	<!ENTITY st0 "fill:#231F20;">
]>
<svg version="1.1" id="Layer_1" xmlns="http://www.w3.org/2000/svg" xmlns:xlink="http://www.w3.org/1999/xlink" x="0px" y="0px"
	 width="508.77979px" height="99.51172px" viewBox="0 0 508.77979 99.51172" style="enable-background:new 0 0 508.77979 99.51172;"
	 xml:space="preserve">
<g>
	<path style="&st0;" d="M34.00244,0l2.43652,10.16895h-2.06543l-5.34961-7.8916h-8.26221v32.46582l4.97852,0.79492v1.85352h-15.0415
		v-1.85352l4.97852-0.79492V2.27734H7.41504l-5.34912,7.8916H0L2.43652,0H34.00244z"/>
	<path style="&st0;" d="M70.1709,9.47949c8.05078,0,13.98242,5.40234,13.98242,14.35352
		c0,9.37402-6.35547,14.24707-13.98242,14.24707c-7.73242,0-14.08789-5.08398-14.08789-14.24707
		C56.08301,15.04102,62.43848,9.47949,70.1709,9.47949z M70.1709,35.48535c4.71387,0,8.73926-3.17871,8.73926-11.70508
		c0-7.83887-3.8667-11.91699-8.73926-11.91699c-4.7666,0-8.7915,4.13086-8.7915,11.91699
		C61.37939,31.35352,65.4043,35.48535,70.1709,35.48535z"/>
	<path style="&st0;" d="M137.27002,9.95703v1.74707l-3.33643,1.32422v13.71777c0,5.03125-3.28369,11.33398-11.38721,11.33398
		c-6.93799,0-10.85742-5.34961-10.85742-10.11621V12.49902l-3.91943-0.79492V9.95703h12.49951v1.74707l-3.86621,0.79492v14.8291
		c0,4.44922,2.48926,7.8916,7.04395,7.8916c4.396,0,7.78564-3.07129,7.78564-9.21484V13.02832l-4.396-1.32422V9.95703H137.27002z"/>
	<path style="&st0;" d="M160.78076,37.3916v-1.74805l3.91895-0.79395V12.49902l-3.91895-0.79492V9.95703h12.71094v1.74707
		l-4.07812,0.79492v22.5625h8.73926l3.54834-5.40234h2.0127l-1.1123,7.73242H160.78076z"/>
	<path style="&st0;" d="M220.94189,9.47949c8.05078,0,13.98242,5.40234,13.98242,14.35352
		c0,9.37402-6.35547,14.24707-13.98242,14.24707c-7.73242,0-14.08789-5.08398-14.08789-14.24707
		C206.854,15.04102,213.20947,9.47949,220.94189,9.47949z M220.94189,35.48535c4.71387,0,8.73926-3.17871,8.73926-11.70508
		c0-7.83887-3.86621-11.91699-8.73926-11.91699c-4.7666,0-8.7915,4.13086-8.7915,11.91699
		C212.15039,31.35352,216.17529,35.48535,220.94189,35.48535z"/>
	<path style="&st0;" d="M288.04102,9.95703v1.74707l-3.33643,1.32422v13.71777c0,5.03125-3.28369,11.33398-11.38721,11.33398
		c-6.93799,0-10.85742-5.34961-10.85742-10.11621V12.49902l-3.91943-0.79492V9.95703h12.49951v1.74707l-3.86621,0.79492v14.8291
		c0,4.44922,2.48926,7.8916,7.04395,7.8916c4.396,0,7.78564-3.07129,7.78564-9.21484V13.02832l-4.396-1.32422V9.95703H288.04102z"/>
	<path style="&st0;" d="M312.18701,28.17578h2.27734c1.05957,4.82031,3.49609,7.57422,7.09766,7.57422
		c2.96582,0,4.92578-1.90723,4.92578-4.50195c0-2.38379-1.05957-3.81348-6.09082-5.98535
		c-5.03223-2.1709-7.57422-4.44824-7.57422-8.10352c0-3.60059,3.01855-7.67969,8.4209-7.67969
		c2.38379,0,3.91992,0.79492,5.08496,1.27148l1.90625-0.79395h1.1123l0.95312,8.31445h-2.22363
		c-1.32422-4.39551-3.81348-6.4082-6.62109-6.4082c-2.64746,0-4.44824,1.4834-4.44824,4.18457
		c0,2.38281,1.95898,3.70703,6.72559,5.56055c4.50195,1.74805,6.93848,4.07812,6.93848,8.15625
		c0,5.50879-4.02539,8.31543-9.10938,8.31543c-1.85352,0-4.02539-0.68848-5.34961-1.58887l-2.27734,0.79492h-1.74805V28.17578z"/>
	<path style="&st0;" d="M375.47412,35.06152l3.07227-4.97852h2.0127l-1.1123,7.30859h-22.77441v-1.74805l3.91895-0.79395V12.49902
		l-3.91895-0.79492V9.95703h21.39746l0.68848,6.56738h-1.95996l-2.75391-4.2373h-8.73926v9.9043h5.61426l1.42969-3.17773h1.43066
		v8.84473h-1.43066l-1.42969-3.49609h-5.61426v10.69922H375.47412z"/>
</g>
<g>
	<path style="&st0;" d="M445.27783,30.78418l-2.58105,6.71875h-0.57812l-4.73828-11.23535h2.17969l2.84766,6.94141h0.08887
		l2.53613-7.05273h0.5791l2.66895,7.05273h0.08984l2.71387-6.94141h2.18066l-4.73926,11.23535h-0.57812l-2.49219-6.71875H445.27783z
		"/>
	<path style="&st0;" d="M462.20459,32.91992l3.62598,4.18262v0.28906h-2.31348l-3.55957-4.27148h-1.29004v4.27148h-2.04688V26.26758
		h4.29297c2.29199,0,3.91602,1.37988,3.91602,3.4043C464.82959,31.38477,463.89502,32.54199,462.20459,32.91992z
		 M460.82471,27.91406h-2.15723v3.58203h2.11328c1.22363,0,1.95703-0.66699,1.95703-1.84668
		C462.73779,28.4707,461.93701,27.91406,460.82471,27.91406z"/>
	<path style="&st0;" d="M474.45947,37.61426c-3.35938,0-5.96289-2.46973-5.96289-5.65137c0-3.58105,2.82617-5.91699,5.96289-5.91699
		c3.06934,0,5.91699,2.26855,5.91699,5.91699C480.37646,34.92188,477.88525,37.61426,474.45947,37.61426z M474.43701,27.8916
		c-2.00195,0-3.84863,1.42383-3.84863,4.02734c0,1.97949,1.40137,3.84863,3.91504,3.84863
		c2.29199,0,3.78223-1.86914,3.78223-3.84863C478.28564,29.53809,476.55029,27.8916,474.43701,27.8916z"/>
	<path style="&st0;" d="M492.25342,33.49805h0.17773v-7.23047h2.04688v11.23535h-0.66699l-7.43066-7.31934h-0.17773v7.20801
		h-2.04688V26.15625h0.66699L492.25342,33.49805z"/>
	<path style="&st0;" d="M508.77979,36.25684c-1.02344,0.77832-2.80273,1.35742-4.53809,1.35742
		c-3.51562,0-5.96289-2.53613-5.96289-5.65137c0-3.71484,2.91504-5.91699,6.00684-5.91699
		c1.66895,0,3.13672,0.64453,3.84863,1.17871l-0.60059,1.84668c-0.4668-0.33398-1.66797-1.20117-3.29199-1.17969
		c-1.91406,0.02246-3.89355,1.20215-3.89355,4.02734c0,2.24707,1.66895,3.84863,3.9375,3.84863
		c0.93457,0,1.82422-0.2002,2.40332-0.57812v-2.26953h-2.82617v-1.75781h4.91699V36.25684z"/>
</g>
<g>
	<path style="&st0;" d="M11.75781,82.4043V96.1748l5.24365,0.79492v1.85352H1.854v-1.85352l4.7666-0.79492V64.0791L1.854,63.28516
		v-1.85352h13.39941c6.14404,0,13.13525,2.91211,13.13525,10.64551c0,6.35547-5.03174,10.32715-13.3999,10.32715H11.75781z
		 M11.75781,79.96875h3.97266c3.97217,0,7.36182-2.91309,7.36182-7.57422c0-6.03809-3.07178-8.20898-7.83887-8.20898h-3.49561
		V79.96875z"/>
	<path style="&st0;" d="M49.19922,89.81934h-9.85107l-2.3833,5.93164l4.44873,1.32422v1.74805H31.0332V97.0752l3.12451-1.32422
		l9.85107-24.3623h2.96631l9.79785,24.89258l3.17822,0.79395v1.74805H47.98145V97.0752l3.76025-0.79395L49.19922,89.81934z
		 M40.24854,87.54199h8.10352l-3.76025-9.69238h-0.42383L40.24854,87.54199z"/>
	<path style="&st0;" d="M68.68604,89.60742h2.27734c1.05908,4.82031,3.49561,7.57422,7.09668,7.57422
		c2.96631,0,4.92578-1.90723,4.92578-4.50195c0-2.38379-1.05908-3.81348-6.09082-5.98535
		c-5.03125-2.1709-7.57373-4.44824-7.57373-8.10352c0-3.60059,3.01904-7.67969,8.42139-7.67969
		c2.3833,0,3.91895,0.79492,5.08447,1.27148l1.90674-0.79395h1.11182l0.95361,8.31445h-2.22461
		c-1.32422-4.39551-3.81348-6.4082-6.62012-6.4082c-2.64844,0-4.44922,1.4834-4.44922,4.18457
		c0,2.38281,1.95996,3.70703,6.72656,5.56055c4.50195,1.74805,6.93799,4.07812,6.93799,8.15625
		c0,5.50879-4.0249,8.31543-9.10986,8.31543c-1.85352,0-4.0249-0.68848-5.34912-1.58887l-2.27734,0.79492h-1.74756V89.60742z"/>
	<path style="&st0;" d="M146.37842,61.43164l2.43652,10.16895h-2.06543l-5.34961-7.8916h-8.26221V96.1748l4.97852,0.79492v1.85352
		h-15.0415v-1.85352l4.97852-0.79492V63.70898h-8.26221l-5.34912,7.8916h-2.06592l2.43652-10.16895H146.37842z"/>
	<path style="&st0;" d="M165.6001,70.91113c8.05078,0,13.98242,5.40234,13.98242,14.35352
		c0,9.37402-6.35547,14.24707-13.98242,14.24707c-7.73242,0-14.08789-5.08398-14.08789-14.24707
		C151.51221,76.47266,157.86768,70.91113,165.6001,70.91113z M165.6001,96.91699c4.71387,0,8.73926-3.17871,8.73926-11.70508
		c0-7.83887-3.86621-11.91699-8.73926-11.91699c-4.7666,0-8.7915,4.13086-8.7915,11.91699
		C156.80859,92.78516,160.8335,96.91699,165.6001,96.91699z"/>
	<path style="&st0;" d="M217.28809,71.38867v1.74707l-3.33643,1.32422v13.71777c0,5.03125-3.28369,11.33398-11.38721,11.33398
		c-6.93799,0-10.85742-5.34961-10.85742-10.11621V73.93066l-3.91943-0.79492v-1.74707h12.49951v1.74707l-3.86621,0.79492v14.8291
		c0,4.44922,2.48926,7.8916,7.04395,7.8916c4.396,0,7.78564-3.07129,7.78564-9.21484V74.45996l-4.396-1.32422v-1.74707H217.28809z"
		/>
	<path style="&st0;" d="M225.44092,98.82324V97.0752l3.91895-0.79395V73.93066l-3.91895-0.79492v-1.74707h12.71094v1.74707
		l-4.07812,0.79492v22.5625h8.73926l3.54834-5.40234h2.0127l-1.1123,7.73242H225.44092z"/>
	<path style="&st0;" d="M270.24463,70.91113c8.05078,0,13.98242,5.40234,13.98242,14.35352
		c0,9.37402-6.35547,14.24707-13.98242,14.24707c-7.73242,0-14.08789-5.08398-14.08789-14.24707
		C256.15674,76.47266,262.51221,70.91113,270.24463,70.91113z M270.24463,96.91699c4.71387,0,8.73926-3.17871,8.73926-11.70508
		c0-7.83887-3.86621-11.91699-8.73926-11.91699c-4.7666,0-8.7915,4.13086-8.7915,11.91699
		C261.45312,92.78516,265.47803,96.91699,270.24463,96.91699z"/>
	<path style="&st0;" d="M321.98584,71.38867v1.74707l-3.33691,1.32422v13.71777c0,5.03125-3.2832,11.33398-11.38672,11.33398
		c-6.93799,0-10.85742-5.34961-10.85742-10.11621V73.93066l-3.91943-0.79492v-1.74707h12.49951v1.74707l-3.86621,0.79492v14.8291
		c0,4.44922,2.48926,7.8916,7.04395,7.8916c4.39648,0,7.78613-3.07129,7.78613-9.21484V74.45996l-4.39648-1.32422v-1.74707
		H321.98584z"/>
	<path style="&st0;" d="M330.77393,89.60742h2.27734c1.05957,4.82031,3.49609,7.57422,7.09766,7.57422
		c2.96582,0,4.92578-1.90723,4.92578-4.50195c0-2.38379-1.05957-3.81348-6.09082-5.98535
		c-5.03223-2.1709-7.57422-4.44824-7.57422-8.10352c0-3.60059,3.01855-7.67969,8.4209-7.67969
		c2.38379,0,3.91992,0.79492,5.08496,1.27148l1.90625-0.79395h1.1123l0.95312,8.31445h-2.22363
		c-1.32422-4.39551-3.81348-6.4082-6.62109-6.4082c-2.64746,0-4.44824,1.4834-4.44824,4.18457
		c0,2.38281,1.95898,3.70703,6.72559,5.56055c4.50195,1.74805,6.93848,4.07812,6.93848,8.15625
		c0,5.50879-4.02539,8.31543-9.10938,8.31543c-1.85352,0-4.02539-0.68848-5.34961-1.58887l-2.27734,0.79492h-1.74805V89.60742z"/>
	<path style="&st0;" d="M378.70264,96.49316l3.07227-4.97852h2.0127l-1.1123,7.30859h-22.77441V97.0752l3.91895-0.79395V73.93066
		l-3.91895-0.79492v-1.74707h21.39746l0.68848,6.56738h-1.95996l-2.75391-4.2373h-8.73926v9.9043h5.61426l1.42969-3.17773h1.43066
		v8.84473h-1.43066l-1.42969-3.49609h-5.61426v10.69922H378.70264z"/>
</g>
<g>
	<path style="&st0;" d="M444.18799,94.35156l3.62598,4.18262v0.28906h-2.31348l-3.55957-4.27148h-1.29004v4.27148H438.604V87.69922
		h4.29297c2.29199,0,3.91602,1.37988,3.91602,3.4043C446.81299,92.81641,445.87842,93.97363,444.18799,94.35156z M442.80811,89.3457
		h-2.15723v3.58203h2.11328c1.22363,0,1.95801-0.66699,1.95801-1.84668C444.72217,89.90234,443.92041,89.3457,442.80811,89.3457z"/>
	<path style="&st0;" d="M453.68408,98.82324h-2.04688V87.69922h2.04688V98.82324z"/>
	<path style="&st0;" d="M468.32178,97.68848c-1.02344,0.77832-2.80273,1.35742-4.53809,1.35742
		c-3.51562,0-5.96289-2.53613-5.96289-5.65137c0-3.71484,2.91504-5.91699,6.00684-5.91699
		c1.66895,0,3.13672,0.64453,3.84863,1.17871l-0.60059,1.84668c-0.4668-0.33398-1.66797-1.20117-3.29199-1.17969
		c-1.91309,0.02246-3.89355,1.20215-3.89355,4.02734c0,2.24707,1.66895,3.84863,3.9375,3.84863
		c0.93457,0,1.82422-0.2002,2.40332-0.57812v-2.26953h-2.82617v-1.75781h4.91699V97.68848z"/>
	<path style="&st0;" d="M482.04443,98.82324h-2.04688v-4.7832h-5.33887v4.7832h-2.04688V87.69922h2.04688v4.58301h5.33887v-4.58301
		h2.04688V98.82324z"/>
	<path style="&st0;" d="M491.67432,89.45703v9.36621h-2.04688v-9.36621h-3.78223v-1.75781h9.65527v1.75781H491.67432z"/>
</g>
</svg>
