<?xml version="1.0" encoding="utf-8"?>
<!-- Generator: Adobe Illustrator 15.1.0, SVG Export Plug-In . SVG Version: 6.00 Build 0)  -->
<!DOCTYPE svg PUBLIC "-//W3C//DTD SVG 1.1//EN" "http://www.w3.org/Graphics/SVG/1.1/DTD/svg11.dtd" [
	<!ENTITY st0 "fill:none;stroke:#2E2113;stroke-width:2;stroke-linejoin:round;">
	<!ENTITY st1 "fill:none;stroke:#2E2113;stroke-linejoin:round;">
	<!ENTITY st2 "fill:#2E2113;">
	<!ENTITY st3 "fill:#ADAFB2;stroke:#2E2113;stroke-linejoin:round;">
	<!ENTITY st4 "fill:#D2DFE5;stroke:#2E2113;stroke-linejoin:round;">
	<!ENTITY st5 "fill:#C9CACC;stroke:#2E2113;stroke-linejoin:round;">
	<!ENTITY st6 "fill:#FFFFFF;stroke:#2E2113;stroke-linejoin:round;">
	<!ENTITY st7 "fill:#E0E1E2;stroke:#2E2113;stroke-linejoin:round;">
]>
<svg version="1.1"
	 id="infot" sodipodi:docname="metal_type.svg" xmlns:dc="http://purl.org/dc/elements/1.1/" xmlns:inkscape="http://www.inkscape.org/namespaces/inkscape" xmlns:sodipodi="http://inkscape.sourceforge.net/DTD/sodipodi-0.dtd" xmlns:svg="http://www.w3.org/2000/svg" xmlns:rdf="http://www.w3.org/1999/02/22-rdf-syntax-ns#" sodipodi:docbase="C:\Documents and Settings\940753\Työpöytä" sodipodi:version="0.32" xmlns:cc="http://web.resource.org/cc/" inkscape:version="0.43"
	 xmlns="http://www.w3.org/2000/svg" xmlns:xlink="http://www.w3.org/1999/xlink" x="0px" y="0px" width="174.38525px"
	 height="205.31543px" viewBox="21.40552 6.8396 174.38525 205.31543"
	 style="enable-background:new 21.40552 6.8396 174.38525 205.31543;" xml:space="preserve">
<sodipodi:namedview  inkscape:zoom="1.5475746" bordercolor="#666666" pagecolor="#ffffff" inkscape:window-y="66" inkscape:window-x="417" borderopacity="1.0" inkscape:current-layer="infot" inkscape:cy="121.8035" inkscape:pageopacity="0.0" inkscape:pageshadow="2" inkscape:cx="106.1395" inkscape:window-height="804" inkscape:window-width="775" id="base">
	</sodipodi:namedview>
<g id="g3">
	<polygon id="polygon5" style="&st6;" points="35.64233,54.53198 89.96753,23.16675 195.28979,83.97534 140.9646,115.3396 	"/>
	<path id="path7" style="&st5;" d="M189.4519,133.54077c0-3.31641,0.83887-5.86035,2.65332-7.5166
		c0-0.09863,3.18555-1.76953,3.18555-1.76953v-40.2793l-54.3252,31.36426v81.9707l54.3252-31.36523V142.8269
		C192.0105,142.35132,189.4519,138.37476,189.4519,133.54077z"/>
	<path id="path9" style="&st3;" d="M189.4519,133.54077c0-3.08594,1.0459-5.81641,2.65332-7.5166l-51.14062,29.16699
		c-3.2793,0.47559-5.83887,4.45117-5.83887,9.28516s2.55957,8.80957,5.83887,9.28516v0.04785l54.3252-30.93652v-0.04785
		C192.0105,142.35132,189.4519,138.37476,189.4519,133.54077z M195.15698,124.28589c0.04492-0.00879,0.08789-0.02148,0.13379-0.0293
		v-0.04785L195.15698,124.28589z"/>
	<polygon id="polygon11" style="&st1;" points="35.64233,54.53198 35.64233,38.70483 58.48999,25.5144 58.48999,41.34155 	"/>
	<polygon id="polygon13" style="&st5;" points="63.86987,28.62085 63.86987,44.44702 41.02222,57.63843 41.02222,41.81226 	"/>
	<polygon id="polygon15" style="&st1;" points="99.06812,91.15015 99.06812,75.323 121.91382,62.13159 121.91382,77.95972 	"/>
	<polygon id="polygon17" style="&st5;" points="127.29468,65.23901 127.29468,81.06519 104.448,94.25562 104.448,78.43042 	"/>
	<polygon id="polygon19" style="&st7;" points="46.58569,38.60034 46.58569,54.42554 104.448,87.83276 104.448,72.00562 	"/>
	<path id="path21" style="&st7;" d="M140.9646,155.19214V115.3396L104.448,94.25562v-15.8252l-5.37988-3.10645v15.82715
		l-58.0459-33.5127V41.81226l-5.37988-3.10645v15.82715v2.94531v79.02441l27.71191,15.99902l4.24316-3.25586l25.21191,14.55469
		l4.24316,8.15723l43.91211,25.35352v-23.54785c-3.2793-0.47656-5.83887-4.45117-5.83887-9.28516
		S137.6853,155.66675,140.9646,155.19214z"/>
	<polygon id="polygon23" style="&st4;" points="67.11987,36.35815 67.11987,20.53101 89.96655,7.3396 89.96655,23.16772 	"/>
	<polygon id="polygon25" style="&st5;" points="95.34741,10.44702 95.34741,26.27319 72.49976,39.46362 72.49976,23.63843 	"/>
	<polygon id="polygon27" style="&st1;" points="130.54468,72.97729 130.54468,57.14917 153.39136,43.95776 153.39136,59.78589 	"/>
	<polygon id="polygon29" style="&st7;" points="67.11987,20.53198 72.49976,23.63843 72.49976,39.4646 67.11987,36.35913 	"/>
	<polygon id="polygon31" style="&st5;" points="158.77222,47.06519 158.77222,62.89233 135.92456,76.08276 135.92456,60.25562 	"/>
	<polygon id="polygon33" style="&st7;" points="78.06323,20.42554 78.06323,36.25171 135.92456,69.65894 135.92456,53.83179 	"/>
	<polygon id="polygon35" style="&st7;" points="130.54468,57.14917 135.92456,60.25562 135.92456,76.08276 130.54468,72.97729 	"/>
	<polygon id="polygon37" style="&st5;" points="105.62183,36.33667 105.62183,52.16382 96.53687,57.40894 82.83081,49.49585 	"/>
	<polygon id="polygon39" style="&st6;" points="153.39136,43.95776 144.7937,48.92163 86.74976,15.41089 95.34741,10.44702 
		89.96655,7.3396 67.11987,20.53101 72.49976,23.63843 78.06323,20.42554 100.83276,33.57202 78.04175,46.73022 55.27222,33.58374 
		63.86987,28.62085 58.48999,25.5144 35.64233,38.70483 41.02222,41.81226 46.58569,38.60034 104.63062,72.11108 99.06812,75.323 
		104.448,78.43042 127.29468,65.23901 121.91382,62.13159 113.31714,67.09644 82.83081,49.49585 105.6228,36.33667 
		136.10913,53.93726 130.54468,57.14917 135.92456,60.25562 158.77222,47.06519 	"/>
</g>
<g>
	<g>
		<line style="&st0;" x1="23.17407" y1="149.85425" x2="125.85913" y2="210.31323"/>
		<g>
			<path style="&st2;" d="M27.93042,161.99683c0.22754,0.13379,0.51709,0.15234,0.77002,0.02344
				c0.39355-0.2002,0.5498-0.68262,0.34912-1.07617l-5.56055-10.9043l12.23242-0.42773
				c0.44189-0.01562,0.78809-0.38672,0.77197-0.82715c-0.01611-0.44141-0.39014-0.78613-0.82764-0.77246l-13.48779,0.47266
				c-0.27295,0.00977-0.52295,0.1582-0.66162,0.39355s-0.14746,0.52637-0.02344,0.76953l6.13135,12.02344
				C27.69604,161.81128,27.80396,161.92261,27.93042,161.99683C28.15796,162.13062,27.80396,161.92261,27.93042,161.99683z"/>
		</g>
		<g>
			<path style="&st2;" d="M112.93433,212.04468c-0.22754-0.13379-0.38379-0.37793-0.39355-0.66211
				c-0.0166-0.44043,0.33008-0.81152,0.77148-0.82715l12.23242-0.42773l-5.56055-10.9043
				c-0.20117-0.39355-0.04492-0.87598,0.34863-1.07617s0.87695-0.04102,1.07715,0.34863l6.13086,12.02344
				c0.12402,0.24316,0.11523,0.53418-0.02344,0.76953s-0.38867,0.38379-0.66113,0.39355l-13.48828,0.47266
				C113.21069,212.15991,113.06128,212.1189,112.93433,212.04468C112.70679,211.91089,113.06128,212.1189,112.93433,212.04468z"/>
		</g>
	</g>
</g>
</svg>
