<?xml version="1.0" encoding="utf-8"?>
<!-- Generator: Adobe Illustrator 15.1.0, SVG Export Plug-In . SVG Version: 6.00 Build 0)  -->
<!DOCTYPE svg PUBLIC "-//W3C//DTD SVG 1.1//EN" "http://www.w3.org/Graphics/SVG/1.1/DTD/svg11.dtd" [
	<!ENTITY st0 "fill:#231F20;">
	<!ENTITY st1 "fill:none;stroke:#231F20;stroke-width:2;">
	<!ENTITY st2 "fill:none;stroke:#231F20;stroke-width:0.5;stroke-miterlimit:10;">
	<!ENTITY st3 "fill:#FFFFFF;">
]>
<svg version="1.1" id="Layer_1" xmlns="http://www.w3.org/2000/svg" xmlns:xlink="http://www.w3.org/1999/xlink" x="0px" y="0px"
	 width="311.5px" height="109.05518px" viewBox="0 0 311.5 109.05518" style="enable-background:new 0 0 311.5 109.05518;"
	 xml:space="preserve">
<line style="&st2;" x1="0" y1="0.25" x2="103.91699" y2="0.25"/>
<line style="&st2;" x1="0.25" y1="93.59961" x2="0.25" y2="0.5"/>
<line style="&st2;" x1="103.9165" y1="0.25" x2="207.58398" y2="0.25"/>
<line style="&st2;" x1="103.9165" y1="93.59961" x2="103.9165" y2="0.5"/>
<line style="&st2;" x1="207.58301" y1="0.25" x2="311.5" y2="0.25"/>
<line style="&st2;" x1="207.58301" y1="93.59961" x2="207.58301" y2="0.5"/>
<line style="&st2;" x1="311.25" y1="93.59961" x2="311.25" y2="0.5"/>
<line style="&st2;" x1="0" y1="93.84961" x2="103.91699" y2="93.84961"/>
<line style="&st2;" x1="103.9165" y1="93.84961" x2="207.58398" y2="93.84961"/>
<line style="&st2;" x1="207.58301" y1="93.84961" x2="311.5" y2="93.84961"/>
<g>
	<path style="&st0;" d="M31.46289,26.00537c-0.12305,0.19043-0.28027,0.35498-0.47363,0.49268
		c-0.19238,0.13721-0.41895,0.24365-0.67773,0.31738c-0.25879,0.07471-0.55615,0.11182-0.89209,0.11182
		c-0.41016,0-0.76465-0.07861-1.06104-0.23779c-0.29639-0.1582-0.50391-0.37549-0.62158-0.65088l0.86377-0.63037
		c0.12305,0.20117,0.27979,0.34424,0.4707,0.43115c0.19043,0.08643,0.40527,0.12891,0.64258,0.12891
		c0.29492,0,0.52051-0.0415,0.6792-0.12598c0.15869-0.0835,0.26172-0.21875,0.30811-0.40576
		c0.01953-0.07959,0.02344-0.14844,0.00977-0.20654c-0.01367-0.05859-0.05176-0.11377-0.11621-0.16455
		c-0.06445-0.05127-0.16357-0.10059-0.29639-0.14697c-0.1333-0.04639-0.30713-0.0957-0.52295-0.14697
		c-0.21191-0.05127-0.40283-0.11182-0.5752-0.18213c-0.1709-0.06982-0.31055-0.15918-0.41992-0.26611
		c-0.10791-0.10693-0.17969-0.24268-0.21289-0.40527c-0.03467-0.16406-0.021-0.3667,0.03955-0.60938
		c0.05566-0.22363,0.15186-0.4248,0.28662-0.60156c0.13477-0.17725,0.29736-0.32812,0.48682-0.45215
		c0.18994-0.12305,0.39893-0.21777,0.62744-0.2832c0.22803-0.06543,0.46338-0.09766,0.70654-0.09766
		c0.38281,0,0.70068,0.06787,0.9541,0.20361c0.25244,0.13623,0.46533,0.32666,0.63818,0.57129l-0.87891,0.68799
		c-0.11816-0.16406-0.25586-0.28906-0.41406-0.375c-0.1582-0.08643-0.34961-0.12891-0.57324-0.12891
		c-0.13086,0-0.24365,0.01221-0.33887,0.0376c-0.09521,0.02588-0.17578,0.05957-0.24219,0.10156
		c-0.06592,0.0415-0.11768,0.08887-0.15381,0.14014s-0.06104,0.10449-0.0752,0.16016c-0.02002,0.07959-0.021,0.146-0.00342,0.19922
		c0.0166,0.05371,0.05762,0.10107,0.12109,0.14404c0.06494,0.0415,0.1543,0.08105,0.27148,0.11816
		c0.11621,0.03711,0.26709,0.07959,0.45166,0.12598c0.18506,0.04639,0.36523,0.10156,0.54443,0.16406
		c0.17773,0.0625,0.33008,0.15039,0.4585,0.26221s0.22021,0.25439,0.27588,0.42578c0.05469,0.17236,0.04883,0.39111-0.01758,0.65771
		C31.6748,25.60156,31.58496,25.81396,31.46289,26.00537z"/>
	<path style="&st0;" d="M38.84619,24.23633c-0.13916,0.20264-0.30518,0.36914-0.49561,0.5
		c-0.19189,0.13086-0.4043,0.22656-0.63721,0.28711s-0.4751,0.09131-0.72803,0.09131H35.9043l-0.43262,1.73584h-0.97266
		l1.22168-4.8999h2.14258c0.22852,0,0.4375,0.03125,0.62695,0.09473c0.18945,0.0625,0.34473,0.15918,0.4668,0.29004
		c0.12158,0.13086,0.20215,0.29248,0.24268,0.48682c0.04053,0.19336,0.02783,0.4209-0.0376,0.68213
		C39.0918,23.78906,38.98535,24.0332,38.84619,24.23633z M38.07227,23.05811c-0.104-0.09912-0.2666-0.14844-0.48633-0.14844H36.4541
		l-0.31055,1.24609h1.14551c0.46875,0,0.75586-0.21045,0.86035-0.63037C38.20215,23.31299,38.17676,23.15771,38.07227,23.05811z"/>
	<path style="&st0;" d="M41.35254,26.85059l1.22168-4.8999h3.39551l-0.23926,0.95898h-2.42285l-0.20898,0.83936h1.40723
		l-0.23926,0.95898h-1.40723l-0.29492,1.18359h2.52734l-0.23926,0.95898H41.35254z"/>
	<path style="&st0;" d="M47.99512,26.85059l1.22168-4.8999h3.39551l-0.23926,0.95898H49.9502l-0.20898,0.83936h1.40723
		l-0.23926,0.95898h-1.40723l-0.29492,1.18359h2.52734l-0.23926,0.95898H47.99512z"/>
	<path style="&st0;" d="M58.73584,25.50977c-0.22021,0.31055-0.47314,0.56445-0.75781,0.76367
		c-0.28467,0.19775-0.58984,0.34375-0.91357,0.43701c-0.32422,0.09375-0.64355,0.14014-0.95605,0.14014h-1.46289l1.22168-4.8999
		h1.5332c0.34961,0,0.66211,0.04248,0.9375,0.12891c0.27441,0.08691,0.49609,0.22852,0.66406,0.42334
		c0.16797,0.19629,0.27539,0.44922,0.32129,0.76025c0.04639,0.31055,0.01367,0.68945-0.09814,1.13672
		C59.11816,24.83008,58.95459,25.19971,58.73584,25.50977z M58.15234,23.28174c-0.16748-0.24805-0.51172-0.37207-1.03125-0.37207
		h-0.52051l-0.74316,2.98193h0.48535c0.25781,0,0.49023-0.03613,0.69775-0.10791c0.20752-0.07227,0.38818-0.17383,0.54248-0.30322
		c0.1543-0.12988,0.28418-0.28711,0.3916-0.47021c0.10645-0.18359,0.18701-0.38672,0.24268-0.61035
		C58.34131,23.90332,58.31982,23.53125,58.15234,23.28174z"/>
	<path style="&st0;" d="M65.81738,26.85059l1.22168-4.8999h0.97266L67.0293,25.8916h2.45703l-0.23926,0.95898H65.81738z"/>
	<path style="&st0;" d="M72.32715,26.85059l1.22168-4.8999h0.97266l-1.22168,4.8999H72.32715z"/>
	<path style="&st0;" d="M80.34277,26.85059l0.44873-1.79932c0.01611-0.06445,0.03809-0.14893,0.06592-0.25244
		c0.02832-0.10205,0.05566-0.20752,0.08203-0.31445c0.02686-0.10693,0.05273-0.20752,0.07812-0.30127
		c0.02637-0.09277,0.04443-0.16309,0.05615-0.20947c-0.06006,0.09277-0.14209,0.2168-0.24365,0.37061
		c-0.10107,0.1543-0.20215,0.30127-0.30273,0.44141l-1.53955,2.17676l-0.44873-2.17676
		c-0.03027-0.14014-0.05713-0.28711-0.08203-0.44141c-0.02441-0.15381-0.04297-0.27783-0.05713-0.37061
		c-0.01172,0.04639-0.02783,0.1167-0.04932,0.20947c-0.02051,0.09375-0.04443,0.19434-0.07129,0.30127
		c-0.02637,0.10693-0.05176,0.2124-0.07422,0.31445c-0.02393,0.10352-0.04395,0.18799-0.06006,0.25244l-0.44873,1.79932H76.7373
		l1.22168-4.8999h0.94531l0.46631,2.21924c0.01514,0.06885,0.02881,0.14307,0.04248,0.21973
		c0.01318,0.07764,0.02539,0.15332,0.03711,0.22754c0.01172,0.07471,0.02246,0.14502,0.03174,0.21045
		c0.00928,0.06494,0.01514,0.11914,0.01953,0.16064c0.05566-0.09375,0.1333-0.21777,0.23389-0.37402
		c0.09961-0.15625,0.2002-0.30518,0.30029-0.44434l1.54248-2.21924h0.95898l-1.22168,4.8999H80.34277z"/>
	<path style="&st0;" d="M84.75195,26.85059l1.22168-4.8999h0.97266l-1.22168,4.8999H84.75195z"/>
	<path style="&st0;" d="M92.20996,22.90967l-0.98242,3.94092h-0.97363l0.98242-3.94092h-1.40625l0.23926-0.95898h3.78613
		l-0.23926,0.95898H92.20996z"/>
</g>
<g>
</g>
<g>
	<path style="&st1;" d="M39.64941,54.23193c-3.76709,5.41406-6.52246,11.62012-8.26709,18.61816h-8.29395
		c1.64893-6.6123,4.20068-12.66309,7.65771-18.1543c3.45703-5.48975,7.62012-10.40088,12.48926-14.73193H22.5874L24.51123,32.25
		h30.4502l-1.95312,7.83008C47.86816,44.10205,43.41504,48.81885,39.64941,54.23193z"/>
	<path style="&st1;" d="M81.83008,65.10693c-1.28955,1.83691-2.83594,3.38379-4.63672,4.64014
		c-1.80225,1.25684-3.82422,2.19482-6.06592,2.81299c-2.24219,0.61768-4.60205,0.92773-7.07617,0.92773
		c-2.93896,0-5.59473-0.31885-7.96777-0.95703c-2.37402-0.6377-4.63428-1.76855-6.78125-3.39258l5.66504-6.90234
		c1.62402,1.08301,3.34814,1.92432,5.1709,2.52295c1.82227,0.6001,3.77832,0.89893,5.86621,0.89893
		c2.78369,0,5.06885-0.55957,6.85693-1.68164c1.78711-1.12109,2.95605-2.78418,3.50586-4.98828
		c0.26025-1.04395,0.30225-1.95166,0.12793-2.72559c-0.1748-0.77344-0.51074-1.40137-1.00879-1.88525
		c-0.49805-0.48291-1.13379-0.84082-1.90723-1.07275c-0.77393-0.23242-1.64355-0.34814-2.60986-0.34814
		c-1.85596,0-3.47412,0.2417-4.8501,0.7251c-1.37793,0.48389-2.63184,1.05371-3.76172,1.71094l-7.00488-2.84229L61.80518,32.25
		H88.8335l-1.95215,7.83008h-19.5459l-2.21436,7.01807c1.27539-0.61816,2.60938-1.08203,4.00098-1.39209
		c1.39111-0.30908,3.0542-0.46436,4.98828-0.46436c2.28076,0,4.20703,0.33936,5.77881,1.01514
		c1.57129,0.67725,2.78516,1.62402,3.64111,2.84229c0.85693,1.21777,1.37891,2.64893,1.56885,4.29199
		c0.18896,1.64404,0.04834,3.41309-0.42383,5.30664C84.06836,61.13379,83.11914,63.271,81.83008,65.10693z"/>
</g>
<g>
	<path style="&st3;" d="M39.64941,54.23242c-3.7666,5.41357-6.52197,11.62012-8.2666,18.61768h-8.29395
		c1.64844-6.6123,4.20117-12.66309,7.6582-18.1543c3.45654-5.49023,7.61963-10.40137,12.48926-14.73145H22.58789L24.51123,32.25
		h30.4502l-1.95215,7.82959C47.86865,44.10205,43.41504,48.81885,39.64941,54.23242z"/>
	<path style="&st3;" d="M81.88867,65.10645c-1.29004,1.8374-2.83594,3.38477-4.6377,4.64014
		c-1.80273,1.25781-3.82471,2.1958-6.06641,2.81348c-2.24219,0.61768-4.60156,0.92773-7.0752,0.92773
		c-2.93848,0-5.59521-0.31836-7.96826-0.95703c-2.37451-0.6377-4.63428-1.76904-6.78125-3.39209l5.66504-6.90234
		c1.62402,1.08203,3.34863,1.92383,5.1709,2.52246c1.82227,0.59961,3.77783,0.89941,5.86572,0.89941
		c2.78418,0,5.06934-0.56006,6.85791-1.68213c1.78711-1.12109,2.95557-2.78369,3.50537-4.98779
		c0.26025-1.04443,0.30176-1.95215,0.12891-2.72607c-0.17529-0.77344-0.51172-1.40137-1.00977-1.88477
		c-0.49854-0.4834-1.13379-0.84131-1.90723-1.07373c-0.77393-0.23193-1.64453-0.34766-2.61035-0.34766
		c-1.85547,0-3.47314,0.2417-4.84961,0.7251c-1.37744,0.48389-2.63184,1.05371-3.76172,1.71094l-7.00488-2.84229L61.86279,32.25
		h27.02832l-1.95215,7.82959h-19.5459l-2.21387,7.01855c1.27539-0.61865,2.60889-1.08203,4.00049-1.3916
		c1.3916-0.31006,3.0542-0.46436,4.98779-0.46436c2.28125,0,4.20752,0.33887,5.7793,1.01465
		c1.57129,0.67773,2.78564,1.62402,3.64209,2.8418c0.85547,1.21875,1.37842,2.64941,1.56836,4.29248
		c0.18848,1.64404,0.04736,3.41309-0.4248,5.30713C84.125,61.13428,83.17725,63.271,81.88867,65.10645z"/>
</g>
<line style="&st1;" x1="115.02881" y1="40.75" x2="195.85938" y2="40.75"/>
<line style="&st1;" x1="124.04102" y1="65.75" x2="190.92822" y2="65.75"/>
<g>
	<path style="&st0;" d="M129.1167,33.85156c-0.25586,0.65479-0.65625,1.21826-1.19971,1.68896
		c-0.54443,0.47119-1.22852,0.83447-2.05225,1.09033c-0.82422,0.25537-1.81201,0.3833-2.96387,0.3833
		c-1.4082,0-2.68799-0.27197-3.83984-0.81592c-1.15234-0.54395-2.04834-1.28809-2.68799-2.23242l2.42383-2.15967
		c0.5918,0.68799,1.25146,1.18018,1.97998,1.47607c0.72803,0.2959,1.5,0.44385,2.31592,0.44385
		c1.00781,0,1.74805-0.14404,2.22021-0.43213c0.47168-0.28809,0.70801-0.75195,0.70801-1.39209
		c0-0.27197-0.04834-0.50781-0.14404-0.70801c-0.09619-0.19971-0.27637-0.3877-0.54004-0.56396
		c-0.26416-0.17578-0.64453-0.34375-1.14014-0.50391c-0.49609-0.15967-1.13623-0.32764-1.91992-0.50391
		c-0.76807-0.17578-1.47607-0.38428-2.12402-0.62402c-0.64795-0.24023-1.2041-0.54395-1.66797-0.91211
		c-0.46436-0.36768-0.82422-0.83154-1.08008-1.39209c-0.25586-0.55957-0.38379-1.25586-0.38379-2.08789
		c0-0.76807,0.15576-1.45557,0.46777-2.06396c0.31201-0.60791,0.73975-1.12402,1.28418-1.54785
		c0.54346-0.42383,1.17969-0.74805,1.90771-0.97217c0.72803-0.22363,1.50781-0.33594,2.34033-0.33594
		c1.31152,0,2.45996,0.23389,3.44385,0.70117s1.87549,1.12012,2.67578,1.9585l-2.42383,2.35645
		c-0.54395-0.56006-1.12402-0.98779-1.73975-1.28418c-0.61621-0.2959-1.30811-0.44385-2.07617-0.44385
		c-0.44824,0-0.82422,0.04395-1.12793,0.13184c-0.3042,0.08789-0.55225,0.20361-0.74414,0.34717
		c-0.19189,0.14404-0.32812,0.30371-0.4082,0.47949c-0.08008,0.17529-0.11963,0.35938-0.11963,0.55078
		c0,0.27148,0.05176,0.49902,0.15576,0.68262c0.104,0.18408,0.28418,0.34766,0.54004,0.4917
		c0.25586,0.14355,0.6001,0.2793,1.03223,0.40723c0.43164,0.12744,0.98389,0.27148,1.65576,0.43115s1.33984,0.34766,2.00391,0.56299
		c0.66406,0.21582,1.26367,0.51562,1.80029,0.89844c0.53564,0.3833,0.97168,0.87061,1.30762,1.46143
		c0.33643,0.59131,0.50439,1.3418,0.50439,2.25195C129.50098,32.46973,129.37256,33.19678,129.1167,33.85156z"/>
	<path style="&st0;" d="M145.81982,27.78613c-0.30518,0.6958-0.73047,1.26807-1.27539,1.71582
		c-0.54541,0.44824-1.19141,0.77637-1.93652,0.98389c-0.74609,0.2085-1.55176,0.31201-2.41797,0.31201h-3.70508V36.75h-3.33594
		V19.9502h7.34375c0.78369,0,1.52783,0.10791,2.23193,0.32373c0.7041,0.21631,1.32031,0.54834,1.84814,0.99609
		c0.52783,0.44824,0.94385,1.00439,1.24805,1.66797c0.30371,0.66406,0.45605,1.44434,0.45605,2.33984
		C146.27686,26.25391,146.12402,27.08984,145.81982,27.78613z M142.1582,23.74854c-0.44189-0.34033-1.04004-0.51074-1.79492-0.51074
		h-3.87842v4.27197h3.92676c1.60596,0,2.40918-0.71924,2.40918-2.15918C142.8208,24.62256,142.6001,24.08838,142.1582,23.74854z"/>
	<path style="&st0;" d="M149.58887,36.75V19.9502h11.63965v3.2876h-8.30371v2.88037h4.82373v3.2876h-4.82373v4.05615h8.66406V36.75
		H149.58887z"/>
	<path style="&st0;" d="M165.28467,36.75V19.9502h11.63965v3.2876h-8.30371v2.88037h4.82373v3.2876h-4.82373v4.05615h8.66406V36.75
		H165.28467z"/>
	<path style="&st0;" d="M193.85645,32.15381c-0.48828,1.06445-1.13574,1.93652-1.94434,2.61621
		c-0.80811,0.68018-1.72803,1.18018-2.75977,1.5c-1.03223,0.32031-2.08447,0.47998-3.15625,0.47998h-5.01562V19.9502h5.25586
		c1.2002,0,2.30762,0.14795,3.32422,0.44385c1.01562,0.29639,1.896,0.77979,2.63965,1.45215
		c0.74414,0.67188,1.32812,1.54004,1.75195,2.604s0.63574,2.36377,0.63574,3.8999
		C194.58789,29.82227,194.34375,31.09033,193.85645,32.15381z M189.95215,24.51611
		c-0.78662-0.85205-2.07129-1.27832-3.85352-1.27832h-1.78223v10.22412h1.66211c0.88232,0,1.64941-0.12305,2.2998-0.37012
		c0.6499-0.24658,1.18359-0.59326,1.60156-1.03906c0.41748-0.4458,0.73047-0.9834,0.93945-1.6123
		c0.2085-0.62891,0.31299-1.32568,0.31299-2.09033C191.13232,26.646,190.73877,25.36816,189.95215,24.51611z"/>
</g>
<g>
</g>
<g>
	<path style="&st0;" d="M126.20117,61.75V44.9502h3.33594v13.51172h8.42383V61.75H126.20117z"/>
	<path style="&st0;" d="M141.41699,61.75V44.9502h3.33594V61.75H141.41699z"/>
	<path style="&st0;" d="M161.81689,61.75v-6.16797c0-0.22412,0.00391-0.51172,0.01221-0.86426
		c0.00781-0.35156,0.01172-0.71143,0.01172-1.07959s0.00391-0.71191,0.01221-1.03223
		c0.00781-0.31982,0.01172-0.56006,0.01172-0.71973c-0.12793,0.31982-0.30078,0.74365-0.51758,1.27197
		c-0.21631,0.52783-0.43701,1.03174-0.66113,1.51172l-3.41699,7.46387l-3.39893-7.46387
		c-0.22363-0.47998-0.44336-0.98389-0.65869-1.51172c-0.21533-0.52832-0.38721-0.95215-0.51465-1.27197
		c0,0.15967,0.00391,0.3999,0.01221,0.71973c0.00781,0.32031,0.01172,0.66406,0.01172,1.03223s0.00391,0.72803,0.01221,1.07959
		c0.00781,0.35254,0.01221,0.64014,0.01221,0.86426V61.75h-3.28809V44.9502h3.23975l3.49512,7.60791
		c0.11182,0.23975,0.22314,0.4917,0.33496,0.75586s0.21924,0.52441,0.32324,0.78027
		c0.10352,0.25586,0.19922,0.49609,0.28711,0.71973c0.08789,0.22412,0.15576,0.4082,0.20361,0.55225
		c0.1123-0.32031,0.27246-0.74805,0.48096-1.28418s0.42529-1.04395,0.6499-1.52393l3.39307-7.60791h3.28809V61.75H161.81689z"/>
	<path style="&st0;" d="M169.85645,61.75V44.9502h3.33594V61.75H169.85645z"/>
	<path style="&st0;" d="M184.95264,48.23779V61.75h-3.33643V48.23779h-4.82373v-3.2876h12.98389v3.2876H184.95264z"/>
</g>
<g>
	<path style="&st0;" d="M153.52148,73.66064c-0.37549,0.84033-0.5625,1.80322-0.5625,2.88916h-1.28711
		c0-1.02588,0.16211-1.96484,0.48584-2.81689c0.32422-0.85205,0.77979-1.61426,1.36816-2.28613h-3.2041V70.25h4.7251v1.21484
		C154.40479,72.08887,153.896,72.8208,153.52148,73.66064z"/>
	<path style="&st0;" d="M160.4873,75.34814c-0.12939,0.28516-0.30908,0.52539-0.54004,0.72021s-0.50879,0.34033-0.83252,0.43652
		c-0.32422,0.0957-0.67822,0.14404-1.06201,0.14404c-0.45605,0-0.88037-0.0498-1.27344-0.14844
		c-0.39307-0.09912-0.7876-0.2749-1.18359-0.52686l0.61182-1.0708c0.29395,0.16797,0.59424,0.29834,0.90039,0.3916
		c0.30566,0.09277,0.62061,0.13916,0.94482,0.13916c0.43213,0,0.76514-0.08691,0.99902-0.26074s0.35107-0.43213,0.35107-0.77393
		c0-0.16211-0.02881-0.30322-0.08545-0.42334c-0.05713-0.11963-0.13379-0.21729-0.22949-0.29248
		c-0.09619-0.07471-0.2085-0.13037-0.33789-0.1665c-0.12891-0.03564-0.26855-0.05371-0.41846-0.05371
		c-0.2876,0-0.5293,0.0376-0.72412,0.1123c-0.19531,0.0752-0.36768,0.16357-0.51758,0.26562l-1.19727-0.44092l0.21631-3.1499
		h4.19385v1.21484h-3.0332l-0.07178,1.08887c0.17383-0.0957,0.36279-0.16797,0.56689-0.21582s0.45605-0.07227,0.75586-0.07227
		c0.354,0,0.66602,0.05273,0.93604,0.15771s0.49512,0.25195,0.67529,0.44092c0.17969,0.18896,0.31641,0.41113,0.40918,0.66602
		c0.09326,0.25488,0.13965,0.52979,0.13965,0.82373C160.68066,74.73193,160.61621,75.06348,160.4873,75.34814z"/>
</g>
<g>
	<path style="&st0;" d="M239.36133,22.79639c-0.18066,0.46387-0.46484,0.86279-0.84961,1.19678
		c-0.38574,0.3335-0.87012,0.59082-1.45312,0.77197c-0.58398,0.18066-1.28418,0.27148-2.09961,0.27148
		c-0.99805,0-1.9043-0.19238-2.71973-0.57812c-0.81641-0.38525-1.45117-0.91211-1.9043-1.58105l1.7168-1.52979
		c0.41895,0.4873,0.88672,0.83594,1.40234,1.04541c0.51562,0.20996,1.0625,0.31445,1.64062,0.31445
		c0.71387,0,1.23828-0.10205,1.57227-0.30615c0.33496-0.20361,0.50195-0.53223,0.50195-0.98584
		c0-0.19238-0.03418-0.35938-0.10254-0.50146c-0.06738-0.1416-0.19531-0.27441-0.38184-0.39941
		c-0.1875-0.12451-0.45703-0.24365-0.80762-0.35693c-0.35156-0.11328-0.80469-0.23242-1.36035-0.35693
		c-0.54395-0.12451-1.04492-0.27197-1.50391-0.44238c-0.45898-0.16992-0.85352-0.38477-1.18164-0.646
		c-0.3291-0.26025-0.58398-0.58887-0.76562-0.98584c-0.18066-0.39648-0.27148-0.88965-0.27148-1.479
		c0-0.54395,0.11035-1.03125,0.33105-1.46191c0.22168-0.43066,0.52441-0.7959,0.91016-1.09668
		c0.38477-0.2998,0.83496-0.5293,1.35156-0.68848c0.51562-0.15869,1.06738-0.23779,1.65723-0.23779
		c0.92871,0,1.74219,0.16553,2.43945,0.49658s1.32812,0.79346,1.89551,1.38721l-1.7168,1.66895
		c-0.38574-0.39648-0.79688-0.69971-1.23242-0.90918c-0.43652-0.20996-0.92676-0.31445-1.4707-0.31445
		c-0.31738,0-0.58398,0.03125-0.79883,0.09326c-0.21582,0.06201-0.3916,0.14404-0.52734,0.24609s-0.23242,0.21484-0.28906,0.33936
		s-0.08496,0.25439-0.08496,0.39014c0,0.19238,0.03711,0.35352,0.11035,0.48389c0.07422,0.12988,0.20117,0.24609,0.38281,0.34766
		c0.18066,0.10205,0.4248,0.19824,0.73047,0.28857c0.30664,0.09082,0.69727,0.19238,1.17383,0.30566
		c0.47559,0.11328,0.94824,0.24609,1.41895,0.39893s0.89551,0.36475,1.27539,0.63623
		c0.37891,0.27148,0.68848,0.6167,0.92578,1.03516c0.23828,0.41895,0.35742,0.95068,0.35742,1.59521
		C239.63379,21.81787,239.54297,22.33301,239.36133,22.79639z"/>
	<path style="&st0;" d="M251.78809,18.5c-0.21582,0.49316-0.5166,0.89844-0.90332,1.21582
		c-0.38574,0.31738-0.84375,0.5498-1.37109,0.69678c-0.52832,0.14746-1.09961,0.22119-1.71289,0.22119h-2.625v4.21582h-2.3623
		v-11.8999h5.20215c0.55469,0,1.08203,0.07617,1.58105,0.22949c0.49805,0.15283,0.93457,0.38818,1.30859,0.70557
		s0.66895,0.71143,0.88379,1.18115c0.21484,0.4707,0.32324,1.02295,0.32324,1.65771
		C252.1123,17.41504,252.00391,18.00732,251.78809,18.5z M249.19531,15.64014c-0.31348-0.24072-0.7373-0.36133-1.27148-0.36133
		h-2.74805v3.02588h2.78223c1.1377,0,1.70605-0.50977,1.70605-1.52979C249.66406,16.25928,249.50781,15.88086,249.19531,15.64014z"
		/>
	<path style="&st0;" d="M255.03613,24.84961v-11.8999h8.24512v2.3291h-5.88281v2.04004h3.41699v2.32861h-3.41699v2.87305h6.1377
		v2.3291H255.03613z"/>
	<path style="&st0;" d="M266.76562,24.84961v-11.8999h8.24512v2.3291h-5.88281v2.04004h3.41699v2.32861h-3.41699v2.87305h6.1377
		v2.3291H266.76562z"/>
	<path style="&st0;" d="M287.59863,21.59424c-0.3457,0.75391-0.80469,1.37109-1.37695,1.85303
		c-0.57227,0.48145-1.22363,0.83594-1.95508,1.0625c-0.73047,0.22656-1.47656,0.33984-2.23535,0.33984h-3.55273v-11.8999h3.72266
		c0.84961,0,1.63477,0.10498,2.35449,0.31445c0.71973,0.20996,1.34277,0.55225,1.87012,1.02832s0.94043,1.09082,1.24121,1.84473
		c0.2998,0.75391,0.4502,1.67432,0.4502,2.76221C288.11719,19.94238,287.94434,20.84033,287.59863,21.59424z M284.83301,16.18408
		c-0.55664-0.60352-1.4668-0.90527-2.72949-0.90527h-1.2627v7.2417h1.17773c0.625,0,1.16797-0.0874,1.62891-0.26221
		s0.83887-0.41992,1.13477-0.73584s0.51758-0.69678,0.66504-1.14209c0.14746-0.4458,0.22168-0.93896,0.22168-1.48096
		C285.66895,17.69238,285.39062,16.7876,284.83301,16.18408z"/>
</g>
<g>
</g>
<g>
	<path style="&st0;" d="M237.2959,41.84961v-11.8999h2.3623v9.5708h5.96777v2.3291H237.2959z"/>
	<path style="&st0;" d="M248.66895,41.84961v-11.8999h2.36328v11.8999H248.66895z"/>
	<path style="&st0;" d="M263.71387,41.84961v-4.36914c0-0.1582,0.00293-0.3623,0.00879-0.61182
		c0.00488-0.24902,0.00781-0.50439,0.00781-0.76514c0-0.26025,0.00293-0.50391,0.00879-0.73096
		c0.00586-0.22656,0.00879-0.39648,0.00879-0.50977c-0.09082,0.22656-0.21289,0.52686-0.36719,0.90088
		c-0.15332,0.37402-0.30957,0.73096-0.46875,1.0708l-2.41992,5.28711l-2.40723-5.28711
		c-0.1582-0.33984-0.31445-0.69678-0.4668-1.0708s-0.27441-0.67432-0.36426-0.90088c0,0.11328,0.00293,0.2832,0.00879,0.50977
		c0.00488,0.22705,0.00781,0.4707,0.00781,0.73096c0,0.26074,0.00293,0.51611,0.00879,0.76514
		c0.00586,0.24951,0.00879,0.45361,0.00879,0.61182v4.36914h-2.3291v-11.8999h2.29492l2.47559,5.38867
		c0.0791,0.17041,0.1582,0.34863,0.2373,0.53564s0.15527,0.37158,0.22852,0.55273s0.1416,0.35107,0.2041,0.50977
		c0.06152,0.15869,0.10938,0.28906,0.14355,0.39111c0.08008-0.22656,0.19336-0.52979,0.34082-0.90967
		c0.14746-0.37939,0.30176-0.73926,0.46094-1.07959l2.40332-5.38867h2.3291v11.8999H263.71387z"/>
	<path style="&st0;" d="M270.00391,41.84961v-11.8999h2.36328v11.8999H270.00391z"/>
	<path style="&st0;" d="M281.29102,32.27881v9.5708h-2.36328v-9.5708h-3.41699v-2.3291h9.19727v2.3291H281.29102z"/>
</g>
<g>
</g>
<g>
	<path style="&st0;" d="M249.69043,68.0835c-1.91699,4.29395-2.875,9.21582-2.875,14.76611h-6.57812
		c0-5.24414,0.82812-10.04297,2.48438-14.39795c1.65625-4.354,3.98633-8.24902,6.99219-11.68408h-16.37598v-6.11816h24.14941
		v6.20996C254.20605,60.04932,251.60645,63.79053,249.69043,68.0835z"/>
	<path style="&st0;" d="M286.71973,76.7085c-0.65918,1.45703-1.5791,2.68408-2.75977,3.68018
		c-1.18066,0.99707-2.59863,1.74072-4.25488,2.23096s-3.46582,0.73584-5.42773,0.73584c-2.33105,0-4.50098-0.25293-6.50977-0.75879
		s-4.02441-1.40283-6.04883-2.69092l3.12793-5.47412c1.50293,0.85889,3.03613,1.52588,4.60059,2.00098
		c1.56348,0.47559,3.17383,0.71289,4.83008,0.71289c2.20801,0,3.91016-0.44385,5.10547-1.33398
		c1.19629-0.88916,1.79395-2.20801,1.79395-3.95605c0-0.82764-0.14551-1.54785-0.43652-2.16162
		c-0.29199-0.61328-0.68262-1.11133-1.17285-1.49512c-0.49121-0.3833-1.06641-0.66699-1.72559-0.85107
		s-1.37305-0.27588-2.13867-0.27588c-1.47168,0-2.70703,0.19189-3.70312,0.57471c-0.99707,0.38379-1.87891,0.83594-2.64453,1.35693
		l-6.11816-2.25391l1.10352-16.1001h21.43652v6.20996h-15.50195l-0.36816,5.56641c0.88867-0.49023,1.85449-0.8584,2.89746-1.104
		c1.04297-0.24512,2.33008-0.36816,3.86426-0.36816c1.80957,0,3.4043,0.26904,4.78418,0.80518
		c1.37988,0.53662,2.53027,1.2876,3.4502,2.25391c0.91992,0.96582,1.61719,2.10059,2.09277,3.40381
		c0.47461,1.30371,0.71289,2.70703,0.71289,4.20898C287.70898,73.55762,287.37891,75.25244,286.71973,76.7085z"/>
</g>
<g>
	<path style="&st0;" d="M68.89746,103.52197l-1.21777,3.1709h-0.27344l-2.23584-5.30176h1.02881l1.34375,3.27539h0.04199
		l1.19678-3.32812h0.27295l1.25977,3.32812h0.04199l1.28076-3.27539h1.02881l-2.23633,5.30176h-0.27246l-1.17578-3.1709H68.89746z"
		/>
	<path style="&st0;" d="M76.8877,104.52979l1.71094,1.97363v0.13672h-1.0918l-1.67969-2.01562h-0.6084v2.01562h-0.96582v-5.24902
		h2.02588c1.08154,0,1.84766,0.65088,1.84766,1.60645C78.12646,103.80566,77.68555,104.35156,76.8877,104.52979z
		 M76.23682,102.16797h-1.01807v1.68994h0.99707c0.57715,0,0.92383-0.31445,0.92383-0.87109S76.76172,102.16797,76.23682,102.16797z
		"/>
	<path style="&st0;" d="M82.67334,106.74512c-1.58545,0-2.81348-1.16553-2.81348-2.6665c0-1.69043,1.3335-2.79248,2.81348-2.79248
		c1.44873,0,2.79248,1.0708,2.79248,2.79248C85.46582,105.4751,84.29004,106.74512,82.67334,106.74512z M82.66309,102.15771
		c-0.94531,0-1.81641,0.67188-1.81641,1.8999c0,0.93408,0.66113,1.81592,1.84766,1.81592c1.08105,0,1.78467-0.88184,1.78467-1.81592
		C84.479,102.93408,83.66016,102.15771,82.66309,102.15771z"/>
	<path style="&st0;" d="M91.07324,104.80322h0.08398v-3.41211h0.96582v5.30176h-0.31543l-3.50586-3.4541h-0.08398v3.40137h-0.96582
		v-5.30176h0.31445L91.07324,104.80322z"/>
	<path style="&st0;" d="M98.87402,106.10498c-0.48291,0.36719-1.32275,0.64014-2.1416,0.64014
		c-1.65869,0-2.81348-1.19678-2.81348-2.6665c0-1.75293,1.375-2.79248,2.83447-2.79248c0.7876,0,1.47998,0.3042,1.81592,0.55615
		l-0.2832,0.87158c-0.2207-0.15771-0.78711-0.56689-1.55371-0.55615c-0.90283,0.01025-1.83691,0.56641-1.83691,1.8999
		c0,1.06006,0.78711,1.81592,1.85791,1.81592c0.44092,0,0.86084-0.09424,1.13379-0.27246v-1.07129h-1.3335v-0.8291h2.32031
		V106.10498z"/>
</g>
<g>
	<path style="&st0;" d="M172.56348,103.52197l-1.21777,3.1709h-0.27246l-2.23633-5.30176h1.02881l1.34375,3.27539h0.04199
		l1.19678-3.32812h0.27295l1.25977,3.32812h0.04199l1.28076-3.27539h1.02881l-2.23584,5.30176h-0.27344l-1.17578-3.1709H172.56348z"
		/>
	<path style="&st0;" d="M180.54395,104.52979l1.71094,1.97363v0.13672h-1.0918l-1.67969-2.01562h-0.6084v2.01562h-0.96582v-5.24902
		h2.02588c1.08154,0,1.84766,0.65088,1.84766,1.60645C181.78271,103.80566,181.3418,104.35156,180.54395,104.52979z
		 M179.89307,102.16797H178.875v1.68994h0.99707c0.57715,0,0.92383-0.31445,0.92383-0.87109
		S180.41797,102.16797,179.89307,102.16797z"/>
	<path style="&st0;" d="M186.3291,106.74512c-1.58496,0-2.81348-1.16553-2.81348-2.6665c0-1.69043,1.33301-2.79248,2.81348-2.79248
		c1.44873,0,2.79248,1.0708,2.79248,2.79248C189.12158,105.4751,187.9458,106.74512,186.3291,106.74512z M186.31836,102.15771
		c-0.94434,0-1.81592,0.67188-1.81592,1.8999c0,0.93408,0.66162,1.81592,1.84766,1.81592c1.08154,0,1.78467-0.88184,1.78467-1.81592
		C188.13477,102.93408,187.31592,102.15771,186.31836,102.15771z"/>
	<path style="&st0;" d="M194.73926,104.80322h0.08398v-3.41211h0.96582v5.30176h-0.31445l-3.50684-3.4541h-0.08398v3.40137h-0.96582
		v-5.30176h0.31543L194.73926,104.80322z"/>
	<path style="&st0;" d="M202.5293,106.10498c-0.48242,0.36719-1.32227,0.64014-2.14062,0.64014
		c-1.65918,0-2.81445-1.19678-2.81445-2.6665c0-1.75293,1.37598-2.79248,2.83496-2.79248c0.78711,0,1.48047,0.3042,1.81641,0.55615
		l-0.28418,0.87158c-0.21973-0.15771-0.78711-0.56689-1.55273-0.55615c-0.90332,0.01025-1.83789,0.56641-1.83789,1.8999
		c0,1.06006,0.78711,1.81592,1.8584,1.81592c0.44043,0,0.86035-0.09424,1.13379-0.27246v-1.07129h-1.33301v-0.8291h2.31934
		V106.10498z"/>
</g>
<g>
	<path style="&st0;" d="M283.49609,104.52979l1.71094,1.97363v0.13672h-1.0918l-1.67969-2.01562h-0.6084v2.01562h-0.96582v-5.24902
		h2.02539c1.08203,0,1.84766,0.65088,1.84766,1.60645C284.73438,103.80566,284.29395,104.35156,283.49609,104.52979z
		 M282.8457,102.16797h-1.01855v1.68994h0.99707c0.57715,0,0.92383-0.31445,0.92383-0.87109S283.37012,102.16797,282.8457,102.16797
		z"/>
	<path style="&st0;" d="M287.98047,106.64014h-0.96582v-5.24902h0.96582V106.64014z"/>
	<path style="&st0;" d="M294.88867,106.10498c-0.4834,0.36719-1.32324,0.64014-2.14258,0.64014
		c-1.6582,0-2.8125-1.19678-2.8125-2.6665c0-1.75293,1.375-2.79248,2.83398-2.79248c0.78711,0,1.48047,0.3042,1.81641,0.55615
		l-0.2832,0.87158c-0.2207-0.15771-0.78809-0.56689-1.55469-0.55615c-0.90234,0.01025-1.83691,0.56641-1.83691,1.8999
		c0,1.06006,0.78809,1.81592,1.8584,1.81592c0.44141,0,0.86133-0.09424,1.13379-0.27246v-1.07129h-1.33301v-0.8291h2.32031
		V106.10498z"/>
	<path style="&st0;" d="M301.36719,106.64014h-0.96582v-2.25684h-2.51953v2.25684h-0.96582v-5.24902h0.96582v2.1626h2.51953v-2.1626
		h0.96582V106.64014z"/>
	<path style="&st0;" d="M305.91309,102.22021v4.41992h-0.96582v-4.41992h-1.78516v-0.8291h4.55664v0.8291H305.91309z"/>
</g>
</svg>
