<?xml version="1.0" encoding="utf-8"?>
<!-- Generator: Adobe Illustrator 15.1.0, SVG Export Plug-In . SVG Version: 6.00 Build 0)  -->
<!DOCTYPE svg PUBLIC "-//W3C//DTD SVG 1.1//EN" "http://www.w3.org/Graphics/SVG/1.1/DTD/svg11.dtd">
<svg version="1.1" id="Layer_1" xmlns="http://www.w3.org/2000/svg" xmlns:xlink="http://www.w3.org/1999/xlink" x="0px" y="0px"
	 width="258.45996px" height="58.24805px" viewBox="0 0 258.45996 58.24805" style="enable-background:new 0 0 258.45996 58.24805;"
	 xml:space="preserve">
<g>
	<path d="M7.84375,1.76855l0.55176,2.30273H7.92773L6.71631,2.28418H4.84521v7.35205l1.12744,0.17969v0.41992H2.56641V9.81592
		l1.12744-0.17969V2.28418H1.82324L0.61182,4.07129H0.14404L0.6958,1.76855H7.84375z"/>
	<path d="M12.08203,10.23584V9.87598l0.71973-0.17969V6.80566c0-1.04346-0.40771-1.45117-1.11572-1.45117
		c-0.47949,0-0.91113,0.22803-1.15137,0.44385v3.89795l0.71973,0.17969v0.35986H8.84375V9.87598l0.71973-0.17969V2.53613
		L8.78369,2.18848V1.93652l1.46338-0.50391h0.2876v3.75391l0.09619,0.07227c0.55176-0.41992,1.05518-0.67188,1.57129-0.67188
		c0.83936,0,1.5708,0.56348,1.5708,1.83496v3.27441l0.71973,0.17969v0.35986H12.08203z"/>
	<path d="M16.81055,9.69629l0.71973,0.17969v0.35986h-2.41064V9.87598l0.71973-0.17969V5.67822l-0.77979-0.33545V5.09082
		l1.46338-0.50391h0.2876V9.69629z M16.31885,1.52881c0.38379,0,0.71973,0.33545,0.71973,0.71924
		c0,0.37207-0.33594,0.70801-0.71973,0.70801c-0.37158,0-0.70752-0.33594-0.70752-0.70801
		C15.61133,1.86426,15.94727,1.52881,16.31885,1.52881z"/>
	<path d="M18.41895,8.43701h0.396c0.19189,0.88721,0.63574,1.51123,1.37939,1.51123c0.52734,0,0.88721-0.44385,0.88721-0.8877
		c0-0.4917-0.21582-0.76758-1.271-1.23535c-0.95947-0.40771-1.3916-0.89941-1.3916-1.71484
		c0-0.6958,0.50391-1.52344,1.63135-1.52344c0.51562,0,0.91162,0.14404,1.15137,0.23975l0.2998-0.14355h0.26367v1.71484h-0.34766
		c-0.27588-0.9834-0.87549-1.35547-1.33105-1.35547c-0.50391,0-0.91162,0.34814-0.91162,0.83984s0.43164,0.74365,1.25928,1.12744
		c0.92334,0.41943,1.55908,0.85156,1.55908,1.73877c0,1.06738-0.85156,1.63135-1.82275,1.63135
		c-0.50391,0-1.04346-0.21582-1.23535-0.2998l-0.18018,0.15576h-0.33594V8.43701z"/>
</g>
<g>
</g>
<g>
	<path d="M81.5957,1.76855l0.55176,2.30273h-0.46777l-1.21143-1.78711h-1.87109v7.35205l1.12744,0.17969v0.41992h-3.40625V9.81592
		l1.12744-0.17969V2.28418H75.5752l-1.21143,1.78711H73.896l0.55176-2.30273H81.5957z"/>
	<path d="M85.83398,10.23584V9.87598l0.71973-0.17969V6.80566c0-1.04346-0.40771-1.45117-1.11572-1.45117
		c-0.47949,0-0.91113,0.22803-1.15137,0.44385v3.89795l0.71973,0.17969v0.35986H82.5957V9.87598l0.71973-0.17969V2.53613
		l-0.77979-0.34766V1.93652l1.46338-0.50391h0.2876v3.75391l0.09619,0.07227c0.55176-0.41992,1.05518-0.67188,1.57129-0.67188
		c0.83936,0,1.5708,0.56348,1.5708,1.83496v3.27441l0.71973,0.17969v0.35986H85.83398z"/>
	<path d="M90.5625,9.69629l0.71973,0.17969v0.35986h-2.41064V9.87598l0.71973-0.17969V5.67822l-0.77979-0.33545V5.09082
		l1.46338-0.50391h0.2876V9.69629z M90.0708,1.52881c0.38379,0,0.71973,0.33545,0.71973,0.71924
		c0,0.37207-0.33594,0.70801-0.71973,0.70801c-0.37158,0-0.70752-0.33594-0.70752-0.70801
		C89.36328,1.86426,89.69922,1.52881,90.0708,1.52881z"/>
	<path d="M92.1709,8.43701h0.396c0.19189,0.88721,0.63574,1.51123,1.37939,1.51123c0.52734,0,0.88721-0.44385,0.88721-0.8877
		c0-0.4917-0.21582-0.76758-1.271-1.23535c-0.95947-0.40771-1.3916-0.89941-1.3916-1.71484
		c0-0.6958,0.50391-1.52344,1.63135-1.52344c0.51562,0,0.91162,0.14404,1.15137,0.23975l0.2998-0.14355h0.26367v1.71484h-0.34766
		c-0.27588-0.9834-0.87549-1.35547-1.33105-1.35547c-0.50391,0-0.91162,0.34814-0.91162,0.83984s0.43164,0.74365,1.25928,1.12744
		c0.92334,0.41943,1.55908,0.85156,1.55908,1.73877c0,1.06738-0.85156,1.63135-1.82275,1.63135
		c-0.50391,0-1.04346-0.21582-1.23535-0.2998l-0.18018,0.15576H92.1709V8.43701z"/>
</g>
<g>
</g>
<g>
	<path d="M151.55859,2.59619c0.53906,0.06006,0.94727,0.25146,1.22266,0.39551l0.38379-0.17969h0.18066l0.17969,2.13477h-0.33594
		c-0.32422-1.16357-0.94727-1.71533-1.63086-1.83496v2.79443c1.39062,0.50391,2.12207,1.15137,2.12207,2.27881
		c0,1.36719-0.89941,2.08691-2.12207,2.18262v1.2832h-0.41992v-1.271c-0.47949-0.03613-1.06738-0.21582-1.3916-0.47998
		l-0.33594,0.19189h-0.2998l-0.17969-2.20654h0.4082c0.26367,1.35498,0.91113,1.94287,1.79883,2.00293V6.80566
		c-1.4873-0.52783-2.08691-1.1875-2.08691-2.1709c0-0.93555,0.7793-1.99072,2.08691-2.05078V1.38477h0.41992V2.59619z
		 M151.13867,5.72656V3.09961c-0.69531,0.03613-1.11523,0.396-1.11523,1.25928
		C150.02344,4.93457,150.38281,5.3667,151.13867,5.72656z M151.55859,6.97363v2.90234
		c0.73145-0.0957,1.13867-0.55176,1.13867-1.30713C152.69727,7.93311,152.48145,7.40527,151.55859,6.97363z"/>
	<path d="M155.16016,3.23145c0.74316-0.01172,1.41504-0.22754,2.00195-0.59961l0.54004,0.06006v6.94434l1.25977,0.17969v0.41992
		h-3.52637V9.81592l1.25977-0.17969V3.55566c-0.56445,0.13184-1.15234,0.15576-1.53516,0.05957V3.23145z"/>
	<path d="M162.44238,3.43555c-0.67188,0-1.27148,0.53955-1.85938,1.25928l-0.35938-0.38379
		c0.44336-0.68359,1.37891-1.72705,2.58984-1.72705c1.22363,0,1.85938,0.7915,1.85938,1.73926
		c0,1.41504-2.11035,3.81396-3.20215,4.78516l0.07227,0.16797h2.68652l0.53906-0.81543l0.39648,0.15576l-0.67188,1.61914h-4.4502
		l-0.14355-0.38379c1.24707-0.99561,3.64648-3.46631,3.64648-5.21729C163.5459,3.99902,163.1377,3.43555,162.44238,3.43555z"/>
	<path d="M168.77734,5.82227v0.12012c0.82812,0.23975,1.60742,1.12695,1.60742,2.08691c0,1.58301-1.35547,2.35059-2.4707,2.35059
		c-1.24707,0-1.95508-0.43164-1.95508-1.00781c0-0.25146,0.2041-0.52734,0.62402-0.52734c0.63574,0,0.67188,0.94727,1.60742,0.94727
		c0.51562,0,1.1875-0.40771,1.1875-1.35498c0-1.23535-1.25977-1.95508-1.64355-1.77539l-0.43164,0.24023l-0.27637-0.41992
		c1.1875-0.61182,2.0752-1.42725,2.0752-2.25488c0-0.56348-0.35938-0.85156-0.91113-0.85156
		c-0.71973,0-1.31934,0.52783-1.77539,1.16357L166.0791,4.1792c0.47949-0.65967,1.36719-1.59521,2.63867-1.59521
		c0.76758,0,1.42773,0.51562,1.42773,1.34326S169.3418,5.45068,168.77734,5.82227z"/>
	<path d="M175.58203,2.69189v4.59375h0.95898v0.73145h-0.95898v2.21875h-0.94824V8.0293h-3.0459l-0.19238-0.44385l3.70605-5.09717
		L175.58203,2.69189z M174.50195,4.23926l-2.14648,2.92627l0.05957,0.12012h2.21875V4.31104L174.50195,4.23926z"/>
	<path d="M178.51074,8.84473c0.4082,0,0.74414,0.33594,0.74414,0.74365s-0.33594,0.73145-0.74414,0.73145
		c-0.40723,0-0.73145-0.32373-0.73145-0.73145S178.10352,8.84473,178.51074,8.84473z"/>
	<path d="M181.31934,2.72803h2.93848l0.31152-0.46777h0.4082l-0.25195,1.42725h-2.92676l-0.15527,1.59521l0.12012,0.11963
		c0.15527-0.07178,0.38281-0.13184,0.74316-0.13184c1.16309,0,2.41016,0.82764,2.41016,2.35059
		c0,1.66748-1.29492,2.75879-2.97363,2.75879c-0.8877,0-1.4873-0.2998-1.4873-0.75586c0-0.2876,0.17969-0.55176,0.56348-0.55176
		c0.67188,0,0.75586,0.56396,1.66699,0.56396c0.75586,0,1.30762-0.45557,1.30762-1.57129c0-1.03125-0.79199-1.84668-1.91895-1.84668
		c-0.52832,0-0.76758,0.10791-0.87598,0.13184l-0.21582-0.21582L181.31934,2.72803z"/>
	<path d="M187.52246,5.91797c0.3125-0.25146,0.83984-0.45557,1.43945-0.45557c0.82715,0,1.91895,0.64795,1.91895,2.29102
		c0,1.18701-0.65918,2.62646-2.48242,2.62646c-1.31934,0-2.32715-1.07959-2.32715-3.11816
		c0-2.14697,1.46387-4.25781,3.89844-5.07324l0.11914,0.35938c-1.31934,0.65967-2.45801,1.64355-2.75781,3.27441L187.52246,5.91797z
		 M187.1748,7.89697c0,1.17529,0.56348,1.95508,1.27148,1.95508c0.85156,0,1.33105-0.86377,1.33105-2.14697
		c0-1.16309-0.56348-1.67871-1.21094-1.67871c-0.54004,0-1.01953,0.26367-1.30762,0.81543
		C187.19922,7.11768,187.1748,7.53711,187.1748,7.89697z"/>
</g>
<g>
</g>
<g>
	<path d="M240.96777,1.76855l0.55176,2.30273h-0.46777l-1.21191-1.78711h-1.87012v7.35205l1.12695,0.17969v0.41992h-3.40625V9.81592
		l1.12793-0.17969V2.28418h-1.87109l-1.21191,1.78711h-0.46777l0.55176-2.30273H240.96777z"/>
	<path d="M245.20605,10.23584V9.87598l0.71973-0.17969V6.80566c0-1.04346-0.4082-1.45117-1.11523-1.45117
		c-0.48047,0-0.91211,0.22803-1.15137,0.44385v3.89795l0.71973,0.17969v0.35986h-2.41113V9.87598l0.71973-0.17969V2.53613
		l-0.7793-0.34766V1.93652l1.46289-0.50391h0.28809v3.75391l0.0957,0.07227c0.55176-0.41992,1.05566-0.67188,1.57129-0.67188
		c0.83887,0,1.57129,0.56348,1.57129,1.83496v3.27441l0.71973,0.17969v0.35986H245.20605z"/>
	<path d="M249.93457,9.69629l0.71973,0.17969v0.35986h-2.41016V9.87598l0.71875-0.17969V5.67822l-0.7793-0.33545V5.09082
		l1.46289-0.50391h0.28809V9.69629z M249.44336,1.52881c0.38379,0,0.71973,0.33545,0.71973,0.71924
		c0,0.37207-0.33594,0.70801-0.71973,0.70801c-0.37207,0-0.70801-0.33594-0.70801-0.70801
		C248.73535,1.86426,249.07129,1.52881,249.44336,1.52881z"/>
	<path d="M251.54297,8.43701h0.39648c0.19141,0.88721,0.63477,1.51123,1.37891,1.51123c0.52734,0,0.8877-0.44385,0.8877-0.8877
		c0-0.4917-0.21582-0.76758-1.27148-1.23535c-0.95996-0.40771-1.3916-0.89941-1.3916-1.71484
		c0-0.6958,0.50391-1.52344,1.63086-1.52344c0.5166,0,0.91211,0.14404,1.15137,0.23975l0.2998-0.14355h0.26465v1.71484h-0.34766
		c-0.27637-0.9834-0.87598-1.35547-1.33203-1.35547c-0.50293,0-0.91113,0.34814-0.91113,0.83984s0.43164,0.74365,1.25879,1.12744
		c0.92383,0.41943,1.55957,0.85156,1.55957,1.73877c0,1.06738-0.85156,1.63135-1.82324,1.63135
		c-0.50391,0-1.04297-0.21582-1.23535-0.2998l-0.17969,0.15576h-0.33594V8.43701z"/>
</g>
<g>
</g>
<g>
	<path d="M2.01465,24.69629l0.71973,0.17969v0.35986H0.32373v-0.35986l0.71973-0.17969v-4.01807l-0.77979-0.33545v-0.25195
		l1.46338-0.50391h0.2876V24.69629z M1.52295,16.52881c0.38379,0,0.71973,0.33545,0.71973,0.71924
		c0,0.37207-0.33594,0.70801-0.71973,0.70801c-0.37158,0-0.70752-0.33594-0.70752-0.70801
		C0.81543,16.86426,1.15137,16.52881,1.52295,16.52881z"/>
	<path d="M3.62354,23.43701h0.396c0.19189,0.88721,0.63574,1.51123,1.37939,1.51123c0.52734,0,0.88721-0.44385,0.88721-0.8877
		c0-0.4917-0.21582-0.76758-1.271-1.23535c-0.95947-0.40771-1.3916-0.89941-1.3916-1.71484
		c0-0.6958,0.50391-1.52344,1.63135-1.52344c0.51562,0,0.91162,0.14404,1.15137,0.23975l0.2998-0.14355h0.26367v1.71484H6.62207
		c-0.27588-0.9834-0.87549-1.35547-1.33105-1.35547c-0.50391,0-0.91162,0.34814-0.91162,0.83984s0.43164,0.74365,1.25928,1.12744
		c0.92334,0.41943,1.55908,0.85156,1.55908,1.73877c0,1.06738-0.85156,1.63135-1.82275,1.63135
		c-0.50391,0-1.04346-0.21582-1.23535-0.2998l-0.18018,0.15576H3.62354V23.43701z"/>
	<path d="M13.42627,24.58838h-0.12012c-0.50391,0.52734-0.8877,0.7915-1.37939,0.7915c-0.61133,0-1.09131-0.87549-1.09131-1.41553
		c0-0.52734,0.28809-1.05518,0.94775-1.33105l1.69092-0.73145v-0.50391c0-0.7915-0.33594-1.13916-0.92334-1.13916
		c-0.26416,0-0.65967,0.16748-0.80371,0.38379c0.01172,0.14355,0.07178,0.44336,0.07178,0.68359
		c0,0.31152-0.25195,0.46777-0.52783,0.46777c-0.25146,0-0.46777-0.24023-0.46777-0.58789
		c0-0.26367,0.08398-0.50391,0.33594-0.71973c0.43164-0.2998,1.40332-0.89941,1.8833-0.89941
		c0.86328,0,1.31885,0.59961,1.31885,1.43945v3.05811c0,0.26367,0.04834,0.51562,0.31201,0.51562
		c0.2041,0,0.38379-0.23975,0.46777-0.44385l0.23975,0.09619c-0.2876,0.83936-0.85156,1.09131-1.21143,1.09131
		C13.77393,25.34375,13.46191,25.08008,13.42627,24.58838z M13.48584,22.38135l-1.03125,0.46777
		c-0.26367,0.10791-0.67139,0.43164-0.67139,0.89941c0,0.44385,0.26367,0.82764,0.61133,0.82764
		c0.45605,0,1.09131-0.43164,1.09131-0.99561V22.38135z"/>
</g>
<g>
</g>
<g>
	<path d="M79.25879,24.69629l0.71973,0.17969v0.35986h-2.41064v-0.35986l0.71973-0.17969v-4.01807l-0.77979-0.33545v-0.25195
		l1.46338-0.50391h0.2876V24.69629z M78.76709,16.52881c0.38379,0,0.71973,0.33545,0.71973,0.71924
		c0,0.37207-0.33594,0.70801-0.71973,0.70801c-0.37158,0-0.70752-0.33594-0.70752-0.70801
		C78.05957,16.86426,78.39551,16.52881,78.76709,16.52881z"/>
	<path d="M80.86768,23.43701h0.396c0.19189,0.88721,0.63574,1.51123,1.37939,1.51123c0.52734,0,0.88721-0.44385,0.88721-0.8877
		c0-0.4917-0.21582-0.76758-1.271-1.23535c-0.95947-0.40771-1.3916-0.89941-1.3916-1.71484
		c0-0.6958,0.50391-1.52344,1.63135-1.52344c0.51562,0,0.91162,0.14404,1.15137,0.23975l0.2998-0.14355h0.26367v1.71484h-0.34766
		c-0.27588-0.9834-0.87549-1.35547-1.33105-1.35547c-0.50391,0-0.91162,0.34814-0.91162,0.83984s0.43164,0.74365,1.25928,1.12744
		c0.92334,0.41943,1.55908,0.85156,1.55908,1.73877c0,1.06738-0.85156,1.63135-1.82275,1.63135
		c-0.50391,0-1.04346-0.21582-1.23535-0.2998l-0.18018,0.15576h-0.33594V23.43701z"/>
	<path d="M90.67041,24.58838h-0.12012c-0.50391,0.52734-0.8877,0.7915-1.37939,0.7915c-0.61133,0-1.09131-0.87549-1.09131-1.41553
		c0-0.52734,0.28809-1.05518,0.94775-1.33105l1.69092-0.73145v-0.50391c0-0.7915-0.33594-1.13916-0.92334-1.13916
		c-0.26416,0-0.65967,0.16748-0.80371,0.38379c0.01172,0.14355,0.07178,0.44336,0.07178,0.68359
		c0,0.31152-0.25195,0.46777-0.52783,0.46777c-0.25146,0-0.46777-0.24023-0.46777-0.58789
		c0-0.26367,0.08398-0.50391,0.33594-0.71973c0.43164-0.2998,1.40332-0.89941,1.8833-0.89941
		c0.86328,0,1.31885,0.59961,1.31885,1.43945v3.05811c0,0.26367,0.04834,0.51562,0.31201,0.51562
		c0.2041,0,0.38379-0.23975,0.46777-0.44385l0.23975,0.09619c-0.2876,0.83936-0.85156,1.09131-1.21143,1.09131
		C91.01807,25.34375,90.70605,25.08008,90.67041,24.58838z M90.72998,22.38135l-1.03125,0.46777
		c-0.26367,0.10791-0.67139,0.43164-0.67139,0.89941c0,0.44385,0.26367,0.82764,0.61133,0.82764
		c0.45605,0,1.09131-0.43164,1.09131-0.99561V22.38135z"/>
</g>
<g>
</g>
<g>
	<path d="M170.70898,18.04004c-0.97168,2.02686-2.19434,4.91699-2.66211,6.896c-0.06055,0.23975-0.25195,0.44385-0.71973,0.44385
		c-0.32422,0-0.59961-0.14404-0.49219-0.45605c0.75586-2.18262,2.02734-4.48535,2.99902-6.06836L169.75,18.6875h-3.05859
		l-0.33594,0.87549h-0.47949l0.50391-1.83496h4.10156L170.70898,18.04004z"/>
	<path d="M173.12305,21.52979v-0.10791c-0.76758-0.38379-1.25977-1.0791-1.25977-1.78711c0-1.06738,0.83984-2.05078,2.21875-2.05078
		c1.16406,0,2.0752,0.70752,2.0752,1.71533c0,0.74316-0.46777,1.2832-1.33105,1.84668v0.09619
		c0.76758,0.40771,1.4873,0.91113,1.4873,1.9668c0,1.33105-0.94824,2.1709-2.38672,2.1709
		c-1.31934,0-2.29102-0.70752-2.29102-1.83496C171.63574,22.46533,172.36719,21.9375,173.12305,21.52979z M173.92676,24.86426
		c0.89941,0,1.4873-0.55176,1.4873-1.36768c0-0.82715-0.73242-1.2832-1.65527-1.73877
		c-0.73145,0.33594-1.27148,0.9834-1.27148,1.81104C172.4873,24.27637,172.90723,24.86426,173.92676,24.86426z M174.25,20.93018
		c0.66016-0.41992,0.99609-0.89941,0.99609-1.59521c0-0.76758-0.52832-1.23535-1.24805-1.23535
		c-0.79102,0-1.24707,0.56396-1.24707,1.15137C172.75098,20.06689,173.375,20.54639,174.25,20.93018z"/>
	<path d="M178.51074,23.84473c0.4082,0,0.74414,0.33594,0.74414,0.74365s-0.33594,0.73145-0.74414,0.73145
		c-0.40723,0-0.73145-0.32373-0.73145-0.73145S178.10352,23.84473,178.51074,23.84473z"/>
	<path d="M183.89844,22.12939c-0.3125,0.25195-0.73242,0.4917-1.31934,0.4917c-1.06738,0-2.09961-0.82715-2.09961-2.41064
		c0-1.71484,1.2959-2.62646,2.42285-2.62646c1.3916,0,2.38672,1.1875,2.38672,3.11816c0,2.51855-1.64258,4.70166-4.20996,5.01367
		l0.06055-0.41992c1.45117-0.34766,2.75879-1.37939,2.9502-3.07031L183.89844,22.12939z M184.2334,19.94678
		c0-1.10352-0.45508-1.87109-1.37891-1.87109c-0.79102,0-1.25879,0.6958-1.25879,2.06299c0,1.42725,0.50293,1.93066,1.25879,1.93066
		c0.57617,0,0.92383-0.33545,1.24707-0.86328C184.17383,20.89404,184.2334,20.51025,184.2334,19.94678z"/>
	<path d="M189.35742,19.04736c-0.02344,1.35498-0.85156,2.2666-1.72656,2.2666c-0.76758,0-1.2959-0.64746-1.2959-1.52295
		c0-1.23535,0.94727-2.20703,1.77539-2.20703c0.54004,0,0.97168,0.31201,1.15137,0.83984
		c0.0957,0.25146,0.45605,0.40771,0.80371,0.40771c0.37109,0,0.73145-0.13232,1.00684-0.37207
		c0.1084-0.2998,0.32422-0.80322,0.66016-0.80322c0.12012,0,0.28809,0.07178,0.28809,0.27539
		c0,0.25195-0.28809,0.56396-0.52832,0.73193l-2.51855,3.43018l-2.3623,3.38184l-0.39648-0.31152l2.45898-3.29834l1.90723-2.72266
		l-0.02441-0.02393c-0.16797,0.09619-0.39551,0.14404-0.5752,0.14404c-0.22852,0-0.45605-0.09619-0.58789-0.22803
		L189.35742,19.04736z M187.16309,20.05469c0,0.50391,0.21582,0.76758,0.5752,0.76758c0.45605,0,1.05566-0.59961,1.05566-1.94287
		c0-0.50391-0.24023-0.75586-0.54004-0.75586C187.72656,18.12354,187.16309,19.10742,187.16309,20.05469z M190.79688,21.6499
		c0.71973,0,1.24707,0.52783,1.24707,1.41504c0,1.46338-0.91113,2.31494-1.70312,2.31494
		c-0.79102,0-1.31934-0.64795-1.31934-1.52344C189.02148,22.62109,189.96875,21.6499,190.79688,21.6499z M189.84961,24.12061
		c0,0.50342,0.23926,0.76758,0.55176,0.76758c0.45508,0,1.0791-0.56396,1.0791-1.94287c0-0.50391-0.24023-0.75586-0.54004-0.75586
		C190.41309,22.18945,189.84961,23.17285,189.84961,24.12061z"/>
</g>
<g>
</g>
<g>
	<path d="M242.31445,24.69629l0.71973,0.17969v0.35986h-2.41016v-0.35986l0.71875-0.17969v-4.01807l-0.7793-0.33545v-0.25195
		l1.46387-0.50391h0.28711V24.69629z M241.82324,16.52881c0.38379,0,0.71973,0.33545,0.71973,0.71924
		c0,0.37207-0.33594,0.70801-0.71973,0.70801c-0.37207,0-0.70801-0.33594-0.70801-0.70801
		C241.11523,16.86426,241.45117,16.52881,241.82324,16.52881z"/>
	<path d="M243.92285,23.43701h0.39551c0.19238,0.88721,0.63574,1.51123,1.37988,1.51123c0.52734,0,0.8877-0.44385,0.8877-0.8877
		c0-0.4917-0.21582-0.76758-1.27148-1.23535c-0.95996-0.40771-1.3916-0.89941-1.3916-1.71484
		c0-0.6958,0.50391-1.52344,1.63086-1.52344c0.5166,0,0.91211,0.14404,1.15137,0.23975l0.30078-0.14355h0.26367v1.71484h-0.34766
		c-0.27637-0.9834-0.87598-1.35547-1.33203-1.35547c-0.50391,0-0.91113,0.34814-0.91113,0.83984s0.43164,0.74365,1.25879,1.12744
		c0.92383,0.41943,1.55957,0.85156,1.55957,1.73877c0,1.06738-0.85156,1.63135-1.82324,1.63135
		c-0.50391,0-1.04297-0.21582-1.23535-0.2998l-0.17969,0.15576h-0.33594V23.43701z"/>
	<path d="M253.72559,24.58838h-0.12012c-0.50293,0.52734-0.88672,0.7915-1.37891,0.7915c-0.61133,0-1.09082-0.87549-1.09082-1.41553
		c0-0.52734,0.28711-1.05518,0.94727-1.33105l1.69043-0.73145v-0.50391c0-0.7915-0.33496-1.13916-0.92285-1.13916
		c-0.26367,0-0.66016,0.16748-0.80371,0.38379c0.01172,0.14355,0.07227,0.44336,0.07227,0.68359
		c0,0.31152-0.25195,0.46777-0.52832,0.46777c-0.25195,0-0.46777-0.24023-0.46777-0.58789
		c0-0.26367,0.08398-0.50391,0.33594-0.71973c0.43164-0.2998,1.40332-0.89941,1.88281-0.89941
		c0.86426,0,1.31934,0.59961,1.31934,1.43945v3.05811c0,0.26367,0.04785,0.51562,0.3125,0.51562
		c0.20312,0,0.38379-0.23975,0.46777-0.44385l0.23926,0.09619c-0.28809,0.83936-0.85156,1.09131-1.21094,1.09131
		C254.07324,25.34375,253.76172,25.08008,253.72559,24.58838z M253.78613,22.38135l-1.03223,0.46777
		c-0.26367,0.10791-0.6709,0.43164-0.6709,0.89941c0,0.44385,0.26367,0.82764,0.61133,0.82764
		c0.45605,0,1.0918-0.43164,1.0918-0.99561V22.38135z"/>
</g>
<g>
</g>
<g>
	<path d="M2.01465,39.69629l0.71973,0.17969v0.35938H0.32373v-0.35938l0.71973-0.17969v-7.16016l-0.77979-0.34766v-0.25195
		l1.46338-0.50391h0.2876V39.69629z"/>
	<path d="M4.45117,36.91309c-0.01172,0.1084-0.01172,0.22852-0.01172,0.33594c0,1.52344,0.82715,2.2793,1.70312,2.2793
		c0.63525,0,1.16309-0.28809,1.59473-0.9834l0.33594,0.22754c-0.35986,0.69531-1.01953,1.60742-2.21875,1.60742
		c-1.46338,0-2.38672-1.40332-2.38672-2.84277c0-1.64355,0.97168-2.9502,2.35059-2.9502c1.34326,0,2.13477,1.13965,2.13477,1.94336
		c0,0.22754-0.01172,0.38281-0.13184,0.38281H4.45117z M4.51123,36.43457h2.20703c0.04785-0.13281,0.05957-0.3125,0.05957-0.43262
		c0-0.5752-0.40771-0.92285-0.97119-0.92285C5.06299,35.0791,4.66699,35.67871,4.51123,36.43457z"/>
	<path d="M10.42676,35.36621v4.29395l0.93555,0.21582v0.35938H8.73584v-0.35938l0.71973-0.17969v-4.33008h-0.7915v-0.34766
		l0.7915-0.49219v-0.50293c0-1.41504,1.10352-2.65137,2.44678-2.65137c0.87549,0,1.35498,0.43262,1.35498,0.92383
		c0,0.32422-0.23975,0.54004-0.5874,0.54004c-0.68359,0-0.67188-0.8877-1.28369-0.8877c-0.63525,0-0.95947,1.11523-0.95947,2.00293
		v0.79199h1.45117v0.62305H10.42676z"/>
	<path d="M12.34717,35.36621v-0.44336l0.6958-0.43164l0.63574-1.10352h0.37158v1.35547h1.57129v0.62305h-1.57129v3.57422
		c0,0.54004,0.25195,0.79102,0.64795,0.79102c0.25146,0,0.61133-0.05859,0.92334-0.23926l0.15576,0.31152
		c-0.22754,0.22852-0.76758,0.57617-1.46289,0.57617c-0.87549,0-1.23535-0.51562-1.23535-1.47461v-3.53906H12.34717z"/>
	<path d="M18.82715,35.36621v-0.44336l0.6958-0.43164l0.63574-1.10352h0.37158v1.35547h1.57129v0.62305h-1.57129v3.57422
		c0,0.54004,0.25195,0.79102,0.64795,0.79102c0.25146,0,0.61133-0.05859,0.92334-0.23926l0.15576,0.31152
		c-0.22754,0.22852-0.76758,0.57617-1.46289,0.57617c-0.87549,0-1.23535-0.51562-1.23535-1.47461v-3.53906H18.82715z"/>
	<path d="M25.48584,39.58887h-0.12012c-0.50391,0.52734-0.8877,0.79102-1.37939,0.79102c-0.61133,0-1.09131-0.875-1.09131-1.41602
		c0-0.52734,0.28809-1.05469,0.94775-1.33008l1.69092-0.73242v-0.50391c0-0.79102-0.33594-1.13867-0.92334-1.13867
		c-0.26416,0-0.65967,0.16797-0.80371,0.38379c0.01172,0.14355,0.07178,0.44336,0.07178,0.68359
		c0,0.31152-0.25195,0.46777-0.52783,0.46777c-0.25146,0-0.46777-0.24023-0.46777-0.58789
		c0-0.26367,0.08398-0.50391,0.33594-0.71973c0.43164-0.2998,1.40332-0.89941,1.8833-0.89941
		c0.86328,0,1.31885,0.59961,1.31885,1.43945v3.05859c0,0.26367,0.04834,0.51562,0.31201,0.51562
		c0.2041,0,0.38379-0.24023,0.46777-0.44434l0.23975,0.09668c-0.2876,0.83887-0.85156,1.09082-1.21143,1.09082
		C25.8335,40.34375,25.52148,40.08008,25.48584,39.58887z M25.54541,37.38184l-1.03125,0.4668
		c-0.26367,0.1084-0.67139,0.43164-0.67139,0.90039c0,0.44336,0.26367,0.82715,0.61133,0.82715
		c0.45605,0,1.09131-0.43164,1.09131-0.99512V37.38184z"/>
	<path d="M28.41455,32.53613l-0.7793-0.34766v-0.25195l1.46289-0.50391h0.28809v3.75391l0.0957,0.07227
		c0.55176-0.41992,1.05566-0.67188,1.57129-0.67188c0.85156,0,1.87109,0.75586,1.87109,2.65039
		c0,2.21875-1.33154,3.14258-2.63867,3.14258c-0.95947,0-1.72705-0.50391-1.87109-1.21094V32.53613z M29.38623,39.04785
		c0,0.56445,0.44385,0.82812,0.95947,0.82812c1.01953,0,1.59521-0.91211,1.59521-2.39844c0-1.37891-0.63574-2.11133-1.40332-2.11133
		c-0.47998,0-0.91162,0.25195-1.15137,0.46875V39.04785z"/>
</g>
<g>
</g>
<g>
	<path d="M56.92725,37.30957c0,1.58301,0.74365,2.1709,1.6792,2.1709c0.65967,0,1.19922-0.45605,1.4873-0.95996l0.37158,0.17969
		c-0.38379,0.97266-1.12744,1.67969-2.1709,1.67969c-1.46289,0-2.41064-1.30762-2.41064-2.85449
		c0-1.63184,1.07959-2.93848,2.61475-2.93848c1.15137,0,1.81104,0.56348,1.81104,1.19922c0,0.32422-0.15625,0.50391-0.57568,0.50391
		c-0.76758,0-0.44385-1.24805-1.37939-1.24805C57.6709,35.04199,56.92725,35.93066,56.92725,37.30957z"/>
	<path d="M62.15918,36.91309c-0.01172,0.1084-0.01172,0.22852-0.01172,0.33594c0,1.52344,0.82715,2.2793,1.70312,2.2793
		c0.63525,0,1.16309-0.28809,1.59473-0.9834l0.33594,0.22754c-0.35986,0.69531-1.01953,1.60742-2.21875,1.60742
		c-1.46338,0-2.38672-1.40332-2.38672-2.84277c0-1.64355,0.97168-2.9502,2.35059-2.9502c1.34326,0,2.13477,1.13965,2.13477,1.94336
		c0,0.22754-0.01172,0.38281-0.13184,0.38281H62.15918z M62.21924,36.43457h2.20703c0.04785-0.13281,0.05957-0.3125,0.05957-0.43262
		c0-0.5752-0.40771-0.92285-0.97119-0.92285C62.771,35.0791,62.375,35.67871,62.21924,36.43457z"/>
	<path d="M69.68213,40.23535v-0.35938l0.71973-0.17969v-2.95117c0-1.04297-0.40771-1.39062-1.11572-1.39062
		c-0.47949,0-0.91113,0.22852-1.15137,0.44336v3.89844l0.71973,0.17969v0.35938h-2.41064v-0.35938l0.71973-0.17969v-4.01758
		l-0.77979-0.33594v-0.25195l1.42725-0.50391h0.28809l0.07178,0.59961l0.09619,0.07227
		c0.56348-0.41992,1.01904-0.67188,1.53516-0.67188c0.83936,0,1.5708,0.56348,1.5708,1.83496v3.27441l0.71973,0.17969v0.35938
		H69.68213z"/>
	<path d="M72.53955,35.36621v-0.44336l0.6958-0.43164l0.63574-1.10352h0.37158v1.35547h1.57129v0.62305h-1.57129v3.57422
		c0,0.54004,0.25195,0.79102,0.64795,0.79102c0.25146,0,0.61133-0.05859,0.92334-0.23926l0.15576,0.31152
		c-0.22754,0.22852-0.76758,0.57617-1.46289,0.57617c-0.87549,0-1.23535-0.51562-1.23535-1.47461v-3.53906H72.53955z"/>
	<path d="M77.33887,36.91309c-0.01172,0.1084-0.01172,0.22852-0.01172,0.33594c0,1.52344,0.82715,2.2793,1.70312,2.2793
		c0.63525,0,1.16309-0.28809,1.59473-0.9834l0.33594,0.22754c-0.35986,0.69531-1.01953,1.60742-2.21875,1.60742
		c-1.46338,0-2.38672-1.40332-2.38672-2.84277c0-1.64355,0.97168-2.9502,2.35059-2.9502c1.34326,0,2.13477,1.13965,2.13477,1.94336
		c0,0.22754-0.01172,0.38281-0.13184,0.38281H77.33887z M77.39893,36.43457h2.20703c0.04785-0.13281,0.05957-0.3125,0.05957-0.43262
		c0-0.5752-0.40771-0.92285-0.97119-0.92285C77.95068,35.0791,77.55469,35.67871,77.39893,36.43457z"/>
	<path d="M84.25,35.29395c-0.31152,0.20508-0.7793,0.78027-0.93555,1.12793v3.27441l0.94775,0.17969v0.35938h-2.63867v-0.35938
		l0.71973-0.17969v-4.01758l-0.77979-0.33594v-0.25195l1.43945-0.50391h0.27588l0.08398,0.85156l0.10791,0.04785
		c0.50342-0.5752,0.88721-0.89941,1.36719-0.89941c0.39551,0,0.71973,0.27539,0.71973,0.75586
		c0,0.41992-0.22803,0.71875-0.61182,0.71875c-0.33594,0-0.56396-0.23926-0.56396-0.65918L84.25,35.29395z"/>
	<path d="M86.92676,36.91309c-0.01172,0.1084-0.01172,0.22852-0.01172,0.33594c0,1.52344,0.82715,2.2793,1.70312,2.2793
		c0.63525,0,1.16309-0.28809,1.59473-0.9834l0.33594,0.22754c-0.35986,0.69531-1.01953,1.60742-2.21875,1.60742
		c-1.46338,0-2.38672-1.40332-2.38672-2.84277c0-1.64355,0.97168-2.9502,2.35059-2.9502c1.34326,0,2.13477,1.13965,2.13477,1.94336
		c0,0.22754-0.01172,0.38281-0.13184,0.38281H86.92676z M86.98682,36.43457h2.20703c0.04785-0.13281,0.05957-0.3125,0.05957-0.43262
		c0-0.5752-0.40771-0.92285-0.97119-0.92285C87.53857,35.0791,87.14258,35.67871,86.98682,36.43457z"/>
	<path d="M96.14062,39.36035l0.69531,0.33594v0.32422l-1.11475,0.35938h-0.28809l-0.2998-0.56445h-0.10791
		c-0.55176,0.4082-1.06738,0.56445-1.6792,0.56445c-0.81543,0-2.02686-0.81543-2.02686-2.74609
		c0-1.89551,1.2832-3.04688,2.57861-3.04688c0.53955,0,0.9834,0.10742,1.27148,0.19141v-2.24219l-0.81592-0.34766v-0.25195
		l1.49951-0.50391h0.2876V39.36035z M95.16943,35.69043c-0.24023-0.33594-0.70752-0.59961-1.19971-0.59961
		c-0.64746,0-1.64307,0.58789-1.64307,2.25391c0,1.5,0.87549,2.29102,1.57129,2.29102c0.52783,0,1.00732-0.29883,1.27148-0.53906
		V35.69043z"/>
	<path d="M100.04297,35.36621v-0.44336l0.69531-0.43164l0.63574-1.10352h0.37207v1.35547h1.57129v0.62305h-1.57129v3.57422
		c0,0.54004,0.25195,0.79102,0.64746,0.79102c0.25195,0,0.6123-0.05859,0.92383-0.23926l0.15625,0.31152
		c-0.22852,0.22852-0.76758,0.57617-1.46387,0.57617c-0.875,0-1.23535-0.51562-1.23535-1.47461v-3.53906H100.04297z"/>
	<path d="M106.70117,39.58887h-0.12012c-0.50293,0.52734-0.88672,0.79102-1.37891,0.79102c-0.61133,0-1.09082-0.875-1.09082-1.41602
		c0-0.52734,0.28711-1.05469,0.94727-1.33008l1.69043-0.73242v-0.50391c0-0.79102-0.33496-1.13867-0.92285-1.13867
		c-0.26367,0-0.66016,0.16797-0.80371,0.38379c0.01172,0.14355,0.07227,0.44336,0.07227,0.68359
		c0,0.31152-0.25195,0.46777-0.52832,0.46777c-0.25195,0-0.46777-0.24023-0.46777-0.58789
		c0-0.26367,0.08398-0.50391,0.33594-0.71973c0.43164-0.2998,1.40332-0.89941,1.88281-0.89941
		c0.86426,0,1.31934,0.59961,1.31934,1.43945v3.05859c0,0.26367,0.04785,0.51562,0.3125,0.51562
		c0.20312,0,0.38379-0.24023,0.4668-0.44434l0.24023,0.09668c-0.28809,0.83887-0.85156,1.09082-1.21094,1.09082
		C107.04883,40.34375,106.7373,40.08008,106.70117,39.58887z M106.76172,37.38184l-1.03125,0.4668
		c-0.26465,0.1084-0.67188,0.43164-0.67188,0.90039c0,0.44336,0.26367,0.82715,0.61133,0.82715
		c0.45605,0,1.0918-0.43164,1.0918-0.99512V37.38184z"/>
	<path d="M109.63086,32.53613l-0.78027-0.34766v-0.25195l1.46387-0.50391h0.28711v3.75391l0.09668,0.07227
		c0.55176-0.41992,1.05469-0.67188,1.57129-0.67188c0.85156,0,1.87012,0.75586,1.87012,2.65039
		c0,2.21875-1.33105,3.14258-2.6377,3.14258c-0.95996,0-1.72754-0.50391-1.87109-1.21094V32.53613z M110.60156,39.04785
		c0,0.56445,0.44434,0.82812,0.95996,0.82812c1.01953,0,1.59473-0.91211,1.59473-2.39844c0-1.37891-0.63574-2.11133-1.40332-2.11133
		c-0.47949,0-0.91113,0.25195-1.15137,0.46875V39.04785z"/>
</g>
<g>
</g>
<g>
	<path d="M144.57324,39.36035l0.69531,0.33594v0.32422l-1.11523,0.35938h-0.28809l-0.2998-0.56445h-0.1084
		c-0.55078,0.4082-1.06738,0.56445-1.67871,0.56445c-0.81543,0-2.02637-0.81543-2.02637-2.74609
		c0-1.89551,1.2832-3.04688,2.57812-3.04688c0.54004,0,0.9834,0.10742,1.27148,0.19141v-2.24219l-0.81543-0.34766v-0.25195
		l1.49902-0.50391h0.28809V39.36035z M143.60156,35.69043c-0.24023-0.33594-0.70801-0.59961-1.19922-0.59961
		c-0.64746,0-1.64355,0.58789-1.64355,2.25391c0,1.5,0.87598,2.29102,1.57129,2.29102c0.52734,0,1.00781-0.29883,1.27148-0.53906
		V35.69043z"/>
	<path d="M146.96289,36.91309c-0.0127,0.1084-0.0127,0.22852-0.0127,0.33594c0,1.52344,0.82812,2.2793,1.70312,2.2793
		c0.63574,0,1.16406-0.28809,1.5957-0.9834l0.33594,0.22754c-0.36035,0.69531-1.01953,1.60742-2.21875,1.60742
		c-1.46387,0-2.38672-1.40332-2.38672-2.84277c0-1.64355,0.9707-2.9502,2.35059-2.9502c1.34277,0,2.13477,1.13965,2.13477,1.94336
		c0,0.22754-0.0127,0.38281-0.13184,0.38281H146.96289z M147.02246,36.43457h2.20703
		c0.04785-0.13281,0.05957-0.3125,0.05957-0.43262c0-0.5752-0.40723-0.92285-0.97168-0.92285
		C147.57422,35.0791,147.17871,35.67871,147.02246,36.43457z"/>
	<path d="M152.39844,37.30957c0,1.58301,0.74316,2.1709,1.67871,2.1709c0.66016,0,1.2002-0.45605,1.4873-0.95996l0.37207,0.17969
		c-0.38379,0.97266-1.12695,1.67969-2.1709,1.67969c-1.46289,0-2.41016-1.30762-2.41016-2.85449
		c0-1.63184,1.0791-2.93848,2.61426-2.93848c1.15137,0,1.81055,0.56348,1.81055,1.19922c0,0.32422-0.15527,0.50391-0.5752,0.50391
		c-0.76758,0-0.44434-1.24805-1.37891-1.24805C153.1416,35.04199,152.39844,35.93066,152.39844,37.30957z"/>
	<path d="M158.25391,39.69629l0.71973,0.17969v0.35938h-2.41016v-0.35938l0.71875-0.17969v-4.01758l-0.7793-0.33594v-0.25195
		l1.46387-0.50391h0.28711V39.69629z M157.7627,31.52832c0.38379,0,0.71973,0.33594,0.71973,0.71973
		c0,0.37207-0.33594,0.70801-0.71973,0.70801c-0.37207,0-0.70801-0.33594-0.70801-0.70801
		C157.05469,31.86426,157.39062,31.52832,157.7627,31.52832z"/>
	<path d="M162.82617,40.23535v-0.35938l0.71973-0.17969v-2.95117c0-1.04297-0.39648-1.39062-1.10352-1.39062
		c-0.48047,0-0.91211,0.22852-1.15137,0.44336v3.89844l0.71973,0.17969v0.35938h-2.41113v-0.35938l0.71973-0.17969v-4.01758
		l-0.7793-0.33594v-0.25195l1.42676-0.50391h0.28809l0.07227,0.59961l0.0957,0.07227
		c0.56348-0.41992,1.01953-0.67188,1.53516-0.67188c0.5752,0,1.09082,0.26367,1.35547,0.83984
		c0.59961-0.44336,1.18652-0.83984,1.8584-0.83984c0.83984,0,1.57129,0.56348,1.57129,1.83496v3.27441l0.71973,0.17969v0.35938
		h-2.41113v-0.35938l0.71973-0.17969v-2.95117c0-1.04297-0.40723-1.39062-1.10352-1.39062
		c-0.38379,0-0.86328,0.24023-1.1875,0.44336c0.0127,0.15625,0.03613,0.32422,0.03613,0.49219v3.40625l0.71973,0.17969v0.35938
		H162.82617z"/>
	<path d="M171.84961,39.58887h-0.12012c-0.50293,0.52734-0.88672,0.79102-1.37891,0.79102c-0.61133,0-1.09082-0.875-1.09082-1.41602
		c0-0.52734,0.28711-1.05469,0.94727-1.33008l1.69043-0.73242v-0.50391c0-0.79102-0.33496-1.13867-0.92285-1.13867
		c-0.26367,0-0.66016,0.16797-0.80371,0.38379c0.01172,0.14355,0.07227,0.44336,0.07227,0.68359
		c0,0.31152-0.25195,0.46777-0.52832,0.46777c-0.25195,0-0.46777-0.24023-0.46777-0.58789
		c0-0.26367,0.08398-0.50391,0.33594-0.71973c0.43164-0.2998,1.40332-0.89941,1.88281-0.89941
		c0.86426,0,1.31934,0.59961,1.31934,1.43945v3.05859c0,0.26367,0.04785,0.51562,0.3125,0.51562
		c0.20312,0,0.38379-0.24023,0.4668-0.44434l0.24023,0.09668c-0.28809,0.83887-0.85156,1.09082-1.21094,1.09082
		C172.19727,40.34375,171.88574,40.08008,171.84961,39.58887z M171.91016,37.38184l-1.03125,0.4668
		c-0.26465,0.1084-0.67188,0.43164-0.67188,0.90039c0,0.44336,0.26367,0.82715,0.61133,0.82715
		c0.45605,0,1.0918-0.43164,1.0918-0.99512V37.38184z"/>
	<path d="M175.9541,39.69629l0.71973,0.17969v0.35938h-2.41016v-0.35938l0.71875-0.17969v-7.16016l-0.7793-0.34766v-0.25195
		l1.46289-0.50391h0.28809V39.69629z"/>
	<path d="M178.50977,38.84473c0.4082,0,0.74414,0.33594,0.74414,0.74414c0,0.40723-0.33594,0.73047-0.74414,0.73047
		c-0.40723,0-0.73145-0.32324-0.73145-0.73047C177.77832,39.18066,178.10254,38.84473,178.50977,38.84473z"/>
	<path d="M180.29883,35.36621v-0.44336l0.69531-0.43164l0.63574-1.10352h0.37207v1.35547h1.57129v0.62305h-1.57129v3.57422
		c0,0.54004,0.25195,0.79102,0.64746,0.79102c0.25195,0,0.6123-0.05859,0.92383-0.23926l0.15625,0.31152
		c-0.22852,0.22852-0.76758,0.57617-1.46387,0.57617c-0.875,0-1.23535-0.51562-1.23535-1.47461v-3.53906H180.29883z"/>
	<path d="M186.95703,39.58887h-0.12012c-0.50293,0.52734-0.88672,0.79102-1.37891,0.79102c-0.61133,0-1.09082-0.875-1.09082-1.41602
		c0-0.52734,0.28711-1.05469,0.94727-1.33008l1.69043-0.73242v-0.50391c0-0.79102-0.33496-1.13867-0.92285-1.13867
		c-0.26367,0-0.66016,0.16797-0.80371,0.38379c0.01172,0.14355,0.07227,0.44336,0.07227,0.68359
		c0,0.31152-0.25195,0.46777-0.52832,0.46777c-0.25195,0-0.46777-0.24023-0.46777-0.58789
		c0-0.26367,0.08398-0.50391,0.33594-0.71973c0.43164-0.2998,1.40332-0.89941,1.88281-0.89941
		c0.86426,0,1.31934,0.59961,1.31934,1.43945v3.05859c0,0.26367,0.04785,0.51562,0.3125,0.51562
		c0.20312,0,0.38379-0.24023,0.4668-0.44434l0.24023,0.09668c-0.28809,0.83887-0.85156,1.09082-1.21094,1.09082
		C187.30469,40.34375,186.99316,40.08008,186.95703,39.58887z M187.01758,37.38184l-1.03125,0.4668
		c-0.26465,0.1084-0.67188,0.43164-0.67188,0.90039c0,0.44336,0.26367,0.82715,0.61133,0.82715
		c0.45605,0,1.0918-0.43164,1.0918-0.99512V37.38184z"/>
	<path d="M189.88672,32.53613l-0.78027-0.34766v-0.25195l1.46387-0.50391h0.28711v3.75391l0.09668,0.07227
		c0.55176-0.41992,1.05469-0.67188,1.57129-0.67188c0.85156,0,1.87012,0.75586,1.87012,2.65039
		c0,2.21875-1.33105,3.14258-2.6377,3.14258c-0.95996,0-1.72754-0.50391-1.87109-1.21094V32.53613z M190.85742,39.04785
		c0,0.56445,0.44434,0.82812,0.95996,0.82812c1.01953,0,1.59473-0.91211,1.59473-2.39844c0-1.37891-0.63574-2.11133-1.40332-2.11133
		c-0.47949,0-0.91113,0.25195-1.15137,0.46875V39.04785z"/>
</g>
<g>
</g>
<g>
	<path d="M218.15918,35.29395c-0.3125,0.20508-0.78027,0.78027-0.93555,1.12793v3.27441l0.94727,0.17969v0.35938h-2.63867v-0.35938
		l0.71973-0.17969v-4.01758l-0.7793-0.33594v-0.25195l1.43848-0.50391h0.27637l0.08398,0.85156l0.10742,0.04785
		c0.50391-0.5752,0.8877-0.89941,1.36719-0.89941c0.39648,0,0.71973,0.27539,0.71973,0.75586
		c0,0.41992-0.22754,0.71875-0.61133,0.71875c-0.33594,0-0.56348-0.23926-0.56348-0.65918L218.15918,35.29395z"/>
	<path d="M221.56738,39.69629l0.71973,0.17969v0.35938h-2.41016v-0.35938l0.71875-0.17969v-4.01758l-0.7793-0.33594v-0.25195
		l1.46289-0.50391h0.28809V39.69629z M221.07617,31.52832c0.38379,0,0.71973,0.33594,0.71973,0.71973
		c0,0.37207-0.33594,0.70801-0.71973,0.70801c-0.37207,0-0.70801-0.33594-0.70801-0.70801
		C220.36816,31.86426,220.7041,31.52832,221.07617,31.52832z"/>
	<path d="M223.77539,40.36816c-0.31152-0.27637-0.56348-0.58789-0.38379-0.99609l0.46777-1.04297V38.125
		c-0.44336-0.2998-0.79102-0.79199-0.79102-1.54785c0-1.05469,0.73145-1.94238,2.00293-1.94238
		c0.49121,0,0.88672,0.13184,1.22266,0.36035l1.65527-0.0957v0.85156l-1.10352-0.07227
		c0.12012,0.23926,0.2041,0.50391,0.2041,0.82715c0,1.22363-0.75586,1.97949-2.0625,1.97949
		c-0.19238,0-0.39648-0.02441-0.49219-0.06055c-0.16797,0.04785-0.28809,0.35938-0.28809,0.51562
		c0,0.3125,0.16797,0.54004,0.55176,0.54004h1.69141c0.81543,0,1.40332,0.28809,1.40332,1.22363
		c0,1.36719-1.51172,2.53027-3.38184,2.53027c-0.81641,0-1.36719-0.5166-1.36719-1.27148c0-0.51562,0.28711-1.09082,0.6709-1.43945
		V40.36816z M226.00684,40.36816h-1.45117c-0.44434,0.14355-0.64844,0.4668-0.64844,1.01953
		c0,0.68359,0.43262,1.09082,1.36719,1.09082c0.87598,0,1.85938-0.49121,1.85938-1.37891
		C227.13379,40.57129,226.71387,40.36816,226.00684,40.36816z M225.04688,35.09082c-0.5752,0-0.97168,0.55176-0.97168,1.46289
		c0,1.01953,0.4082,1.53516,0.97168,1.53516c0.63574,0,1.05566-0.55176,1.05566-1.57031
		C226.10254,35.80957,225.73047,35.09082,225.04688,35.09082z"/>
	<path d="M231.66992,40.23535v-0.35938l0.71973-0.17969v-2.89062c0-1.04297-0.4082-1.45117-1.11523-1.45117
		c-0.48047,0-0.91211,0.22852-1.15137,0.44336v3.89844l0.71973,0.17969v0.35938h-2.41113v-0.35938l0.71973-0.17969v-7.16016
		l-0.7793-0.34766v-0.25195l1.46289-0.50391h0.28809v3.75391l0.0957,0.07227c0.55176-0.41992,1.05566-0.67188,1.57129-0.67188
		c0.83887,0,1.57129,0.56348,1.57129,1.83496v3.27441l0.71875,0.17969v0.35938H231.66992z"/>
	<path d="M234.54004,35.36621v-0.44336l0.69629-0.43164l0.63477-1.10352h0.37207v1.35547h1.57129v0.62305h-1.57129v3.57422
		c0,0.54004,0.25195,0.79102,0.64746,0.79102c0.25195,0,0.6123-0.05859,0.92383-0.23926l0.15625,0.31152
		c-0.22852,0.22852-0.76758,0.57617-1.46387,0.57617c-0.875,0-1.23535-0.51562-1.23535-1.47461v-3.53906H234.54004z"/>
	<path d="M241.01953,35.36621v-0.44336l0.69531-0.43164l0.63574-1.10352h0.37207v1.35547h1.57129v0.62305h-1.57129v3.57422
		c0,0.54004,0.25195,0.79102,0.64746,0.79102c0.25195,0,0.6123-0.05859,0.92383-0.23926l0.15625,0.31152
		c-0.22852,0.22852-0.76758,0.57617-1.46387,0.57617c-0.875,0-1.23535-0.51562-1.23535-1.47461v-3.53906H241.01953z"/>
	<path d="M247.67773,39.58887h-0.12012c-0.50293,0.52734-0.88672,0.79102-1.37891,0.79102c-0.61133,0-1.09082-0.875-1.09082-1.41602
		c0-0.52734,0.28711-1.05469,0.94727-1.33008l1.69043-0.73242v-0.50391c0-0.79102-0.33496-1.13867-0.92285-1.13867
		c-0.26367,0-0.66016,0.16797-0.80371,0.38379c0.01172,0.14355,0.07227,0.44336,0.07227,0.68359
		c0,0.31152-0.25195,0.46777-0.52832,0.46777c-0.25195,0-0.46777-0.24023-0.46777-0.58789
		c0-0.26367,0.08398-0.50391,0.33594-0.71973c0.43164-0.2998,1.40332-0.89941,1.88281-0.89941
		c0.86426,0,1.31934,0.59961,1.31934,1.43945v3.05859c0,0.26367,0.04785,0.51562,0.3125,0.51562
		c0.20312,0,0.38379-0.24023,0.4668-0.44434l0.24023,0.09668c-0.28809,0.83887-0.85156,1.09082-1.21094,1.09082
		C248.02539,40.34375,247.71387,40.08008,247.67773,39.58887z M247.73828,37.38184l-1.03125,0.4668
		c-0.26465,0.1084-0.67188,0.43164-0.67188,0.90039c0,0.44336,0.26367,0.82715,0.61133,0.82715
		c0.45605,0,1.0918-0.43164,1.0918-0.99512V37.38184z"/>
	<path d="M250.60742,32.53613l-0.78027-0.34766v-0.25195l1.46387-0.50391h0.28711v3.75391l0.09668,0.07227
		c0.55176-0.41992,1.05469-0.67188,1.57129-0.67188c0.85156,0,1.87012,0.75586,1.87012,2.65039
		c0,2.21875-1.33105,3.14258-2.6377,3.14258c-0.95996,0-1.72754-0.50391-1.87109-1.21094V32.53613z M251.57812,39.04785
		c0,0.56445,0.44434,0.82812,0.95996,0.82812c1.01953,0,1.59473-0.91211,1.59473-2.39844c0-1.37891-0.63574-2.11133-1.40332-2.11133
		c-0.47949,0-0.91113,0.25195-1.15137,0.46875V39.04785z"/>
</g>
<g>
</g>
<g>
	<path d="M0.56348,53.43652h0.396c0.19189,0.8877,0.63574,1.51172,1.37939,1.51172c0.52734,0,0.88721-0.44336,0.88721-0.8877
		c0-0.49121-0.21582-0.76758-1.271-1.23535c-0.95947-0.4082-1.3916-0.89941-1.3916-1.71484
		c0-0.69531,0.50391-1.52344,1.63135-1.52344c0.51562,0,0.91162,0.14453,1.15137,0.24023l0.2998-0.14453h0.26367v1.71484H3.56201
		c-0.27588-0.98242-0.87549-1.35547-1.33105-1.35547c-0.50391,0-0.91162,0.34863-0.91162,0.83984
		c0,0.49219,0.43164,0.74414,1.25928,1.12793c0.92334,0.41895,1.55908,0.85156,1.55908,1.73926
		c0,1.06641-0.85156,1.63086-1.82275,1.63086c-0.50391,0-1.04346-0.21582-1.23535-0.2998l-0.18018,0.15527H0.56348V53.43652z"/>
	<path d="M4.90771,50.36621v-0.44336l0.6958-0.43164l0.63574-1.10352h0.37158v1.35547h1.57129v0.62305H6.61084v3.57422
		c0,0.54004,0.25195,0.79102,0.64795,0.79102c0.25146,0,0.61133-0.05859,0.92334-0.23926l0.15576,0.31152
		c-0.22754,0.22852-0.76758,0.57617-1.46289,0.57617c-0.87549,0-1.23535-0.51562-1.23535-1.47461v-3.53906H4.90771z"/>
	<path d="M11.27832,49.58691c1.40332,0,2.54248,1.0918,2.54248,2.90234c0,1.91895-1.13916,2.89062-2.54248,2.89062
		s-2.55469-1.03125-2.55469-2.89062C8.72363,50.70215,9.875,49.58691,11.27832,49.58691z M11.27832,54.87598
		c0.75537,0,1.42725-0.47949,1.42725-2.39844c0-1.77539-0.67188-2.38672-1.42725-2.38672
		c-0.75586,0-1.42725,0.63574-1.42725,2.38672C9.85107,54.2041,10.52246,54.87598,11.27832,54.87598z"/>
	<path d="M16.22266,55.2002v2.375l1.00781,0.17969v0.35938h-2.69873v-0.35938l0.71973-0.17969v-6.89648l-0.77979-0.33594v-0.25195
		l1.42725-0.50391h0.28809l0.07178,0.59961l0.19189,0.07227c0.4917-0.4082,0.97168-0.67188,1.49902-0.67188
		c0.81592,0,2.09912,0.83984,2.09912,2.77051c0,1.89551-1.31934,3.02246-2.61475,3.02246
		C16.94238,55.37988,16.48682,55.2959,16.22266,55.2002z M16.22266,54.34863c0.22803,0.33594,0.6958,0.56348,1.13965,0.56348
		c0.63574,0,1.6792-0.58789,1.6792-2.2666c0-1.5-0.94775-2.24316-1.66748-2.24316c-0.45557,0-0.91113,0.28809-1.15137,0.52832
		V54.34863z"/>
</g>
<g>
</g>
<g>
	<path d="M75.33545,53.43652h0.396c0.19189,0.8877,0.63574,1.51172,1.37939,1.51172c0.52734,0,0.88721-0.44336,0.88721-0.8877
		c0-0.49121-0.21582-0.76758-1.271-1.23535c-0.95947-0.4082-1.3916-0.89941-1.3916-1.71484
		c0-0.69531,0.50391-1.52344,1.63135-1.52344c0.51562,0,0.91162,0.14453,1.15137,0.24023l0.2998-0.14453h0.26367v1.71484h-0.34766
		c-0.27588-0.98242-0.87549-1.35547-1.33105-1.35547c-0.50391,0-0.91162,0.34863-0.91162,0.83984
		c0,0.49219,0.43164,0.74414,1.25928,1.12793c0.92334,0.41895,1.55908,0.85156,1.55908,1.73926
		c0,1.06641-0.85156,1.63086-1.82275,1.63086c-0.50391,0-1.04346-0.21582-1.23535-0.2998l-0.18018,0.15527h-0.33594V53.43652z"/>
	<path d="M79.67969,50.36621v-0.44336l0.6958-0.43164l0.63574-1.10352h0.37158v1.35547h1.57129v0.62305h-1.57129v3.57422
		c0,0.54004,0.25195,0.79102,0.64795,0.79102c0.25146,0,0.61133-0.05859,0.92334-0.23926l0.15576,0.31152
		c-0.22754,0.22852-0.76758,0.57617-1.46289,0.57617c-0.87549,0-1.23535-0.51562-1.23535-1.47461v-3.53906H79.67969z"/>
	<path d="M86.05029,49.58691c1.40332,0,2.54248,1.0918,2.54248,2.90234c0,1.91895-1.13916,2.89062-2.54248,2.89062
		s-2.55469-1.03125-2.55469-2.89062C83.49561,50.70215,84.64697,49.58691,86.05029,49.58691z M86.05029,54.87598
		c0.75537,0,1.42725-0.47949,1.42725-2.39844c0-1.77539-0.67188-2.38672-1.42725-2.38672s-1.42725,0.63574-1.42725,2.38672
		C84.62305,54.2041,85.29492,54.87598,86.05029,54.87598z"/>
	<path d="M90.99463,55.2002v2.375l1.00781,0.17969v0.35938h-2.69873v-0.35938l0.71973-0.17969v-6.89648l-0.77979-0.33594v-0.25195
		l1.42725-0.50391h0.28809l0.07178,0.59961l0.19189,0.07227c0.4917-0.4082,0.97168-0.67188,1.49902-0.67188
		c0.81592,0,2.09912,0.83984,2.09912,2.77051c0,1.89551-1.31934,3.02246-2.61475,3.02246
		C91.71436,55.37988,91.25879,55.2959,90.99463,55.2002z M90.99463,54.34863c0.22803,0.33594,0.6958,0.56348,1.13965,0.56348
		c0.63574,0,1.6792-0.58789,1.6792-2.2666c0-1.5-0.94775-2.24316-1.66748-2.24316c-0.45557,0-0.91113,0.28809-1.15137,0.52832
		V54.34863z"/>
</g>
<g>
</g>
<g>
	<path d="M169.0791,53.43652h0.39551c0.19238,0.8877,0.63574,1.51172,1.37988,1.51172c0.52734,0,0.8877-0.44336,0.8877-0.8877
		c0-0.49121-0.21582-0.76758-1.27148-1.23535c-0.95996-0.4082-1.3916-0.89941-1.3916-1.71484
		c0-0.69531,0.50391-1.52344,1.63086-1.52344c0.5166,0,0.91211,0.14453,1.15137,0.24023l0.30078-0.14453h0.26367v1.71484h-0.34766
		c-0.27637-0.98242-0.87598-1.35547-1.33203-1.35547c-0.50391,0-0.91113,0.34863-0.91113,0.83984
		c0,0.49219,0.43164,0.74414,1.25879,1.12793c0.92383,0.41895,1.55957,0.85156,1.55957,1.73926
		c0,1.06641-0.85156,1.63086-1.82324,1.63086c-0.50391,0-1.04297-0.21582-1.23535-0.2998l-0.17969,0.15527h-0.33594V53.43652z"/>
	<path d="M173.42285,50.36621v-0.44336l0.69629-0.43164l0.63477-1.10352h0.37207v1.35547h1.57129v0.62305h-1.57129v3.57422
		c0,0.54004,0.25195,0.79102,0.64746,0.79102c0.25195,0,0.6123-0.05859,0.92383-0.23926l0.15625,0.31152
		c-0.22852,0.22852-0.76758,0.57617-1.46387,0.57617c-0.875,0-1.23535-0.51562-1.23535-1.47461v-3.53906H173.42285z"/>
	<path d="M178.50977,53.84473c0.4082,0,0.74414,0.33594,0.74414,0.74414c0,0.40723-0.33594,0.73047-0.74414,0.73047
		c-0.40723,0-0.73145-0.32324-0.73145-0.73047C177.77832,54.18066,178.10254,53.84473,178.50977,53.84473z"/>
	<path d="M182.99707,49.58691c1.40332,0,2.54297,1.0918,2.54297,2.90234c0,1.91895-1.13965,2.89062-2.54297,2.89062
		c-1.40234,0-2.55371-1.03125-2.55371-2.89062C180.44336,50.70215,181.59473,49.58691,182.99707,49.58691z M182.99707,54.87598
		c0.75586,0,1.42773-0.47949,1.42773-2.39844c0-1.77539-0.67188-2.38672-1.42773-2.38672
		c-0.75488,0-1.42676,0.63574-1.42676,2.38672C181.57031,54.2041,182.24219,54.87598,182.99707,54.87598z"/>
	<path d="M187.94238,55.2002v2.375l1.00684,0.17969v0.35938h-2.69824v-0.35938l0.71973-0.17969v-6.89648l-0.7793-0.33594v-0.25195
		l1.42676-0.50391h0.28809l0.07227,0.59961l0.19141,0.07227c0.49219-0.4082,0.97168-0.67188,1.49902-0.67188
		c0.81543,0,2.09863,0.83984,2.09863,2.77051c0,1.89551-1.31934,3.02246-2.61426,3.02246
		C188.66211,55.37988,188.20605,55.2959,187.94238,55.2002z M187.94238,54.34863c0.22754,0.33594,0.69531,0.56348,1.13867,0.56348
		c0.63574,0,1.67969-0.58789,1.67969-2.2666c0-1.5-0.94727-2.24316-1.66699-2.24316c-0.45605,0-0.91211,0.28809-1.15137,0.52832
		V54.34863z"/>
</g>
<g>
</g>
<g>
	<path d="M235.63184,53.43652h0.39551c0.19238,0.8877,0.63574,1.51172,1.37988,1.51172c0.52734,0,0.8877-0.44336,0.8877-0.8877
		c0-0.49121-0.21582-0.76758-1.27148-1.23535c-0.95996-0.4082-1.3916-0.89941-1.3916-1.71484
		c0-0.69531,0.50391-1.52344,1.63086-1.52344c0.5166,0,0.91211,0.14453,1.15137,0.24023l0.30078-0.14453h0.26367v1.71484h-0.34766
		c-0.27637-0.98242-0.87598-1.35547-1.33203-1.35547c-0.50391,0-0.91113,0.34863-0.91113,0.83984
		c0,0.49219,0.43164,0.74414,1.25879,1.12793c0.92383,0.41895,1.55957,0.85156,1.55957,1.73926
		c0,1.06641-0.85156,1.63086-1.82324,1.63086c-0.50391,0-1.04297-0.21582-1.23535-0.2998l-0.17969,0.15527h-0.33594V53.43652z"/>
	<path d="M239.97559,50.36621v-0.44336l0.69629-0.43164l0.63477-1.10352h0.37207v1.35547H243.25v0.62305h-1.57129v3.57422
		c0,0.54004,0.25195,0.79102,0.64746,0.79102c0.25195,0,0.6123-0.05859,0.92383-0.23926l0.15625,0.31152
		c-0.22852,0.22852-0.76758,0.57617-1.46387,0.57617c-0.875,0-1.23535-0.51562-1.23535-1.47461v-3.53906H239.97559z"/>
	<path d="M246.3457,49.58691c1.40332,0,2.54297,1.0918,2.54297,2.90234c0,1.91895-1.13965,2.89062-2.54297,2.89062
		c-1.40234,0-2.55371-1.03125-2.55371-2.89062C243.79199,50.70215,244.94336,49.58691,246.3457,49.58691z M246.3457,54.87598
		c0.75586,0,1.42773-0.47949,1.42773-2.39844c0-1.77539-0.67188-2.38672-1.42773-2.38672
		c-0.75488,0-1.42676,0.63574-1.42676,2.38672C244.91895,54.2041,245.59082,54.87598,246.3457,54.87598z"/>
	<path d="M251.29102,55.2002v2.375l1.00684,0.17969v0.35938h-2.69824v-0.35938l0.71973-0.17969v-6.89648l-0.7793-0.33594v-0.25195
		l1.42676-0.50391h0.28809l0.07227,0.59961l0.19141,0.07227c0.49219-0.4082,0.97168-0.67188,1.49902-0.67188
		c0.81543,0,2.09863,0.83984,2.09863,2.77051c0,1.89551-1.31934,3.02246-2.61426,3.02246
		C252.01074,55.37988,251.55469,55.2959,251.29102,55.2002z M251.29102,54.34863c0.22754,0.33594,0.69531,0.56348,1.13867,0.56348
		c0.63574,0,1.67969-0.58789,1.67969-2.2666c0-1.5-0.94727-2.24316-1.66699-2.24316c-0.45605,0-0.91211,0.28809-1.15137,0.52832
		V54.34863z"/>
</g>
</svg>
