<?xml version="1.0" encoding="utf-8"?>
<!-- Generator: Adobe Illustrator 15.1.0, SVG Export Plug-In . SVG Version: 6.00 Build 0)  -->
<!DOCTYPE svg PUBLIC "-//W3C//DTD SVG 1.1//EN" "http://www.w3.org/Graphics/SVG/1.1/DTD/svg11.dtd">
<svg version="1.1" id="Layer_1" xmlns="http://www.w3.org/2000/svg" xmlns:xlink="http://www.w3.org/1999/xlink" x="0px" y="0px"
	 width="43.55615px" height="62.25488px" viewBox="0 0 43.55615 62.25488" style="enable-background:new 0 0 43.55615 62.25488;"
	 xml:space="preserve">
<g>
	<path d="M21.35645,8.67822c-0.3999-1.91943-0.7998-2.91943-1.23975-3.55908c-0.67969-0.95996-1.31982-1.27979-4.35938-1.27979
		h-2.79932v19.7168c0,3.15918,0.31982,3.55908,4.0791,3.79932v1.11963H5.59912v-1.11963
		c3.63965-0.24023,3.95947-0.64014,3.95947-3.79932V3.83936H7.0791c-3.31934,0-4.11963,0.35986-4.63916,1.23975
		c-0.47998,0.67969-0.7998,1.83984-1.27979,3.59912H0C0.2002,6.27881,0.3999,3.6792,0.47998,1.47949h0.7998
		c0.56006,0.91992,1.08008,1,2.19971,1h15.79736c1.08008,0,1.3999-0.24023,2-1h0.83984
		c0.03955,1.83984,0.19971,4.75928,0.43945,7.0791L21.35645,8.67822z"/>
	<path d="M35.11768,28.4751v-1.04004c2.31934-0.23975,2.63965-0.47949,2.63965-3.0791V17.7168
		c0-3.2793-1.24023-4.91895-3.91943-4.91895c-1.52002,0-3.03955,0.75977-4.15967,2.03955v9.51855
		c0,2.55957,0.2002,2.83936,2.59961,3.0791v1.04004h-8.51855l0.04004-1.04004c2.3999-0.19971,2.71973-0.43994,2.71973-3.0791
		V5.27881c0-2.51953-0.08008-2.6792-2.71973-2.91943V1.39941C25.71924,1.11963,28.11865,0.47998,29.67822,0v13.4375
		c1.43994-1.43945,3.55957-2.91943,5.71924-2.91943c3.23926,0,5.51904,2.03955,5.51904,6.83887v6.99902
		c0,2.63916,0.31982,2.87939,2.63965,3.0791v1.04004H35.11768z"/>
	<path d="M35.07764,62.25488v-1.04004c2.35986-0.23975,2.63965-0.51953,2.63965-3.11914v-6.55908
		c0-3.31934-1.23975-4.95898-3.95947-4.95898c-1.47949,0-3.03955,0.75977-4.11914,2.11963v9.39844
		c0,2.55957,0.2002,2.87939,2.63965,3.11914v1.04004h-8.59863v-1.04004c2.55957-0.23975,2.79932-0.51953,2.79932-3.15918v-20.1167
		c-2.19922-0.23975-4.2793-0.27979-7.79834-0.27979h-2.83984v19.59668c0,3.35938,0.32031,3.6792,3.99951,3.91943v1.07959H8.56201
		v-1.07959c3.55957-0.24023,3.87939-0.56006,3.87939-3.91943V37.65918H9.92188c-3.55908,0-4.2793,0.35986-4.83887,1.31982
		c-0.47998,0.75977-0.83984,1.67969-1.31982,3.51904H2.60303c0.2002-2.35938,0.3999-5.03906,0.47998-7.23877h0.75977
		c0.56006,0.87988,1.08008,1,2.19971,1h16.63721c3.31982,0,3.79932-0.24023,3.79932-1.04004v-0.59961
		c0.80029-0.12012,2.04004-0.52002,3.15967-0.91992v13.47754c1.47998-1.51953,3.51953-2.83936,5.59912-2.87939
		c3.35938-0.08008,5.63916,2.03955,5.63916,6.79883v6.99902c0,2.6792,0.27979,2.91943,2.6792,3.11914v1.04004H35.07764z"/>
</g>
</svg>
